<svg width="77" height="17" viewBox="0 0 77 17" fill="none" xmlns="http://www.w3.org/2000/svg">
<path d="M0 0.222291H3.33183V13.8244H12.8859V16.7671H0V0.222291Z" fill="white"/>
<path d="M15.1562 8.44707C15.1562 7.19801 15.3839 6.05479 15.8393 5.01743C16.2948 3.98007 16.9324 3.09091 17.7523 2.34994C18.5791 1.60191 19.5671 1.02325 20.7162 0.613948C21.8724 0.204649 23.1512 0 24.5526 0C25.9469 0 27.2222 0.204649 28.3784 0.613948C29.5345 1.02325 30.5225 1.60191 31.3423 2.34994C32.1692 3.09091 32.8103 3.98007 33.2658 5.01743C33.7212 6.05479 33.9489 7.19801 33.9489 8.44707C33.9489 9.7032 33.7212 10.857 33.2658 11.9085C32.8103 12.9529 32.1692 13.8526 31.3423 14.6077C30.5225 15.3628 29.5345 15.9521 28.3784 16.3755C27.2222 16.7918 25.9469 17 24.5526 17C23.1512 17 21.8724 16.7918 20.7162 16.3755C19.5671 15.9521 18.5791 15.3628 17.7523 14.6077C16.9324 13.8526 16.2948 12.9529 15.8393 11.9085C15.3839 10.857 15.1562 9.7032 15.1562 8.44707ZM18.488 8.44707C18.488 9.30095 18.6386 10.0702 18.9399 10.7547C19.2482 11.4392 19.6722 12.0249 20.2117 12.5118C20.7583 12.9917 21.3994 13.3622 22.1351 13.6233C22.8779 13.8844 23.6837 14.0149 24.5526 14.0149C25.4214 14.0149 26.2237 13.8844 26.9595 13.6233C27.7022 13.3622 28.3433 12.9917 28.8829 12.5118C29.4224 12.0249 29.8463 11.4392 30.1547 10.7547C30.463 10.0702 30.6171 9.30095 30.6171 8.44707C30.6171 7.59319 30.463 6.82752 30.1547 6.15006C29.8463 5.4726 29.4224 4.901 28.8829 4.43524C28.3433 3.96243 27.7022 3.60253 26.9595 3.35554C26.2237 3.10855 25.4214 2.98506 24.5526 2.98506C23.6837 2.98506 22.8779 3.10855 22.1351 3.35554C21.3994 3.60253 20.7583 3.96243 20.2117 4.43524C19.6722 4.901 19.2482 5.4726 18.9399 6.15006C18.6386 6.82752 18.488 7.59319 18.488 8.44707Z" fill="white"/>
<path d="M36.524 8.34122C36.524 7.17684 36.7412 6.09008 37.1757 5.08095C37.6101 4.06476 38.2442 3.18265 39.0781 2.43462C39.9119 1.68659 40.9349 1.09734 42.1471 0.666874C43.3664 0.236405 44.7608 0.0211706 46.3303 0.0211706C46.8979 0.0211706 47.4655 0.0529265 48.033 0.116438C48.6076 0.172893 49.1717 0.264633 49.7252 0.391656C50.2858 0.51868 50.8288 0.680988 51.3544 0.87858C51.8869 1.06912 52.3914 1.29846 52.8679 1.56663L51.3333 4.1071C51.046 3.93773 50.7202 3.78601 50.3559 3.65193C49.9915 3.51079 49.5991 3.39435 49.1787 3.30262C48.7653 3.20382 48.3343 3.12972 47.8859 3.08032C47.4444 3.03093 46.9995 3.00623 46.5511 3.00623C45.514 3.00623 44.5891 3.14031 43.7763 3.40847C42.9635 3.66957 42.2768 4.04006 41.7162 4.51993C41.1557 4.99274 40.7282 5.56081 40.4339 6.22416C40.1396 6.88751 39.9925 7.61436 39.9925 8.40473C39.9925 9.22333 40.1466 9.97489 40.455 10.6594C40.7633 11.3439 41.2012 11.9332 41.7688 12.4271C42.3363 12.9211 43.023 13.3093 43.8288 13.5915C44.6346 13.8667 45.535 14.0044 46.53 14.0044C47.3218 14.0044 48.047 13.9161 48.7057 13.7397C49.3644 13.5562 49.9389 13.2987 50.4294 12.967C50.9199 12.6353 51.3193 12.2366 51.6276 11.7709C51.9359 11.298 52.1391 10.7688 52.2372 10.1831H46.4985V7.4203H55.2327V7.43088L55.2432 7.4203C55.4184 8.26712 55.471 9.09278 55.4009 9.89726C55.3378 10.6947 55.1557 11.4498 54.8544 12.1625C54.5601 12.8682 54.1537 13.5174 53.6351 14.1102C53.1166 14.703 52.4965 15.2146 51.7748 15.6451C51.0531 16.0685 50.2332 16.4002 49.3153 16.6401C48.3974 16.873 47.3919 16.9894 46.2988 16.9894C44.7713 16.9894 43.4014 16.7636 42.1892 16.312C40.984 15.8603 39.961 15.2428 39.1201 14.4595C38.2793 13.6762 37.6346 12.7588 37.1862 11.7073C36.7447 10.6559 36.524 9.53383 36.524 8.34122Z" fill="white"/>
<path d="M58.2072 8.44707C58.2072 7.19801 58.4349 6.05479 58.8904 5.01743C59.3458 3.98007 59.9835 3.09091 60.8033 2.34994C61.6301 1.60191 62.6181 1.02325 63.7673 0.613948C64.9234 0.204649 66.2022 0 67.6036 0C68.998 0 70.2733 0.204649 71.4294 0.613948C72.5856 1.02325 73.5736 1.60191 74.3934 2.34994C75.2202 3.09091 75.8614 3.98007 76.3168 5.01743C76.7723 6.05479 77 7.19801 77 8.44707C77 9.7032 76.7723 10.857 76.3168 11.9085C75.8614 12.9529 75.2202 13.8526 74.3934 14.6077C73.5736 15.3628 72.5856 15.9521 71.4294 16.3755C70.2733 16.7918 68.998 17 67.6036 17C66.2022 17 64.9234 16.7918 63.7673 16.3755C62.6181 15.9521 61.6301 15.3628 60.8033 14.6077C59.9835 13.8526 59.3458 12.9529 58.8904 11.9085C58.4349 10.857 58.2072 9.7032 58.2072 8.44707ZM61.539 8.44707C61.539 9.30095 61.6897 10.0702 61.991 10.7547C62.2993 11.4392 62.7232 12.0249 63.2628 12.5118C63.8093 12.9917 64.4504 13.3622 65.1862 13.6233C65.9289 13.8844 66.7347 14.0149 67.6036 14.0149C68.4725 14.0149 69.2748 13.8844 70.0105 13.6233C70.7533 13.3622 71.3944 12.9917 71.9339 12.5118C72.4735 12.0249 72.8974 11.4392 73.2057 10.7547C73.514 10.0702 73.6682 9.30095 73.6682 8.44707C73.6682 7.59319 73.514 6.82752 73.2057 6.15006C72.8974 5.4726 72.4735 4.901 71.9339 4.43524C71.3944 3.96243 70.7533 3.60253 70.0105 3.35554C69.2748 3.10855 68.4725 2.98506 67.6036 2.98506C66.7347 2.98506 65.9289 3.10855 65.1862 3.35554C64.4504 3.60253 63.8093 3.96243 63.2628 4.43524C62.7232 4.901 62.2993 5.4726 61.991 6.15006C61.6897 6.82752 61.539 7.59319 61.539 8.44707Z" fill="white"/>
</svg>
