<svg width="521" height="293" viewBox="0 0 521 293" fill="none" xmlns="http://www.w3.org/2000/svg">
<path d="M0 179.251H521M0 167.994H521M0 156.737H521M0 145.48H521M0 134.222H521M0 122.965H521M0 111.708H521M0 100.451H521M0 89.1942H521M0 77.9366H521M0 66.6797H521M0 55.4224H521M0 44.1654H521M0 32.9082H521M0 21.6512H521M0 10.394H521M0 -0.863281H521M0 291.823H521M0 280.566H521M0 269.308H521M0 258.051H521M0 246.794H521M0 235.537H521M0 224.28H521M0 213.023H521M0 201.766H521M0 190.508H521" stroke="url(#paint0_linear_442_12347)" stroke-width="0.55"/>
<defs>
<linearGradient id="paint0_linear_442_12347" x1="521" y1="179.702" x2="0" y2="179.702" gradientUnits="userSpaceOnUse">
<stop stop-color="white" stop-opacity="0.08"/>
<stop offset="0.18" stop-color="white" stop-opacity="0.0687328"/>
<stop offset="0.37" stop-color="white" stop-opacity="0.14"/>
<stop offset="0.880918" stop-color="white" stop-opacity="0"/>
<stop offset="1" stop-color="white" stop-opacity="0"/>
</linearGradient>
</defs>
</svg>
