<svg width="180" height="180" viewBox="0 0 180 180" fill="none" xmlns="http://www.w3.org/2000/svg">
<path d="M53.25 128.062H64.5V89.625H53.25V128.062ZM115.5 128.062H126.75V49.3125H115.5V128.062ZM84.375 128.062H95.625V105.938H84.375V128.062ZM84.375 89.625H95.625V78.375H84.375V89.625ZM33.75 157.5C30.75 157.5 28.125 156.375 25.875 154.125C23.625 151.875 22.5 149.25 22.5 146.25V33.75C22.5 30.75 23.625 28.125 25.875 25.875C28.125 23.625 30.75 22.5 33.75 22.5H146.25C149.25 22.5 151.875 23.625 154.125 25.875C156.375 28.125 157.5 30.75 157.5 33.75V146.25C157.5 149.25 156.375 151.875 154.125 154.125C151.875 156.375 149.25 157.5 146.25 157.5H33.75Z" fill="url(#paint0_linear_444_12360)"/>
<defs>
<linearGradient id="paint0_linear_444_12360" x1="157.909" y1="22.5" x2="11.4039" y2="143.579" gradientUnits="userSpaceOnUse">
<stop stop-color="#C1CEF5"/>
<stop offset="0.295" stop-color="#6390F5"/>
<stop offset="1" stop-color="#C46DEA"/>
</linearGradient>
</defs>
</svg>
