<svg width="180" height="180" viewBox="0 0 180 180" fill="none" xmlns="http://www.w3.org/2000/svg">
<path d="M60.6521 109.634C65.6893 110.121 72.4917 110.687 76.0988 110.981L80.1542 111.312L72.8099 122.329C72.4833 122.819 72.4526 123.449 72.7305 123.968C73.0084 124.488 73.5498 124.812 74.1387 124.812H78.3167C78.6345 124.812 78.9448 124.717 79.2083 124.539L96.9572 112.598L97.7868 112.661C99.8128 112.815 106.812 113.317 111.818 113.317C113.053 113.317 114.085 113.287 114.885 113.226C120.476 112.802 126.894 111.782 126.894 107.635C126.894 103.382 119.428 99.6496 114.916 99.6496H74.9944L64.8093 80.0066C64.5346 79.4767 63.988 79.1445 63.3915 79.1445H58.9895C58.5184 79.1445 58.0712 79.3526 57.7677 79.7131C57.4643 80.0732 57.3353 80.5496 57.416 81.0139L60.6042 99.4631L58.9404 100.236C56.6194 101.314 52.778 103.472 53.1278 105.82C53.4069 107.693 56.431 109.226 60.6521 109.634Z" fill="url(#paint0_linear_445_12387)"/>
<path d="M148.013 28.3789H31.9873C28.1347 28.3789 25 31.5136 25 35.3662V144.634C25 148.486 28.1347 151.621 31.9873 151.621H148.013C151.865 151.621 155 148.486 155 144.634V35.3662C155 31.5132 151.865 28.3789 148.013 28.3789ZM134.187 39.0926C137.379 39.0926 139.977 41.6899 139.977 44.882C139.977 48.0742 137.379 50.6715 134.187 50.6715C130.995 50.6715 128.398 48.0742 128.398 44.882C128.398 41.6899 130.995 39.0926 134.187 39.0926ZM114.554 39.0926C117.747 39.0926 120.344 41.6899 120.344 44.882C120.344 48.0742 117.747 50.6715 114.554 50.6715C111.362 50.6715 108.765 48.0742 108.765 44.882C108.765 41.6899 111.362 39.0926 114.554 39.0926ZM42.7273 41.8875H66.0848C67.7386 41.8875 69.0793 43.2279 69.0793 44.882C69.0793 46.5362 67.7386 47.8766 66.0848 47.8766H42.7273C41.0735 47.8766 39.7328 46.5362 39.7328 44.882C39.7328 43.2279 41.0735 41.8875 42.7273 41.8875ZM143.902 139.514C143.902 140.016 143.493 140.425 142.99 140.425H37.0101C36.5074 140.425 36.0982 140.016 36.0982 139.514V64.2627H143.902V139.514Z" fill="url(#paint1_linear_445_12387)"/>
<defs>
<linearGradient id="paint0_linear_445_12387" x1="127.117" y1="79.1445" x2="78.6943" y2="143.807" gradientUnits="userSpaceOnUse">
<stop stop-color="#C1CEF5"/>
<stop offset="0.295" stop-color="#6390F5"/>
<stop offset="1" stop-color="#C46DEA"/>
</linearGradient>
<linearGradient id="paint1_linear_445_12387" x1="155.394" y1="28.3789" x2="20.4841" y2="145.989" gradientUnits="userSpaceOnUse">
<stop stop-color="#C1CEF5"/>
<stop offset="0.295" stop-color="#6390F5"/>
<stop offset="1" stop-color="#C46DEA"/>
</linearGradient>
</defs>
</svg>
