<svg width="180" height="180" viewBox="0 0 180 180" fill="none" xmlns="http://www.w3.org/2000/svg">
<path d="M96.375 157.312C92.875 157.562 87.0625 157.375 78.9375 156.75C70.8125 156.125 62.5625 154.781 54.1875 152.719C45.8125 150.656 38.4375 147.75 32.0625 144C25.6875 140.25 22.5 135.375 22.5 129.375V110.625C22.5 115.25 24.5625 119.25 28.6875 122.625C32.8125 126 37.9688 128.812 44.1562 131.062C50.3438 133.312 57.0625 135.062 64.3125 136.312C71.5625 137.562 78.3125 138.312 84.5625 138.562C85.6875 142.188 87.25 145.594 89.25 148.781C91.25 151.969 93.625 154.812 96.375 157.312ZM82.875 119.625C77.5 119.25 71.3125 118.5 64.3125 117.375C57.3125 116.25 50.7188 114.625 44.5312 112.5C38.3438 110.375 33.125 107.625 28.875 104.25C24.625 100.875 22.5 96.75 22.5 91.875V73.125C22.5 78 24.8438 82.2188 29.5312 85.7812C34.2188 89.3438 40.0312 92.2812 46.9688 94.5938C53.9062 96.9062 61.2812 98.5938 69.0938 99.6562C76.9062 100.719 83.875 101.25 90 101.25C88.125 104 86.5938 106.906 85.4062 109.969C84.2188 113.031 83.375 116.25 82.875 119.625ZM90 82.5C71.25 82.5 55.3125 79.5625 42.1875 73.6875C29.0625 67.8125 22.5 60.75 22.5 52.5C22.5 44.125 29.0313 37.0312 42.0938 31.2188C55.1562 25.4062 71.125 22.5 90 22.5C108.875 22.5 124.844 25.4062 137.906 31.2188C150.969 37.0312 157.5 44.125 157.5 52.5C157.5 60.75 150.938 67.8125 137.812 73.6875C124.688 79.5625 108.75 82.5 90 82.5ZM164.625 172.5L144 151.875C141.375 154 138.469 155.469 135.281 156.281C132.094 157.094 128.875 157.5 125.625 157.5C116.75 157.5 109.219 154.406 103.031 148.219C96.8438 142.031 93.75 134.5 93.75 125.625C93.75 116.75 96.8438 109.219 103.031 103.031C109.219 96.8438 116.75 93.75 125.625 93.75C134.5 93.75 142.031 96.8438 148.219 103.031C154.406 109.219 157.5 116.75 157.5 125.625C157.5 128.875 157.094 132.125 156.281 135.375C155.469 138.625 154 141.5 151.875 144L172.5 164.625L164.625 172.5ZM125.625 146.25C131.375 146.25 136.25 144.25 140.25 140.25C144.25 136.25 146.25 131.375 146.25 125.625C146.25 119.875 144.25 115 140.25 111C136.25 107 131.375 105 125.625 105C119.875 105 115 107 111 111C107 115 105 119.875 105 125.625C105 131.375 107 136.25 111 140.25C115 144.25 119.875 146.25 125.625 146.25Z" fill="url(#paint0_linear_445_12366)"/>
<defs>
<linearGradient id="paint0_linear_445_12366" x1="172.955" y1="22.5" x2="10.171" y2="157.032" gradientUnits="userSpaceOnUse">
<stop stop-color="#C1CEF5"/>
<stop offset="0.295" stop-color="#6390F5"/>
<stop offset="1" stop-color="#C46DEA"/>
</linearGradient>
</defs>
</svg>
