<svg width="180" height="180" viewBox="0 0 180 180" fill="none" xmlns="http://www.w3.org/2000/svg">
<path d="M118.125 165C115.521 165 113.308 164.089 111.484 162.266C109.661 160.442 108.75 158.229 108.75 155.625V140.625H165V155.625C165 158.229 164.089 160.442 162.266 162.266C160.442 164.089 158.229 165 155.625 165H118.125ZM26.25 150C23.25 150 20.625 148.875 18.375 146.625C16.125 144.375 15 141.75 15 138.75V41.25C15 38.25 16.125 35.625 18.375 33.375C20.625 31.125 23.25 30 26.25 30H153.75C156.75 30 159.375 31.125 161.625 33.375C163.875 35.625 165 38.25 165 41.25V90H153.75V41.25H95.625V87.9375C92.5 87.9375 89.8438 89.0387 87.6562 91.2412C85.4688 93.445 84.375 96.0938 84.375 99.1875V150H26.25ZM111.188 135C108.312 135 105.938 133.854 104.062 131.563C102.188 129.271 101.562 126.666 102.188 123.75L105.188 108.75C105.688 106.625 106.786 104.844 108.484 103.406C110.183 101.969 112.146 101.25 114.375 101.25H159.375C161.604 101.25 163.567 101.969 165.266 103.406C166.964 104.844 168.062 106.625 168.562 108.75L171.562 123.75C172.188 126.666 171.562 129.271 169.688 131.563C167.812 133.854 165.438 135 162.562 135H111.188ZM35.625 120.562H75V109.312H35.625V120.562ZM35.625 96.375H75V85.125H35.625V96.375ZM35.625 72.1875H75V60.9375H35.625V72.1875ZM105 72.1875V60.9375H144.375V72.1875H105Z" fill="url(#paint0_linear_442_12351)"/>
<defs>
<linearGradient id="paint0_linear_442_12351" x1="172.272" y1="30" x2="23.222" y2="173.071" gradientUnits="userSpaceOnUse">
<stop stop-color="#C1CEF5"/>
<stop offset="0.295" stop-color="#6390F5"/>
<stop offset="1" stop-color="#C46DEA"/>
</linearGradient>
</defs>
</svg>
