<svg width="166" height="151" viewBox="0 0 166 151" fill="none" xmlns="http://www.w3.org/2000/svg">
<path d="M79.25 150.25V134.875C70.25 133.875 62.6875 130 56.5625 123.25C50.4375 116.5 47.375 108.438 47.375 99.0625H54.875C54.875 106.938 57.5938 113.656 63.0312 119.219C68.4688 124.781 75.125 127.562 83 127.562C90.875 127.562 97.5312 124.781 102.969 119.219C108.406 113.656 111.125 106.938 111.125 99.0625H118.625C118.625 108.438 115.562 116.5 109.438 123.25C103.312 130 95.75 133.875 86.75 134.875V150.25H79.25ZM83 112.188C79.375 112.188 76.2812 110.906 73.7188 108.344C71.1562 105.781 69.875 102.688 69.875 99.0625V76.1875C69.875 72.5625 71.1562 69.4688 73.7188 66.9062C76.2812 64.3438 79.375 63.0625 83 63.0625C86.625 63.0625 89.7188 64.3438 92.2812 66.9062C94.8438 69.4688 96.125 72.5625 96.125 76.1875V99.0625C96.125 102.688 94.8438 105.781 92.2812 108.344C89.7188 110.906 86.625 112.188 83 112.188ZM0.5 91.375V80.125C0.5 76.125 1.5 72.5 3.5 69.25C5.5 66 8.25 63.5 11.75 61.75C17 59 22.4375 56.9375 28.0625 55.5625C33.6875 54.1875 39.5 53.5 45.5 53.5C48.625 53.5 51.7188 53.6875 54.7812 54.0625C57.8438 54.4375 60.8125 55 63.6875 55.75C56.6875 59 50.7188 63.8438 45.7812 70.2812C40.8438 76.7188 37.8125 83.75 36.6875 91.375H0.5ZM129.312 91.375C128.188 83.75 125.156 76.7188 120.219 70.2812C115.281 63.8438 109.312 59 102.312 55.75C105.188 55 108.156 54.4375 111.219 54.0625C114.281 53.6875 117.375 53.5 120.5 53.5C126.5 53.5 132.312 54.1875 137.938 55.5625C143.562 56.9375 149 59 154.25 61.75C157.75 63.5 160.5 66 162.5 69.25C164.5 72.5 165.5 76.125 165.5 80.125V91.375H129.312ZM45.5 45.8125C39.125 45.8125 33.7812 43.5938 29.4688 39.1562C25.1562 34.7188 23 29.3125 23 22.9375C23 16.5625 25.1875 11.1875 29.5625 6.8125C33.9375 2.4375 39.25 0.25 45.5 0.25C51.75 0.25 57.0625 2.4375 61.4375 6.8125C65.8125 11.1875 68 16.5625 68 22.9375C68 29.3125 65.8438 34.7188 61.5312 39.1562C57.2188 43.5938 51.875 45.8125 45.5 45.8125ZM120.5 45.8125C114.125 45.8125 108.781 43.5938 104.469 39.1562C100.156 34.7188 98 29.3125 98 22.9375C98 16.5625 100.188 11.1875 104.562 6.8125C108.938 2.4375 114.25 0.25 120.5 0.25C126.75 0.25 132.062 2.4375 136.438 6.8125C140.812 11.1875 143 16.5625 143 22.9375C143 29.3125 140.844 34.7188 136.531 39.1562C132.219 43.5938 126.875 45.8125 120.5 45.8125Z" fill="url(#paint0_linear_442_12341)"/>
<defs>
<linearGradient id="paint0_linear_442_12341" x1="166" y1="0.250015" x2="1.00001" y2="150.25" gradientUnits="userSpaceOnUse">
<stop stop-color="#C1CEF5"/>
<stop offset="0.295" stop-color="#6390F5"/>
<stop offset="1" stop-color="#C46DEA"/>
</linearGradient>
</defs>
</svg>
