<svg width="180" height="180" viewBox="0 0 180 180" fill="none" xmlns="http://www.w3.org/2000/svg">
<path d="M87.9375 165C84.9375 165 82.3125 163.875 80.0625 161.625C77.8125 159.375 76.6875 156.75 76.6875 153.75V131.812L118.312 90L76.6875 48.1875V26.25C76.6875 23.25 77.8125 20.625 80.0625 18.375C82.3125 16.125 84.9375 15 87.9375 15H153.75C156.75 15 159.375 16.125 161.625 18.375C163.875 20.625 165 23.25 165 26.25V54.1875C167 54.1875 168.688 54.8438 170.062 56.1562C171.438 57.4688 172.125 59.125 172.125 61.125V80.0625C172.125 82.0625 171.438 83.75 170.062 85.125C168.688 86.5 167 87.1875 165 87.1875V153.75C165 156.75 163.875 159.375 161.625 161.625C159.375 163.875 156.75 165 153.75 165H87.9375ZM74.625 117.938L66.75 109.875L80.8125 95.625H15V84.375H80.8125L66.75 70.125L74.625 62.0625L102.375 90L74.625 117.938ZM15 65.625V38.8125H41.625V65.625H15ZM15 141V114.375H41.625V141H15Z" fill="url(#paint0_linear_445_12401)"/>
<defs>
<linearGradient id="paint0_linear_445_12401" x1="172.601" y1="15" x2="8.55994" y2="157.011" gradientUnits="userSpaceOnUse">
<stop stop-color="#C1CEF5"/>
<stop offset="0.295" stop-color="#6390F5"/>
<stop offset="1" stop-color="#C46DEA"/>
</linearGradient>
</defs>
</svg>
