<svg width="180" height="180" viewBox="0 0 180 180" fill="none" xmlns="http://www.w3.org/2000/svg">
<path d="M94.6858 149.054C93.7321 149.054 92.9162 148.37 92.7516 147.43L89.9259 131.352L89.2011 127.227H91.2029C92.0507 127.227 92.7385 126.539 92.7385 125.691V113.854C92.7385 113.005 92.0507 112.318 91.2029 112.318H86.5813L85.368 105.414H65.3008L73.9278 154.51C74.0793 155.371 74.8275 156 75.7019 156H81.7565H94.2574H94.6858C96.6035 156 98.1582 154.445 98.1582 152.527C98.1582 150.609 96.6035 149.054 94.6858 149.054Z" fill="url(#paint0_linear_445_12377)"/>
<path d="M57.7837 54.041L48.9302 57.0999V61.0428H40.6203C38.9486 61.0428 37.5932 62.3982 37.5932 64.0699V65.8872H33.0079C31.3359 65.8872 29.9805 67.2424 29.9805 68.9144V86.4185C29.9805 88.0902 31.3359 89.4456 33.0079 89.4456H37.5932V91.2624C37.5932 92.9344 38.9486 94.2898 40.6203 94.2898H48.9302V98.2325L57.7837 101.292H65.3008H85.3685H92.377V54.041H57.7837Z" fill="url(#paint1_linear_445_12377)"/>
<path d="M145.059 24C142.319 24 140.098 26.2209 140.098 28.9607V29.0837L96.5039 54.0389V101.289L140.098 126.244V126.368C140.098 129.107 142.319 131.328 145.059 131.328C147.798 131.328 150.019 129.107 150.019 126.368V28.9607C150.019 26.2209 147.798 24 145.059 24Z" fill="url(#paint2_linear_445_12377)"/>
<defs>
<linearGradient id="paint0_linear_445_12377" x1="98.2577" y1="105.414" x2="51.6704" y2="130.423" gradientUnits="userSpaceOnUse">
<stop stop-color="#C1CEF5"/>
<stop offset="0.295" stop-color="#6390F5"/>
<stop offset="1" stop-color="#C46DEA"/>
</linearGradient>
<linearGradient id="paint1_linear_445_12377" x1="92.5661" y1="54.041" x2="40.5531" y2="110.806" gradientUnits="userSpaceOnUse">
<stop stop-color="#C1CEF5"/>
<stop offset="0.295" stop-color="#6390F5"/>
<stop offset="1" stop-color="#C46DEA"/>
</linearGradient>
<linearGradient id="paint2_linear_445_12377" x1="150.181" y1="24" x2="66.6267" y2="58.431" gradientUnits="userSpaceOnUse">
<stop stop-color="#C1CEF5"/>
<stop offset="0.295" stop-color="#6390F5"/>
<stop offset="1" stop-color="#C46DEA"/>
</linearGradient>
</defs>
</svg>
