<svg width="180" height="180" viewBox="0 0 180 180" fill="none" xmlns="http://www.w3.org/2000/svg">
<g clip-path="url(#clip0_446_12416)">
<path d="M136.542 0.0367293C132.919 0.159954 129.299 0.736779 125.775 1.7213C111.68 5.65976 98.3302 15.0315 85.6387 26.1988C60.2556 48.5341 37.1493 79.0684 24.9649 91.2526C24.2665 91.9493 23.7124 92.7769 23.3344 93.6881C22.9563 94.5993 22.7617 95.5761 22.7617 96.5626C22.7617 97.5491 22.9563 98.5259 23.3344 99.4371C23.7124 100.348 24.2665 101.176 24.9649 101.873L78.9443 155.852C80.3497 157.249 82.2508 158.033 84.2324 158.033C86.2141 158.033 88.1152 157.249 89.5205 155.852C101.778 143.594 132.081 120.192 154.135 94.5191C165.162 81.683 174.347 68.1709 178.158 53.9869C181.969 39.8029 179.332 24.3268 167.362 12.3561C158.384 3.37824 147.413 -0.332976 136.542 0.0367293ZM127.123 30.857C132.969 30.8668 138.819 33.0899 143.236 37.5074C152.071 46.3425 152.071 60.8551 143.236 69.6901C134.401 78.5252 119.845 78.5544 111.01 69.7192C102.175 60.8842 102.175 46.2986 111.01 37.4634C115.427 33.046 121.277 30.8472 127.123 30.857ZM60.6484 73.777L106.864 119.993C102.966 123.445 99.1834 126.837 95.6289 129.968L50.7461 85.1442C53.8666 81.5543 57.2183 77.7212 60.6484 73.777Z" fill="url(#paint0_linear_446_12416)"/>
<path d="M44.2851 31.457C42.3735 31.4988 40.5501 32.2691 39.1874 33.6104L2.93254 69.9238C1.91281 70.9356 1.20507 72.2189 0.893452 73.6212C0.581836 75.0236 0.679455 76.4858 1.1747 77.8343C1.66995 79.1827 2.542 80.3606 3.68717 81.2279C4.83234 82.0951 6.20247 82.6153 7.63467 82.7266L22.6786 83.9131C34.056 71.1087 49.5038 52.4299 67.2392 34.46L45.5009 31.501C45.0975 31.4533 44.6909 31.4388 44.2851 31.457ZM55.0663 73.0586C51.3156 77.3714 47.6727 81.5347 44.2411 85.4805C46.1778 85.2749 47.9587 84.3241 49.2069 82.8291L56.3407 74.333L55.0663 73.0586ZM146.18 112.961C128.304 131.012 109.634 146.74 96.8144 158.254L97.9863 173.078C98.0999 174.507 98.6208 175.874 99.4872 177.016C100.354 178.159 101.529 179.029 102.875 179.523C104.22 180.018 105.68 180.117 107.08 179.808C108.48 179.499 109.762 178.795 110.774 177.78L147.102 141.511C147.911 140.692 148.521 139.698 148.885 138.606C149.248 137.513 149.355 136.352 149.197 135.212L146.18 112.961ZM106.365 124.357L97.8837 131.491C97.1234 132.13 96.4975 132.913 96.0424 133.796C95.5873 134.679 95.3119 135.643 95.2323 136.633C99.1702 133.16 103.337 129.442 107.64 125.632L106.365 124.357Z" fill="url(#paint1_linear_446_12416)"/>
<path d="M37.5319 134.983C35.6209 135.028 33.7991 135.8 32.4386 137.143L2.43104 167.15C1.7311 167.847 1.1757 168.676 0.796722 169.588C0.417745 170.5 0.222656 171.478 0.222656 172.465C0.222656 173.453 0.417745 174.431 0.796722 175.343C1.1757 176.255 1.7311 177.084 2.43104 177.78C3.1279 178.48 3.95616 179.036 4.86825 179.415C5.78034 179.794 6.75831 179.989 7.746 179.989C8.73369 179.989 9.71166 179.794 10.6237 179.415C11.5358 179.036 12.3641 178.48 13.061 177.78L43.0685 147.773C43.7685 147.076 44.3239 146.248 44.7028 145.336C45.0818 144.424 45.2769 143.446 45.2769 142.458C45.2769 141.47 45.0818 140.493 44.7028 139.58C44.3239 138.668 43.7685 137.84 43.0685 137.143C42.3415 136.425 41.4754 135.863 40.5233 135.491C39.5712 135.12 38.5532 134.947 37.5319 134.983Z" fill="url(#paint2_linear_446_12416)"/>
<path d="M22.5284 112.45C20.6098 112.509 18.7868 113.302 17.4348 114.664L2.43104 129.668C1.7311 130.365 1.1757 131.193 0.796722 132.105C0.417745 133.017 0.222656 133.995 0.222656 134.983C0.222656 135.97 0.417745 136.948 0.796722 137.86C1.1757 138.772 1.7311 139.601 2.43104 140.298C3.1279 140.998 3.95616 141.553 4.86825 141.932C5.78034 142.311 6.75831 142.506 7.746 142.506C8.73369 142.506 9.71166 142.311 10.6237 141.932C11.5358 141.553 12.3641 140.998 13.061 140.298L28.0647 125.294C28.7647 124.597 29.3201 123.769 29.6991 122.857C30.078 121.945 30.2731 120.967 30.2731 119.979C30.2731 118.991 30.078 118.013 29.6991 117.101C29.3201 116.189 28.7647 115.361 28.0647 114.664C27.3423 113.936 26.4783 113.364 25.526 112.983C24.5738 112.603 23.5535 112.421 22.5284 112.45Z" fill="url(#paint3_linear_446_12416)"/>
<path d="M60.008 149.987C58.1163 150.046 56.3166 150.817 54.97 152.147L39.9662 167.151C39.2663 167.848 38.7109 168.676 38.3319 169.588C37.9529 170.5 37.7578 171.478 37.7578 172.466C37.7578 173.454 37.9529 174.432 38.3319 175.344C38.7109 176.256 39.2663 177.084 39.9662 177.781C41.3714 179.178 43.2722 179.962 45.2535 179.962C47.2348 179.962 49.1356 179.178 50.5408 177.781L65.5443 162.777C66.2443 162.08 66.7997 161.252 67.1787 160.34C67.5576 159.428 67.7527 158.45 67.7527 157.462C67.7527 156.474 67.5576 155.496 67.1787 154.584C66.7997 153.672 66.2443 152.844 65.5443 152.147C64.8174 151.429 63.9513 150.867 62.9992 150.495C62.0472 150.124 61.0293 149.951 60.008 149.987Z" fill="url(#paint4_linear_446_12416)"/>
</g>
<defs>
<linearGradient id="paint0_linear_446_12416" x1="180.255" y1="0.0117343" x2="8.97562" y2="140.666" gradientUnits="userSpaceOnUse">
<stop stop-color="#C1CEF5"/>
<stop offset="0.295" stop-color="#6390F5"/>
<stop offset="1" stop-color="#C46DEA"/>
</linearGradient>
<linearGradient id="paint1_linear_446_12416" x1="149.718" y1="31.4492" x2="-11.4795" y2="164.686" gradientUnits="userSpaceOnUse">
<stop stop-color="#C1CEF5"/>
<stop offset="0.295" stop-color="#6390F5"/>
<stop offset="1" stop-color="#C46DEA"/>
</linearGradient>
<linearGradient id="paint2_linear_446_12416" x1="45.4134" y1="134.979" x2="-3.44175" y2="175.394" gradientUnits="userSpaceOnUse">
<stop stop-color="#C1CEF5"/>
<stop offset="0.295" stop-color="#6390F5"/>
<stop offset="1" stop-color="#C46DEA"/>
</linearGradient>
<linearGradient id="paint3_linear_446_12416" x1="30.3642" y1="112.447" x2="-2.25453" y2="139.398" gradientUnits="userSpaceOnUse">
<stop stop-color="#C1CEF5"/>
<stop offset="0.295" stop-color="#6390F5"/>
<stop offset="1" stop-color="#C46DEA"/>
</linearGradient>
<linearGradient id="paint4_linear_446_12416" x1="67.8436" y1="149.982" x2="35.3063" y2="176.887" gradientUnits="userSpaceOnUse">
<stop stop-color="#C1CEF5"/>
<stop offset="0.295" stop-color="#6390F5"/>
<stop offset="1" stop-color="#C46DEA"/>
</linearGradient>
<clipPath id="clip0_446_12416">
<rect width="180" height="180" fill="white"/>
</clipPath>
</defs>
</svg>
