<svg width="180" height="180" viewBox="0 0 180 180" fill="none" xmlns="http://www.w3.org/2000/svg">
<path d="M143.812 64.875C136.812 64.875 130.719 62.6875 125.531 58.3125C120.344 53.9375 117.062 48.4375 115.688 41.8125H64.125C63 47.4375 60.4062 52.2812 56.3438 56.3438C52.2812 60.4062 47.4375 63 41.8125 64.125V115.688C48.4375 117.062 53.9375 120.344 58.3125 125.531C62.6875 130.719 64.875 136.812 64.875 143.812C64.875 151.812 62.0625 158.594 56.4375 164.156C50.8125 169.719 44.0625 172.5 36.1875 172.5C28.1875 172.5 21.4062 169.719 15.8438 164.156C10.2812 158.594 7.5 151.812 7.5 143.812C7.5 136.812 9.6875 130.719 14.0625 125.531C18.4375 120.344 23.9375 117.062 30.5625 115.688V64.125C23.9375 62.75 18.4375 59.5 14.0625 54.375C9.6875 49.25 7.5 43.125 7.5 36C7.5 28.125 10.2812 21.4062 15.8438 15.8438C21.4062 10.2812 28.125 7.5 36 7.5C43.125 7.5 49.25 9.6875 54.375 14.0625C59.5 18.4375 62.75 23.9375 64.125 30.5625H115.688C117.062 23.9375 120.344 18.4375 125.531 14.0625C130.719 9.6875 136.812 7.5 143.812 7.5C151.812 7.5 158.594 10.2812 164.156 15.8438C169.719 21.4062 172.5 28.1875 172.5 36.1875C172.5 44.0625 169.719 50.8125 164.156 56.4375C158.594 62.0625 151.812 64.875 143.812 64.875ZM144 172.5C136 172.5 129.188 169.719 123.562 164.156C117.938 158.594 115.125 151.875 115.125 144C115.125 136 117.938 129.188 123.562 123.562C129.188 117.938 136 115.125 144 115.125C151.875 115.125 158.594 117.938 164.156 123.562C169.719 129.188 172.5 136 172.5 144C172.5 151.875 169.719 158.594 164.156 164.156C158.594 169.719 151.875 172.5 144 172.5Z" fill="url(#paint0_linear_444_12364)"/>
<defs>
<linearGradient id="paint0_linear_444_12364" x1="173" y1="7.50002" x2="-6.06192" y2="155.485" gradientUnits="userSpaceOnUse">
<stop stop-color="#C1CEF5"/>
<stop offset="0.295" stop-color="#6390F5"/>
<stop offset="1" stop-color="#C46DEA"/>
</linearGradient>
</defs>
</svg>
