<svg width="180" height="180" viewBox="0 0 180 180" fill="none" xmlns="http://www.w3.org/2000/svg">
<path d="M33.75 157.5C30.625 157.5 27.9688 156.406 25.7812 154.219C23.5938 152.031 22.5 149.375 22.5 146.25V33.75C22.5 30.625 23.5938 27.9688 25.7812 25.7812C27.9688 23.5938 30.625 22.5 33.75 22.5H72.1875C72.8125 18.125 74.8125 14.5312 78.1875 11.7188C81.5625 8.90625 85.5 7.5 90 7.5C94.5 7.5 98.4375 8.90625 101.812 11.7188C105.188 14.5312 107.188 18.125 107.812 22.5H146.25C149.375 22.5 152.031 23.5938 154.219 25.7812C156.406 27.9688 157.5 30.625 157.5 33.75V146.25C157.5 149.375 156.406 152.031 154.219 154.219C152.031 156.406 149.375 157.5 146.25 157.5H33.75ZM52.5 127.5H103.688V116.25H52.5V127.5ZM52.5 95.625H127.5V84.375H52.5V95.625ZM52.5 63.75H127.5V52.5H52.5V63.75ZM90 30.5625C91.75 30.5625 93.2812 29.9062 94.5938 28.5938C95.9062 27.2812 96.5625 25.75 96.5625 24C96.5625 22.25 95.9062 20.7188 94.5938 19.4062C93.2812 18.0938 91.75 17.4375 90 17.4375C88.25 17.4375 86.7188 18.0938 85.4062 19.4062C84.0938 20.7188 83.4375 22.25 83.4375 24C83.4375 25.75 84.0938 27.2812 85.4062 28.5938C86.7188 29.9062 88.25 30.5625 90 30.5625Z" fill="url(#paint0_linear_444_12362)"/>
<defs>
<linearGradient id="paint0_linear_444_12362" x1="157.909" y1="7.50001" x2="-0.83656" y2="125.575" gradientUnits="userSpaceOnUse">
<stop stop-color="#C1CEF5"/>
<stop offset="0.295" stop-color="#6390F5"/>
<stop offset="1" stop-color="#C46DEA"/>
</linearGradient>
</defs>
</svg>
