<svg width="180" height="180" viewBox="0 0 180 180" fill="none" xmlns="http://www.w3.org/2000/svg">
<path fill-rule="evenodd" clip-rule="evenodd" d="M25.9835 154.016C36.967 165 54.6446 165 90 165C125.355 165 143.033 165 154.016 154.016C165 143.033 165 125.355 165 90C165 54.6446 165 36.967 154.016 25.9835C143.033 15 125.355 15 90 15C54.6446 15 36.967 15 25.9835 25.9835C15 36.967 15 54.6446 15 90C15 125.355 15 143.033 25.9835 154.016ZM139.358 71.0573C141.323 68.6508 140.964 65.1074 138.558 63.1427C136.151 61.1782 132.608 61.5365 130.643 63.943L91.8858 111.419C90.2891 110.852 88.4546 111.011 86.9261 112.009C84.3243 113.707 83.5923 117.192 85.2903 119.793L87.4316 123.074C88.4126 124.577 90.0513 125.522 91.8431 125.618C93.6348 125.713 95.3651 124.948 96.4998 123.557L139.358 71.0573ZM108.557 63.1427C110.964 65.1073 111.322 68.6507 109.357 71.0573L66.5005 123.557C65.4322 124.866 63.8323 125.625 62.143 125.625C60.4537 125.625 58.8538 124.866 57.7855 123.557L40.6427 102.557C38.6782 100.15 39.0365 96.6075 41.443 94.6425C43.8496 92.6782 47.3931 93.0367 49.3576 95.4427L62.143 111.105L100.642 63.943C102.607 61.5365 106.15 61.1782 108.557 63.1427Z" fill="url(#paint0_linear_445_12394)"/>
<defs>
<linearGradient id="paint0_linear_445_12394" x1="165.455" y1="15" x2="2.67098" y2="149.532" gradientUnits="userSpaceOnUse">
<stop stop-color="#C1CEF5"/>
<stop offset="0.295" stop-color="#6390F5"/>
<stop offset="1" stop-color="#C46DEA"/>
</linearGradient>
</defs>
</svg>
