<svg width="448" height="157" viewBox="0 0 448 157" fill="none" xmlns="http://www.w3.org/2000/svg">
<path d="M97.135 6.05572C97.135 2.46715 99.6013 0 103.189 0C107 0 109.242 2.46715 109.242 6.05572C109.242 9.86858 106.776 12.1114 103.189 12.1114C99.3771 12.1114 97.135 9.64429 97.135 6.05572ZM109.242 6.05572C109.242 2.46715 111.709 0 115.296 0C119.108 0 121.35 2.46715 121.35 6.05572C121.35 9.86858 118.883 12.1114 115.296 12.1114C111.485 12.1114 109.242 9.64429 109.242 6.05572ZM109.242 18.1671C109.242 14.3543 111.709 12.1114 115.296 12.1114C119.108 12.1114 121.35 14.5786 121.35 18.1671C121.35 21.7557 118.883 24.2229 115.296 24.2229C111.485 24.2229 109.242 21.7557 109.242 18.1671ZM97.135 18.1671C97.135 21.7557 94.6687 24.2229 91.0813 24.2229C87.2697 24.2229 85.0276 21.7557 85.0276 18.1671C85.0276 14.3543 87.4939 12.1114 91.0813 12.1114C94.8929 12.1114 97.135 14.5786 97.135 18.1671ZM97.135 18.1671C97.135 14.3543 99.6013 12.1114 103.189 12.1114C107 12.1114 109.242 14.5786 109.242 18.1671C109.242 21.7557 106.776 24.2229 103.189 24.2229C99.3771 24.2229 97.135 21.7557 97.135 18.1671ZM109.242 30.2786C109.242 33.8671 106.776 36.3343 103.189 36.3343C99.3771 36.3343 97.135 33.8671 97.135 30.2786C97.135 26.4657 99.6013 24.2229 103.189 24.2229C107 24.2229 109.242 26.69 109.242 30.2786ZM85.0276 30.2786C85.0276 26.4657 87.4939 24.2229 91.0813 24.2229C94.8929 24.2229 97.135 26.69 97.135 30.2786C97.135 33.8671 94.6687 36.3343 91.0813 36.3343C87.2697 36.3343 85.0276 33.8671 85.0276 30.2786ZM121.35 30.2786C121.35 33.8671 118.883 36.3343 115.296 36.3343C111.485 36.3343 109.242 33.8671 109.242 30.2786C109.242 26.4657 111.709 24.2229 115.296 24.2229C119.108 24.2229 121.35 26.69 121.35 30.2786ZM72.9202 30.2786C72.9202 26.4657 75.3865 24.2229 78.9739 24.2229C82.7855 24.2229 85.0276 26.69 85.0276 30.2786C85.0276 33.8671 82.5613 36.3343 78.9739 36.3343C75.1623 36.3343 72.9202 33.8671 72.9202 30.2786ZM85.0276 42.39C85.0276 45.9786 82.5613 48.4457 78.9739 48.4457C75.1623 48.4457 72.9202 45.9786 72.9202 42.39C72.9202 38.5772 75.3865 36.3343 78.9739 36.3343C82.7855 36.3343 85.0276 38.8014 85.0276 42.39ZM72.9202 42.1657V42.39C72.9202 45.9786 70.6781 48.2214 67.0907 48.2214C63.2791 48.2214 60.8128 45.9786 60.8128 42.39C60.8128 38.8014 63.0549 36.3343 66.6423 36.3343C70.4539 36.3343 72.9202 38.5772 72.9202 42.1657ZM121.35 42.1657V42.39C121.35 45.9786 119.108 48.2214 115.52 48.2214C111.709 48.2214 109.242 45.9786 109.242 42.39C109.242 38.8014 111.485 36.3343 115.072 36.3343C118.883 36.3343 121.35 38.5772 121.35 42.1657ZM109.242 42.1657V42.39C109.242 45.9786 107 48.2214 103.413 48.2214C99.6013 48.2214 97.135 45.9786 97.135 42.39C97.135 38.8014 99.3771 36.3343 102.965 36.3343C106.776 36.3343 109.242 38.5772 109.242 42.1657ZM97.135 42.39C97.135 45.9786 94.6687 48.4457 91.0813 48.4457C87.2697 48.4457 85.0276 45.9786 85.0276 42.39C85.0276 38.5772 87.4939 36.3343 91.0813 36.3343C94.8929 36.3343 97.135 38.8014 97.135 42.39ZM60.8128 54.2771C60.8128 50.4643 63.2791 48.2214 66.8665 48.2214C70.6781 48.2214 72.9202 50.6886 72.9202 54.2771C72.9202 57.8657 70.4539 60.3329 66.8665 60.3329C63.0549 60.3329 60.8128 57.8657 60.8128 54.2771ZM109.242 54.2771C109.242 50.4643 111.709 48.2214 115.296 48.2214C119.108 48.2214 121.35 50.6886 121.35 54.2771C121.35 57.8657 118.883 60.3329 115.296 60.3329C111.485 60.3329 109.242 57.8657 109.242 54.2771ZM48.7054 54.2771C48.7054 50.4643 51.1717 48.2214 54.7591 48.2214C58.5707 48.2214 60.8128 50.6886 60.8128 54.2771C60.8128 57.8657 58.3465 60.3329 54.7591 60.3329C50.9475 60.3329 48.7054 57.8657 48.7054 54.2771ZM97.135 54.2771C97.135 50.4643 99.6013 48.2214 103.189 48.2214C107 48.2214 109.242 50.6886 109.242 54.2771C109.242 57.8657 106.776 60.3329 103.189 60.3329C99.3771 60.3329 97.135 57.8657 97.135 54.2771ZM85.0276 54.5014C85.0276 58.09 82.5613 60.5571 78.9739 60.5571C75.1623 60.5571 72.9202 58.09 72.9202 54.5014C72.9202 50.6886 75.3865 48.4457 78.9739 48.4457C82.7855 48.4457 85.0276 50.9129 85.0276 54.5014ZM60.8128 66.3886C60.8128 69.9771 58.3465 72.4443 54.7591 72.4443C50.9475 72.4443 48.7054 69.9771 48.7054 66.3886C48.7054 62.5757 51.1717 60.3329 54.7591 60.3329C58.5707 60.3329 60.8128 62.8 60.8128 66.3886ZM48.7054 66.1643V66.6129C48.7054 70.2014 46.4633 72.4443 42.8759 72.4443C39.2885 72.4443 36.8222 70.2014 36.8222 66.6129C36.8222 62.8 39.0643 60.3329 42.6517 60.3329C46.2391 60.3329 48.7054 62.5757 48.7054 66.1643ZM109.242 66.3886C109.242 62.5757 111.709 60.3329 115.296 60.3329C119.108 60.3329 121.35 62.8 121.35 66.3886C121.35 69.9771 118.883 72.4443 115.296 72.4443C111.485 72.4443 109.242 69.9771 109.242 66.3886ZM72.9202 66.3886C72.9202 69.9771 70.4539 72.4443 66.8665 72.4443C63.0549 72.4443 60.8128 69.9771 60.8128 66.3886C60.8128 62.5757 63.2791 60.3329 66.8665 60.3329C70.6781 60.3329 72.9202 62.8 72.9202 66.3886ZM97.135 66.3886C97.135 62.5757 99.6013 60.3329 103.189 60.3329C107 60.3329 109.242 62.8 109.242 66.3886C109.242 69.9771 106.776 72.4443 103.189 72.4443C99.3771 72.4443 97.135 69.9771 97.135 66.3886ZM48.7054 78.2757V78.7243C48.7054 82.3129 46.4633 84.5557 42.8759 84.5557C39.2885 84.5557 36.8222 82.3129 36.8222 78.7243C36.8222 74.9114 39.0643 72.4443 42.6517 72.4443C46.2391 72.4443 48.7054 74.6871 48.7054 78.2757ZM109.242 78.5C109.242 82.0886 106.776 84.5557 103.189 84.5557C99.3771 84.5557 97.135 82.0886 97.135 78.5C97.135 74.6871 99.6013 72.4443 103.189 72.4443C107 72.4443 109.242 74.9114 109.242 78.5ZM60.8128 78.5C60.8128 82.0886 58.3465 84.5557 54.7591 84.5557C50.9475 84.5557 48.7054 82.0886 48.7054 78.5C48.7054 74.6871 51.1717 72.4443 54.7591 72.4443C58.5707 72.4443 60.8128 74.9114 60.8128 78.5ZM36.8222 78.5C36.8222 82.0886 34.3559 84.5557 30.7685 84.5557C26.9569 84.5557 24.7148 82.0886 24.7148 78.5C24.7148 74.6871 27.1811 72.4443 30.7685 72.4443C34.5801 72.4443 36.8222 74.9114 36.8222 78.5ZM121.35 78.5C121.35 82.0886 118.883 84.5557 115.296 84.5557C111.485 84.5557 109.242 82.0886 109.242 78.5C109.242 74.6871 111.709 72.4443 115.296 72.4443C119.108 72.4443 121.35 74.9114 121.35 78.5ZM109.242 90.6114C109.242 94.2 106.776 96.6671 103.189 96.6671C99.3771 96.6671 97.135 94.2 97.135 90.6114C97.135 86.7986 99.6013 84.5557 103.189 84.5557C107 84.5557 109.242 87.0229 109.242 90.6114ZM48.7054 90.3871V91.06C48.7054 94.6486 46.4633 96.8914 42.8759 96.8914C39.2885 96.8914 36.8222 94.6486 36.8222 91.06C36.8222 87.0229 39.0643 84.5557 42.6517 84.5557C46.2391 84.5557 48.7054 86.7986 48.7054 90.3871ZM24.7148 90.6114C24.7148 94.2 22.2485 96.6671 18.6611 96.6671C14.8495 96.6671 12.6074 94.2 12.6074 90.6114C12.6074 86.7986 15.0737 84.5557 18.6611 84.5557C22.4727 84.5557 24.7148 87.0229 24.7148 90.6114ZM121.35 90.6114V90.8357C121.35 94.4243 118.883 96.8914 115.296 96.8914C111.485 96.8914 109.242 94.4243 109.242 90.8357C109.242 86.7986 111.709 84.5557 115.296 84.5557C119.108 84.5557 121.35 87.0229 121.35 90.6114ZM36.8222 90.6114C36.8222 94.2 34.3559 96.6671 30.7685 96.6671C26.9569 96.6671 24.7148 94.2 24.7148 90.6114C24.7148 86.7986 27.1811 84.5557 30.7685 84.5557C34.5801 84.5557 36.8222 87.0229 36.8222 90.6114ZM12.6074 102.723C12.6074 106.311 10.1411 108.779 6.5537 108.779C2.74211 108.779 0.5 106.311 0.5 102.723C0.5 98.91 2.96632 96.6671 6.5537 96.6671C10.3653 96.6671 12.6074 99.1343 12.6074 102.723ZM24.7148 102.723C24.7148 106.311 22.2485 108.779 18.6611 108.779C14.8495 108.779 12.6074 106.311 12.6074 102.723C12.6074 98.91 15.0737 96.6671 18.6611 96.6671C22.4727 96.6671 24.7148 99.1343 24.7148 102.723ZM36.8222 102.723C36.8222 106.311 34.3559 108.779 30.7685 108.779C26.9569 108.779 24.7148 106.311 24.7148 102.723C24.7148 98.91 27.1811 96.6671 30.7685 96.6671C34.5801 96.6671 36.8222 99.1343 36.8222 102.723ZM109.242 102.723C109.242 106.311 106.776 108.779 103.189 108.779C99.3771 108.779 97.135 106.311 97.135 102.723C97.135 98.91 99.6013 96.6671 103.189 96.6671C107 96.6671 109.242 99.1343 109.242 102.723ZM48.7054 102.723V102.947C48.7054 106.536 46.4633 108.779 42.8759 108.779C39.0643 108.779 36.8222 106.536 36.8222 102.947C36.8222 99.3586 39.0643 96.8914 42.6517 96.8914C46.2391 96.8914 48.7054 99.1343 48.7054 102.723ZM60.8128 102.723V102.947C60.8128 106.536 58.5707 108.779 54.9833 108.779C51.1717 108.779 48.7054 106.536 48.7054 102.947C48.7054 99.3586 50.9475 96.8914 54.5349 96.8914C58.3465 96.8914 60.8128 99.1343 60.8128 102.723ZM72.9202 102.723V102.947C72.9202 106.536 70.6781 108.779 67.0907 108.779C63.2791 108.779 60.8128 106.536 60.8128 102.947C60.8128 99.3586 63.0549 96.8914 66.6423 96.8914C70.4539 96.8914 72.9202 99.1343 72.9202 102.723ZM85.0276 102.723V102.947C85.0276 106.536 82.7855 108.779 79.1981 108.779C75.3865 108.779 72.9202 106.536 72.9202 102.947C72.9202 99.3586 75.1623 96.8914 78.7497 96.8914C82.5613 96.8914 85.0276 99.1343 85.0276 102.723ZM97.135 102.723V102.947C97.135 106.536 94.8929 108.779 91.3055 108.779C87.4939 108.779 85.0276 106.536 85.0276 102.947C85.0276 99.3586 87.2697 96.8914 90.8571 96.8914C94.6687 96.8914 97.135 99.1343 97.135 102.723ZM121.126 102.723C121.126 99.1343 123.368 96.8914 126.955 96.8914C130.767 96.8914 133.233 99.1343 133.233 102.723C133.233 106.311 130.991 108.779 127.404 108.779C123.592 108.779 121.126 106.536 121.126 102.947C121.126 106.536 118.883 108.779 115.296 108.779C111.485 108.779 109.242 106.536 109.242 102.947C109.242 99.3586 111.485 96.8914 115.072 96.8914C118.659 96.8914 121.126 99.1343 121.126 102.723ZM133.233 102.947V102.723C133.233 99.1343 135.475 96.8914 139.062 96.8914C142.874 96.8914 145.34 99.1343 145.34 102.723C145.34 106.311 143.098 108.779 139.511 108.779C135.699 108.779 133.233 106.536 133.233 102.947ZM121.126 114.61C121.126 111.021 123.368 108.779 126.955 108.779C130.767 108.779 133.233 111.021 133.233 114.61C133.233 118.199 130.991 120.666 127.404 120.666C123.592 120.666 121.126 118.423 121.126 114.834C121.126 118.423 118.883 120.666 115.296 120.666C111.485 120.666 109.242 118.423 109.242 114.834C109.242 111.246 111.485 108.779 115.072 108.779C118.659 108.779 121.126 111.021 121.126 114.61ZM109.242 114.61V114.834C109.242 118.423 107 120.666 103.413 120.666C99.6013 120.666 97.135 118.423 97.135 114.834C97.135 111.246 99.3771 108.779 102.965 108.779C106.776 108.779 109.242 111.021 109.242 114.61ZM97.135 114.61V114.834C97.135 118.423 94.8929 120.666 91.3055 120.666C87.4939 120.666 85.0276 118.423 85.0276 114.834C85.0276 111.246 87.2697 108.779 90.8571 108.779C94.6687 108.779 97.135 111.021 97.135 114.61ZM85.0276 114.61V114.834C85.0276 118.423 82.7855 120.666 79.1981 120.666C75.3865 120.666 72.9202 118.423 72.9202 114.834C72.9202 111.246 75.1623 108.779 78.7497 108.779C82.5613 108.779 85.0276 111.021 85.0276 114.61ZM72.9202 114.61V114.834C72.9202 118.423 70.6781 120.666 67.0907 120.666C63.2791 120.666 60.8128 118.423 60.8128 114.834C60.8128 111.246 63.0549 108.779 66.6423 108.779C70.4539 108.779 72.9202 111.021 72.9202 114.61ZM60.8128 114.61V114.834C60.8128 118.423 58.5707 120.666 54.9833 120.666C51.1717 120.666 48.7054 118.423 48.7054 114.834C48.7054 111.246 50.9475 108.779 54.5349 108.779C58.3465 108.779 60.8128 111.021 60.8128 114.61ZM48.7054 114.61V114.834C48.7054 118.423 46.4633 120.666 42.8759 120.666C39.0643 120.666 36.8222 118.423 36.8222 114.834C36.8222 111.246 39.0643 108.779 42.6517 108.779C46.2391 108.779 48.7054 111.021 48.7054 114.61ZM36.8222 114.61V114.834C36.8222 118.423 34.5801 120.666 30.9927 120.666C27.1811 120.666 24.7148 118.423 24.7148 114.834C24.7148 111.246 26.9569 108.779 30.5443 108.779C34.3559 108.779 36.8222 111.021 36.8222 114.61ZM24.7148 114.61V114.834C24.7148 118.423 22.4727 120.666 18.8853 120.666C15.0737 120.666 12.6074 118.423 12.6074 114.834C12.6074 111.246 14.8495 108.779 18.4369 108.779C22.2485 108.779 24.7148 111.021 24.7148 114.61ZM12.6074 114.61V114.834C12.6074 118.423 10.3653 120.666 6.77791 120.666C2.96632 120.666 0.5 118.423 0.5 114.834C0.5 111.246 2.74211 108.779 6.32949 108.779C10.1411 108.779 12.6074 111.021 12.6074 114.61ZM133.233 114.834V114.61C133.233 111.021 135.475 108.779 139.062 108.779C142.874 108.779 145.34 111.021 145.34 114.61C145.34 118.199 143.098 120.666 139.511 120.666C135.699 120.666 133.233 118.423 133.233 114.834ZM109.242 126.721C109.242 130.31 106.776 132.777 103.189 132.777C99.3771 132.777 97.135 130.31 97.135 126.721C97.135 122.909 99.6013 120.666 103.189 120.666C107 120.666 109.242 123.133 109.242 126.721ZM121.35 126.721C121.35 130.31 118.883 132.777 115.296 132.777C111.485 132.777 109.242 130.31 109.242 126.721C109.242 122.909 111.709 120.666 115.296 120.666C119.108 120.666 121.35 123.133 121.35 126.721ZM109.242 138.833C109.242 142.421 106.776 144.889 103.189 144.889C99.3771 144.889 97.135 142.421 97.135 138.833C97.135 135.02 99.6013 132.777 103.189 132.777C107 132.777 109.242 135.244 109.242 138.833ZM121.35 138.833C121.35 142.421 118.883 144.889 115.296 144.889C111.485 144.889 109.242 142.421 109.242 138.833C109.242 135.02 111.709 132.777 115.296 132.777C119.108 132.777 121.35 135.244 121.35 138.833ZM97.135 150.944C97.135 147.356 99.6013 144.889 103.189 144.889C107 144.889 109.242 147.356 109.242 150.944C109.242 154.757 106.776 157 103.189 157C99.3771 157 97.135 154.533 97.135 150.944ZM109.242 150.944C109.242 147.356 111.709 144.889 115.296 144.889C119.108 144.889 121.35 147.356 121.35 150.944C121.35 154.757 118.883 157 115.296 157C111.485 157 109.242 154.533 109.242 150.944Z" fill="white"/>
<path d="M254.127 6.05572C254.127 2.46715 256.369 0 260.18 0C263.768 0 266.234 2.24285 266.234 6.05572C266.234 9.64429 263.992 12.1114 260.18 12.1114C256.593 12.1114 254.127 9.64429 254.127 6.05572ZM193.814 6.05572C193.814 2.46715 196.056 0 199.868 0C203.455 0 205.921 2.24285 205.921 6.05572C205.921 9.64429 203.679 12.1114 199.868 12.1114C196.28 12.1114 193.814 9.64429 193.814 6.05572ZM205.921 6.28V5.83143C205.921 2.24285 208.388 0 211.975 0C215.562 0 217.804 2.46715 217.804 6.28C217.804 9.86858 215.338 12.1114 211.751 12.1114C208.163 12.1114 205.921 9.86858 205.921 6.28ZM217.804 6.05572C217.804 2.46715 220.047 0 223.858 0C227.445 0 229.912 2.24285 229.912 6.05572C229.912 9.64429 227.67 12.1114 223.858 12.1114C220.271 12.1114 217.804 9.64429 217.804 6.05572ZM187.76 12.1114C184.173 12.1114 181.706 9.86858 181.706 6.05572C181.706 2.46715 183.949 0 187.76 0C191.347 0 193.814 2.24285 193.814 6.05572C193.814 9.64429 191.347 12.1114 187.76 12.1114ZM229.912 6.05572C229.912 2.46715 232.154 0 235.965 0C239.553 0 242.019 2.24285 242.019 6.05572C242.019 9.64429 239.777 12.1114 235.965 12.1114C232.378 12.1114 229.912 9.64429 229.912 6.05572ZM242.019 6.05572C242.019 2.46715 244.261 0 248.073 0C251.66 0 254.127 2.24285 254.127 6.05572C254.127 9.64429 251.885 12.1114 248.073 12.1114C244.486 12.1114 242.019 9.64429 242.019 6.05572ZM242.019 18.1671C242.019 14.5786 244.261 12.1114 248.073 12.1114C251.66 12.1114 254.127 14.3543 254.127 18.1671C254.127 21.7557 251.885 24.2229 248.073 24.2229C244.486 24.2229 242.019 21.7557 242.019 18.1671ZM229.912 18.1671C229.912 14.5786 232.154 12.1114 235.965 12.1114C239.553 12.1114 242.019 14.3543 242.019 18.1671C242.019 21.7557 239.777 24.2229 235.965 24.2229C232.378 24.2229 229.912 21.7557 229.912 18.1671ZM217.804 18.1671C217.804 14.5786 220.047 12.1114 223.858 12.1114C227.445 12.1114 229.912 14.3543 229.912 18.1671C229.912 21.7557 227.67 24.2229 223.858 24.2229C220.271 24.2229 217.804 21.7557 217.804 18.1671ZM205.921 18.3914V17.9429C205.921 14.3543 208.388 12.1114 211.975 12.1114C215.562 12.1114 217.804 14.5786 217.804 18.3914C217.804 21.98 215.338 24.2229 211.751 24.2229C208.163 24.2229 205.921 21.98 205.921 18.3914ZM193.814 18.1671C193.814 14.5786 196.056 12.1114 199.868 12.1114C203.455 12.1114 205.921 14.3543 205.921 18.1671C205.921 21.7557 203.679 24.2229 199.868 24.2229C196.28 24.2229 193.814 21.7557 193.814 18.1671ZM193.814 18.1671C193.814 21.7557 191.572 24.2229 187.76 24.2229C184.173 24.2229 181.706 21.98 181.706 18.1671C181.706 14.5786 183.949 12.1114 187.76 12.1114C191.347 12.1114 193.814 14.5786 193.814 18.1671ZM266.234 18.1671C266.234 14.5786 268.476 12.1114 272.288 12.1114C275.875 12.1114 278.341 14.5786 278.341 18.1671C278.341 21.7557 276.099 24.2229 272.288 24.2229C268.7 24.2229 266.234 21.98 266.234 18.1671ZM175.653 12.1114C179.24 12.1114 181.706 14.3543 181.706 18.1671C181.706 21.7557 179.464 24.2229 175.653 24.2229C172.065 24.2229 169.599 21.98 169.599 18.1671C169.599 14.5786 172.065 12.1114 175.653 12.1114ZM254.127 18.1671C254.127 14.5786 256.369 12.1114 260.18 12.1114C263.768 12.1114 266.234 14.5786 266.234 18.1671C266.234 21.7557 263.992 24.2229 260.18 24.2229C256.593 24.2229 254.127 21.98 254.127 18.1671ZM278.341 30.2786C278.341 26.69 280.584 24.2229 284.395 24.2229C287.983 24.2229 290.449 26.4657 290.449 30.2786C290.449 33.8671 288.207 36.3343 284.395 36.3343C280.808 36.3343 278.341 33.8671 278.341 30.2786ZM169.599 30.2786C169.599 26.69 171.841 24.2229 175.653 24.2229C179.24 24.2229 181.706 26.4657 181.706 30.2786C181.706 33.8671 179.464 36.3343 175.653 36.3343C172.065 36.3343 169.599 33.8671 169.599 30.2786ZM193.814 30.2786C193.814 33.8671 191.572 36.3343 187.76 36.3343C184.173 36.3343 181.706 34.0914 181.706 30.2786C181.706 26.69 183.949 24.2229 187.76 24.2229C191.347 24.2229 193.814 26.69 193.814 30.2786ZM266.234 30.2786C266.234 33.8671 263.992 36.3343 260.18 36.3343C256.593 36.3343 254.127 34.0914 254.127 30.2786C254.127 26.69 256.369 24.2229 260.18 24.2229C263.768 24.2229 266.234 26.69 266.234 30.2786ZM163.545 36.3343C159.958 36.3343 157.492 34.0914 157.492 30.2786C157.492 26.69 159.734 24.2229 163.545 24.2229C167.133 24.2229 169.599 26.4657 169.599 30.2786C169.599 33.8671 167.133 36.3343 163.545 36.3343ZM266.234 30.2786C266.234 26.69 268.476 24.2229 272.288 24.2229C275.875 24.2229 278.341 26.4657 278.341 30.2786C278.341 33.8671 276.099 36.3343 272.288 36.3343C268.7 36.3343 266.234 33.8671 266.234 30.2786ZM266.234 42.39V42.1657C266.234 38.5772 268.7 36.3343 272.512 36.3343C276.099 36.3343 278.341 38.8014 278.341 42.39C278.341 45.9786 275.875 48.2214 272.064 48.2214C268.476 48.2214 266.234 45.9786 266.234 42.39ZM169.599 42.39C169.599 45.9786 167.357 48.2214 163.77 48.2214H163.321C159.734 48.2214 157.492 45.7543 157.492 42.1657C157.492 38.5772 159.958 36.3343 163.77 36.3343C167.357 36.3343 169.599 38.8014 169.599 42.39ZM169.599 42.39V42.1657C169.599 38.5772 172.065 36.3343 175.877 36.3343C179.464 36.3343 181.706 38.8014 181.706 42.39C181.706 45.9786 179.24 48.2214 175.428 48.2214C171.841 48.2214 169.599 45.9786 169.599 42.39ZM278.341 42.39V42.1657C278.341 38.5772 280.808 36.3343 284.619 36.3343C288.207 36.3343 290.449 38.8014 290.449 42.39C290.449 45.9786 287.982 48.2214 284.171 48.2214C280.584 48.2214 278.341 45.9786 278.341 42.39ZM266.234 42.39C266.234 45.9786 263.992 48.4457 260.18 48.4457C256.593 48.4457 254.127 46.2029 254.127 42.39C254.127 38.8014 256.369 36.3343 260.18 36.3343C263.768 36.3343 266.234 38.8014 266.234 42.39ZM254.127 54.2771C254.127 57.8657 251.885 60.3329 248.073 60.3329C244.486 60.3329 242.019 58.09 242.019 54.2771C242.019 51.1371 243.813 48.8943 246.728 48.2214C243.813 47.7729 242.019 45.7543 242.019 42.39C242.019 38.8014 244.261 36.3343 248.073 36.3343C251.66 36.3343 254.127 38.8014 254.127 42.39C254.127 45.53 252.333 47.7729 249.418 48.4457C252.333 48.8943 254.127 51.1371 254.127 54.2771ZM266.234 54.2771C266.234 50.6886 268.476 48.2214 272.288 48.2214C275.875 48.2214 278.341 50.4643 278.341 54.2771C278.341 57.8657 276.099 60.3329 272.288 60.3329C268.7 60.3329 266.234 57.8657 266.234 54.2771ZM169.599 54.2771C169.599 57.8657 167.133 60.3329 163.545 60.3329C159.958 60.3329 157.492 58.09 157.492 54.2771C157.492 50.6886 159.734 48.2214 163.545 48.2214C167.133 48.2214 169.599 50.4643 169.599 54.2771ZM278.341 54.2771C278.341 50.6886 280.584 48.2214 284.395 48.2214C287.983 48.2214 290.449 50.4643 290.449 54.2771C290.449 57.8657 288.207 60.3329 284.395 60.3329C280.808 60.3329 278.341 57.8657 278.341 54.2771ZM169.599 54.2771C169.599 50.6886 171.841 48.2214 175.653 48.2214C179.24 48.2214 181.706 50.4643 181.706 54.2771C181.706 57.8657 179.464 60.3329 175.653 60.3329C172.065 60.3329 169.599 57.8657 169.599 54.2771ZM242.019 66.3886C242.019 69.9771 239.777 72.4443 235.965 72.4443C232.378 72.4443 229.912 70.2014 229.912 66.3886C229.912 63.2486 231.706 61.0057 234.62 60.3329C231.706 59.8843 229.912 57.8657 229.912 54.5014C229.912 50.9129 232.154 48.4457 235.965 48.4457C239.553 48.4457 242.019 50.9129 242.019 54.5014C242.019 57.6414 240.226 59.8843 237.311 60.5571C240.226 61.0057 242.019 63.2486 242.019 66.3886ZM266.234 54.2771V54.5014C266.234 58.09 263.768 60.3329 259.956 60.3329C256.369 60.3329 254.127 57.8657 254.127 54.2771C254.127 50.6886 256.593 48.4457 260.405 48.4457C263.992 48.4457 266.234 50.6886 266.234 54.2771ZM278.341 66.3886C278.341 62.8 280.584 60.3329 284.395 60.3329C287.983 60.3329 290.449 62.5757 290.449 66.3886C290.449 69.9771 288.207 72.4443 284.395 72.4443C280.808 72.4443 278.341 69.9771 278.341 66.3886ZM169.599 66.3886C169.599 62.8 171.841 60.3329 175.653 60.3329C179.24 60.3329 181.706 62.5757 181.706 66.3886C181.706 69.9771 179.464 72.4443 175.653 72.4443C172.065 72.4443 169.599 69.9771 169.599 66.3886ZM254.127 66.3886C254.127 69.9771 251.885 72.4443 248.073 72.4443C244.486 72.4443 242.019 70.2014 242.019 66.3886C242.019 62.8 244.261 60.3329 248.073 60.3329C251.66 60.3329 254.127 62.8 254.127 66.3886ZM163.545 60.3329C167.133 60.3329 169.599 62.5757 169.599 66.3886C169.599 69.9771 167.133 72.4443 163.545 72.4443C159.958 72.4443 157.492 70.2014 157.492 66.3886C157.492 62.8 159.734 60.3329 163.545 60.3329ZM266.234 66.3886C266.234 62.8 268.476 60.3329 272.288 60.3329C275.875 60.3329 278.341 62.5757 278.341 66.3886C278.341 69.9771 276.099 72.4443 272.288 72.4443C268.7 72.4443 266.234 69.9771 266.234 66.3886ZM229.912 78.5C229.912 82.0886 227.67 84.5557 223.858 84.5557C220.271 84.5557 217.804 82.3129 217.804 78.5C217.804 75.36 219.598 73.1171 222.513 72.4443C219.598 71.9957 217.804 69.9771 217.804 66.6129C217.804 63.0243 220.047 60.5571 223.858 60.5571C227.445 60.5571 229.912 63.0243 229.912 66.6129C229.912 69.7529 228.118 71.9957 225.203 72.6686C228.118 73.1171 229.912 75.36 229.912 78.5ZM169.599 78.5C169.599 74.9114 171.841 72.4443 175.653 72.4443C179.24 72.4443 181.706 74.6871 181.706 78.5C181.706 82.0886 179.464 84.5557 175.653 84.5557C172.065 84.5557 169.599 82.0886 169.599 78.5ZM242.019 78.5C242.019 82.0886 239.777 84.5557 235.965 84.5557C232.378 84.5557 229.912 82.3129 229.912 78.5C229.912 74.9114 232.154 72.4443 235.965 72.4443C239.553 72.4443 242.019 74.9114 242.019 78.5ZM266.234 78.5C266.234 74.9114 268.476 72.4443 272.288 72.4443C275.875 72.4443 278.341 74.6871 278.341 78.5C278.341 82.0886 276.099 84.5557 272.288 84.5557C268.7 84.5557 266.234 82.0886 266.234 78.5ZM278.341 78.5C278.341 74.9114 280.584 72.4443 284.395 72.4443C287.983 72.4443 290.449 74.6871 290.449 78.5C290.449 82.0886 288.207 84.5557 284.395 84.5557C280.808 84.5557 278.341 82.0886 278.341 78.5ZM163.545 72.4443C167.133 72.4443 169.599 74.6871 169.599 78.5C169.599 82.0886 167.133 84.5557 163.545 84.5557C159.958 84.5557 157.492 82.3129 157.492 78.5C157.492 74.9114 159.734 72.4443 163.545 72.4443ZM217.804 90.3871V90.8357C217.804 94.4243 215.338 96.6671 211.751 96.6671C208.163 96.6671 205.921 94.2 205.921 90.3871C205.921 87.2471 207.715 85.2286 210.63 84.78C207.715 84.1071 205.921 81.8643 205.921 78.5C205.921 74.9114 208.388 72.6686 211.975 72.6686C215.562 72.6686 217.804 74.9114 217.804 78.5V78.9486C217.804 82.0886 216.011 84.1071 213.096 84.5557C216.011 85.0043 217.804 87.2471 217.804 90.3871ZM169.599 90.6114C169.599 87.0229 171.841 84.5557 175.653 84.5557C179.24 84.5557 181.706 86.7986 181.706 90.6114C181.706 94.2 179.464 96.6671 175.653 96.6671C172.065 96.6671 169.599 94.2 169.599 90.6114ZM229.912 90.6114C229.912 94.2 227.67 96.6671 223.858 96.6671C220.271 96.6671 217.804 94.4243 217.804 90.6114C217.804 87.0229 220.047 84.5557 223.858 84.5557C227.445 84.5557 229.912 87.0229 229.912 90.6114ZM266.234 90.6114C266.234 87.0229 268.476 84.5557 272.288 84.5557C275.875 84.5557 278.341 86.7986 278.341 90.6114C278.341 94.2 276.099 96.6671 272.288 96.6671C268.7 96.6671 266.234 94.2 266.234 90.6114ZM278.341 90.6114C278.341 87.0229 280.584 84.5557 284.395 84.5557C287.983 84.5557 290.449 86.7986 290.449 90.6114C290.449 94.2 288.207 96.6671 284.395 96.6671C280.808 96.6671 278.341 94.2 278.341 90.6114ZM163.545 84.5557C167.133 84.5557 169.599 86.7986 169.599 90.6114C169.599 94.2 167.133 96.6671 163.545 96.6671C159.958 96.6671 157.492 94.4243 157.492 90.6114C157.492 87.0229 159.734 84.5557 163.545 84.5557ZM205.921 102.723C205.921 106.311 203.679 108.779 199.868 108.779C196.28 108.779 193.814 106.536 193.814 102.723C193.814 99.5829 195.607 97.34 198.522 96.6671C195.607 96.2186 193.814 94.2 193.814 90.8357C193.814 87.2471 196.056 84.78 199.868 84.78C203.455 84.78 205.921 87.2471 205.921 90.8357C205.921 93.9757 204.128 96.2186 201.213 96.8914C204.128 97.34 205.921 99.5829 205.921 102.723ZM169.599 102.723C169.599 106.311 167.133 108.779 163.545 108.779C159.958 108.779 157.492 106.536 157.492 102.723C157.492 99.1343 159.734 96.6671 163.545 96.6671C167.133 96.6671 169.599 98.91 169.599 102.723ZM266.234 102.723C266.234 99.1343 268.476 96.6671 272.288 96.6671C275.875 96.6671 278.341 98.91 278.341 102.723C278.341 106.311 276.099 108.779 272.288 108.779C268.7 108.779 266.234 106.311 266.234 102.723ZM169.599 102.723C169.599 99.1343 171.841 96.6671 175.653 96.6671C179.24 96.6671 181.706 98.91 181.706 102.723C181.706 106.311 179.464 108.779 175.653 108.779C172.065 108.779 169.599 106.311 169.599 102.723ZM278.341 102.723C278.341 99.1343 280.584 96.6671 284.395 96.6671C287.983 96.6671 290.449 98.91 290.449 102.723C290.449 106.311 288.207 108.779 284.395 108.779C280.808 108.779 278.341 106.311 278.341 102.723ZM217.804 102.499V102.947C217.804 106.536 215.338 108.779 211.751 108.779C208.163 108.779 205.921 106.311 205.921 102.499C205.921 98.91 208.388 96.6671 211.975 96.6671C215.562 96.6671 217.804 98.91 217.804 102.499ZM193.814 102.723V102.947C193.814 106.536 191.347 108.779 187.536 108.779C183.949 108.779 181.706 106.311 181.706 102.723C181.706 99.1343 184.173 96.8914 187.984 96.8914C191.572 96.8914 193.814 99.1343 193.814 102.723ZM193.814 114.834C193.814 118.423 191.572 120.89 187.76 120.89C184.173 120.89 181.706 118.647 181.706 114.834C181.706 111.246 183.949 108.779 187.76 108.779C191.347 108.779 193.814 111.246 193.814 114.834ZM169.599 114.834C169.599 118.423 167.357 120.666 163.77 120.666H163.321C159.734 120.666 157.492 118.199 157.492 114.61C157.492 111.021 159.958 108.779 163.77 108.779C167.357 108.779 169.599 111.246 169.599 114.834ZM169.599 114.834V114.61C169.599 111.021 172.065 108.779 175.877 108.779C179.464 108.779 181.706 111.246 181.706 114.834C181.706 118.423 179.24 120.666 175.428 120.666C171.841 120.666 169.599 118.423 169.599 114.834ZM278.341 114.834V114.61C278.341 111.021 280.808 108.779 284.619 108.779C288.207 108.779 290.449 111.246 290.449 114.834C290.449 118.423 287.982 120.666 284.171 120.666C280.584 120.666 278.341 118.423 278.341 114.834ZM205.921 114.834C205.921 118.423 203.679 120.89 199.868 120.89C196.28 120.89 193.814 118.647 193.814 114.834C193.814 111.246 196.056 108.779 199.868 108.779C203.455 108.779 205.921 111.246 205.921 114.834ZM266.234 114.834V114.61C266.234 111.021 268.7 108.779 272.512 108.779C276.099 108.779 278.341 111.246 278.341 114.834C278.341 118.423 275.875 120.666 272.064 120.666C268.476 120.666 266.234 118.423 266.234 114.834ZM266.234 126.721C266.234 130.31 263.992 132.777 260.18 132.777C256.593 132.777 254.127 130.31 254.127 126.721C254.127 123.133 256.369 120.666 260.18 120.666C263.768 120.666 266.234 122.909 266.234 126.721ZM169.599 126.721C169.599 130.31 167.133 132.777 163.545 132.777C159.958 132.777 157.492 130.534 157.492 126.721C157.492 123.133 159.734 120.666 163.545 120.666C167.133 120.666 169.599 122.909 169.599 126.721ZM278.341 126.721C278.341 130.31 276.099 132.777 272.288 132.777C268.7 132.777 266.234 130.31 266.234 126.721C266.234 123.133 268.476 120.666 272.288 120.666C275.875 120.666 278.341 122.909 278.341 126.721ZM175.653 132.777C172.065 132.777 169.599 130.31 169.599 126.721C169.599 123.133 171.841 120.666 175.653 120.666C179.24 120.666 181.706 122.909 181.706 126.721C181.706 130.31 179.464 132.777 175.653 132.777ZM278.341 126.721C278.341 123.133 280.584 120.666 284.395 120.666C287.983 120.666 290.449 122.909 290.449 126.721C290.449 130.31 288.207 132.777 284.395 132.777C280.808 132.777 278.341 130.31 278.341 126.721ZM193.814 126.721V126.946C193.814 130.534 191.347 132.777 187.536 132.777C183.949 132.777 181.706 130.31 181.706 126.721C181.706 123.133 184.173 120.89 187.984 120.89C191.572 120.89 193.814 123.133 193.814 126.721ZM193.814 138.833C193.814 135.244 196.056 132.777 199.868 132.777C203.455 132.777 205.921 135.244 205.921 138.833C205.921 142.421 203.679 144.889 199.868 144.889C196.28 144.889 193.814 142.646 193.814 138.833ZM266.234 138.833C266.234 135.244 268.476 132.777 272.288 132.777C275.875 132.777 278.341 135.244 278.341 138.833C278.341 142.421 276.099 144.889 272.288 144.889C268.7 144.889 266.234 142.646 266.234 138.833ZM254.127 138.833C254.127 135.244 256.369 132.777 260.18 132.777C263.768 132.777 266.234 135.244 266.234 138.833C266.234 142.421 263.992 144.889 260.18 144.889C256.593 144.889 254.127 142.646 254.127 138.833ZM169.599 138.833C169.599 135.244 172.065 132.777 175.653 132.777C179.24 132.777 181.706 135.02 181.706 138.833C181.706 142.421 179.464 144.889 175.653 144.889C172.065 144.889 169.599 142.646 169.599 138.833ZM181.706 138.833C181.706 135.244 183.949 132.777 187.76 132.777C191.347 132.777 193.814 135.244 193.814 138.833C193.814 142.421 191.572 144.889 187.76 144.889C184.173 144.889 181.706 142.646 181.706 138.833ZM242.019 138.833C242.019 135.244 244.261 132.777 248.073 132.777C251.66 132.777 254.127 135.244 254.127 138.833C254.127 142.421 251.885 144.889 248.073 144.889C244.486 144.889 242.019 142.646 242.019 138.833ZM242.019 138.609V139.057C242.019 142.646 239.553 144.889 235.965 144.889C232.378 144.889 230.136 142.421 230.136 138.609C230.136 135.02 232.602 132.777 236.19 132.777C239.777 132.777 242.019 135.02 242.019 138.609ZM230.136 138.833C230.136 142.421 227.894 144.889 224.082 144.889C220.495 144.889 218.029 142.646 218.029 138.833C218.029 135.244 220.271 132.777 224.082 132.777C227.67 132.777 230.136 135.244 230.136 138.833ZM218.029 138.833C218.029 142.421 215.787 144.889 211.975 144.889C208.388 144.889 205.921 142.646 205.921 138.833C205.921 135.244 208.163 132.777 211.975 132.777C215.562 132.777 218.029 135.244 218.029 138.833ZM193.814 150.944C193.814 147.356 196.056 144.889 199.868 144.889C203.455 144.889 205.921 147.131 205.921 150.944C205.921 154.533 203.679 157 199.868 157C196.28 157 193.814 154.533 193.814 150.944ZM205.921 151.169V150.72C205.921 147.131 208.388 144.889 211.975 144.889C215.562 144.889 217.804 147.356 217.804 151.169C217.804 154.757 215.338 157 211.751 157C208.163 157 205.921 154.757 205.921 151.169ZM217.804 150.944C217.804 147.356 220.047 144.889 223.858 144.889C227.445 144.889 229.912 147.131 229.912 150.944C229.912 154.533 227.67 157 223.858 157C220.271 157 217.804 154.533 217.804 150.944ZM229.912 150.944C229.912 147.356 232.154 144.889 235.965 144.889C239.553 144.889 242.019 147.131 242.019 150.944C242.019 154.533 239.777 157 235.965 157C232.378 157 229.912 154.533 229.912 150.944ZM254.127 150.944C254.127 147.356 256.369 144.889 260.18 144.889C263.768 144.889 266.234 147.131 266.234 150.944C266.234 154.533 263.992 157 260.18 157C256.593 157 254.127 154.533 254.127 150.944ZM187.76 157C184.173 157 181.706 154.757 181.706 150.944C181.706 147.356 183.949 144.889 187.76 144.889C191.347 144.889 193.814 147.131 193.814 150.944C193.814 154.533 191.347 157 187.76 157ZM242.019 150.944C242.019 147.356 244.261 144.889 248.073 144.889C251.66 144.889 254.127 147.131 254.127 150.944C254.127 154.533 251.885 157 248.073 157C244.486 157 242.019 154.533 242.019 150.944Z" fill="white"/>
<path d="M399.295 6.05572C399.295 2.46715 401.761 0 405.348 0C409.16 0 411.402 2.46715 411.402 6.05572C411.402 9.86858 408.936 12.1114 405.348 12.1114C401.537 12.1114 399.295 9.64429 399.295 6.05572ZM411.402 6.05572C411.402 2.46715 413.868 0 417.456 0C421.267 0 423.509 2.46715 423.509 6.05572C423.509 9.86858 421.043 12.1114 417.456 12.1114C413.644 12.1114 411.402 9.64429 411.402 6.05572ZM411.402 18.1671C411.402 14.3543 413.868 12.1114 417.456 12.1114C421.267 12.1114 423.509 14.5786 423.509 18.1671C423.509 21.7557 421.043 24.2229 417.456 24.2229C413.644 24.2229 411.402 21.7557 411.402 18.1671ZM399.295 18.1671C399.295 21.7557 396.828 24.2229 393.241 24.2229C389.429 24.2229 387.187 21.7557 387.187 18.1671C387.187 14.3543 389.654 12.1114 393.241 12.1114C397.052 12.1114 399.295 14.5786 399.295 18.1671ZM399.295 18.1671C399.295 14.3543 401.761 12.1114 405.348 12.1114C409.16 12.1114 411.402 14.5786 411.402 18.1671C411.402 21.7557 408.936 24.2229 405.348 24.2229C401.537 24.2229 399.295 21.7557 399.295 18.1671ZM411.402 30.2786C411.402 33.8671 408.936 36.3343 405.348 36.3343C401.537 36.3343 399.295 33.8671 399.295 30.2786C399.295 26.4657 401.761 24.2229 405.348 24.2229C409.16 24.2229 411.402 26.69 411.402 30.2786ZM387.187 30.2786C387.187 26.4657 389.654 24.2229 393.241 24.2229C397.052 24.2229 399.295 26.69 399.295 30.2786C399.295 33.8671 396.828 36.3343 393.241 36.3343C389.429 36.3343 387.187 33.8671 387.187 30.2786ZM423.509 30.2786C423.509 33.8671 421.043 36.3343 417.456 36.3343C413.644 36.3343 411.402 33.8671 411.402 30.2786C411.402 26.4657 413.868 24.2229 417.456 24.2229C421.267 24.2229 423.509 26.69 423.509 30.2786ZM375.08 30.2786C375.08 26.4657 377.546 24.2229 381.133 24.2229C384.945 24.2229 387.187 26.69 387.187 30.2786C387.187 33.8671 384.721 36.3343 381.133 36.3343C377.322 36.3343 375.08 33.8671 375.08 30.2786ZM387.187 42.39C387.187 45.9786 384.721 48.4457 381.133 48.4457C377.322 48.4457 375.08 45.9786 375.08 42.39C375.08 38.5772 377.546 36.3343 381.133 36.3343C384.945 36.3343 387.187 38.8014 387.187 42.39ZM375.08 42.1657V42.39C375.08 45.9786 372.838 48.2214 369.25 48.2214C365.439 48.2214 362.972 45.9786 362.972 42.39C362.972 38.8014 365.215 36.3343 368.802 36.3343C372.613 36.3343 375.08 38.5772 375.08 42.1657ZM423.509 42.1657V42.39C423.509 45.9786 421.267 48.2214 417.68 48.2214C413.868 48.2214 411.402 45.9786 411.402 42.39C411.402 38.8014 413.644 36.3343 417.231 36.3343C421.043 36.3343 423.509 38.5772 423.509 42.1657ZM411.402 42.1657V42.39C411.402 45.9786 409.16 48.2214 405.572 48.2214C401.761 48.2214 399.295 45.9786 399.295 42.39C399.295 38.8014 401.537 36.3343 405.124 36.3343C408.936 36.3343 411.402 38.5772 411.402 42.1657ZM399.295 42.39C399.295 45.9786 396.828 48.4457 393.241 48.4457C389.429 48.4457 387.187 45.9786 387.187 42.39C387.187 38.5772 389.654 36.3343 393.241 36.3343C397.052 36.3343 399.295 38.8014 399.295 42.39ZM362.972 54.2771C362.972 50.4643 365.439 48.2214 369.026 48.2214C372.838 48.2214 375.08 50.6886 375.08 54.2771C375.08 57.8657 372.613 60.3329 369.026 60.3329C365.214 60.3329 362.972 57.8657 362.972 54.2771ZM411.402 54.2771C411.402 50.4643 413.868 48.2214 417.456 48.2214C421.267 48.2214 423.509 50.6886 423.509 54.2771C423.509 57.8657 421.043 60.3329 417.456 60.3329C413.644 60.3329 411.402 57.8657 411.402 54.2771ZM350.865 54.2771C350.865 50.4643 353.331 48.2214 356.919 48.2214C360.73 48.2214 362.972 50.6886 362.972 54.2771C362.972 57.8657 360.506 60.3329 356.919 60.3329C353.107 60.3329 350.865 57.8657 350.865 54.2771ZM399.295 54.2771C399.295 50.4643 401.761 48.2214 405.348 48.2214C409.16 48.2214 411.402 50.6886 411.402 54.2771C411.402 57.8657 408.936 60.3329 405.348 60.3329C401.537 60.3329 399.295 57.8657 399.295 54.2771ZM387.187 54.5014C387.187 58.09 384.721 60.5571 381.133 60.5571C377.322 60.5571 375.08 58.09 375.08 54.5014C375.08 50.6886 377.546 48.4457 381.133 48.4457C384.945 48.4457 387.187 50.9129 387.187 54.5014ZM362.972 66.3886C362.972 69.9771 360.506 72.4443 356.919 72.4443C353.107 72.4443 350.865 69.9771 350.865 66.3886C350.865 62.5757 353.331 60.3329 356.919 60.3329C360.73 60.3329 362.972 62.8 362.972 66.3886ZM350.865 66.1643V66.6129C350.865 70.2014 348.623 72.4443 345.035 72.4443C341.448 72.4443 338.982 70.2014 338.982 66.6129C338.982 62.8 341.224 60.3329 344.811 60.3329C348.399 60.3329 350.865 62.5757 350.865 66.1643ZM411.402 66.3886C411.402 62.5757 413.868 60.3329 417.456 60.3329C421.267 60.3329 423.509 62.8 423.509 66.3886C423.509 69.9771 421.043 72.4443 417.456 72.4443C413.644 72.4443 411.402 69.9771 411.402 66.3886ZM375.08 66.3886C375.08 69.9771 372.613 72.4443 369.026 72.4443C365.214 72.4443 362.972 69.9771 362.972 66.3886C362.972 62.5757 365.439 60.3329 369.026 60.3329C372.838 60.3329 375.08 62.8 375.08 66.3886ZM399.295 66.3886C399.295 62.5757 401.761 60.3329 405.348 60.3329C409.16 60.3329 411.402 62.8 411.402 66.3886C411.402 69.9771 408.936 72.4443 405.348 72.4443C401.537 72.4443 399.295 69.9771 399.295 66.3886ZM350.865 78.2757V78.7243C350.865 82.3129 348.623 84.5557 345.035 84.5557C341.448 84.5557 338.982 82.3129 338.982 78.7243C338.982 74.9114 341.224 72.4443 344.811 72.4443C348.399 72.4443 350.865 74.6871 350.865 78.2757ZM411.402 78.5C411.402 82.0886 408.936 84.5557 405.348 84.5557C401.537 84.5557 399.295 82.0886 399.295 78.5C399.295 74.6871 401.761 72.4443 405.348 72.4443C409.16 72.4443 411.402 74.9114 411.402 78.5ZM362.972 78.5C362.972 82.0886 360.506 84.5557 356.919 84.5557C353.107 84.5557 350.865 82.0886 350.865 78.5C350.865 74.6871 353.331 72.4443 356.919 72.4443C360.73 72.4443 362.972 74.9114 362.972 78.5ZM338.982 78.5C338.982 82.0886 336.515 84.5557 332.928 84.5557C329.117 84.5557 326.874 82.0886 326.874 78.5C326.874 74.6871 329.341 72.4443 332.928 72.4443C336.74 72.4443 338.982 74.9114 338.982 78.5ZM423.509 78.5C423.509 82.0886 421.043 84.5557 417.456 84.5557C413.644 84.5557 411.402 82.0886 411.402 78.5C411.402 74.6871 413.868 72.4443 417.456 72.4443C421.267 72.4443 423.509 74.9114 423.509 78.5ZM411.402 90.6114C411.402 94.2 408.936 96.6671 405.348 96.6671C401.537 96.6671 399.295 94.2 399.295 90.6114C399.295 86.7986 401.761 84.5557 405.348 84.5557C409.16 84.5557 411.402 87.0229 411.402 90.6114ZM350.865 90.3871V91.06C350.865 94.6486 348.623 96.8914 345.035 96.8914C341.448 96.8914 338.982 94.6486 338.982 91.06C338.982 87.0229 341.224 84.5557 344.811 84.5557C348.399 84.5557 350.865 86.7986 350.865 90.3871ZM326.874 90.6114C326.874 94.2 324.408 96.6671 320.821 96.6671C317.009 96.6671 314.767 94.2 314.767 90.6114C314.767 86.7986 317.233 84.5557 320.821 84.5557C324.632 84.5557 326.874 87.0229 326.874 90.6114ZM423.509 90.6114V90.8357C423.509 94.4243 421.043 96.8914 417.456 96.8914C413.644 96.8914 411.402 94.4243 411.402 90.8357C411.402 86.7986 413.868 84.5557 417.456 84.5557C421.267 84.5557 423.509 87.0229 423.509 90.6114ZM338.982 90.6114C338.982 94.2 336.515 96.6671 332.928 96.6671C329.117 96.6671 326.874 94.2 326.874 90.6114C326.874 86.7986 329.341 84.5557 332.928 84.5557C336.74 84.5557 338.982 87.0229 338.982 90.6114ZM314.767 102.723C314.767 106.311 312.301 108.779 308.713 108.779C304.902 108.779 302.66 106.311 302.66 102.723C302.66 98.91 305.126 96.6671 308.713 96.6671C312.525 96.6671 314.767 99.1343 314.767 102.723ZM326.874 102.723C326.874 106.311 324.408 108.779 320.821 108.779C317.009 108.779 314.767 106.311 314.767 102.723C314.767 98.91 317.233 96.6671 320.821 96.6671C324.632 96.6671 326.874 99.1343 326.874 102.723ZM338.982 102.723C338.982 106.311 336.515 108.779 332.928 108.779C329.117 108.779 326.874 106.311 326.874 102.723C326.874 98.91 329.341 96.6671 332.928 96.6671C336.74 96.6671 338.982 99.1343 338.982 102.723ZM411.402 102.723C411.402 106.311 408.936 108.779 405.348 108.779C401.537 108.779 399.295 106.311 399.295 102.723C399.295 98.91 401.761 96.6671 405.348 96.6671C409.16 96.6671 411.402 99.1343 411.402 102.723ZM350.865 102.723V102.947C350.865 106.536 348.623 108.779 345.035 108.779C341.224 108.779 338.982 106.536 338.982 102.947C338.982 99.3586 341.224 96.8914 344.811 96.8914C348.399 96.8914 350.865 99.1343 350.865 102.723ZM362.972 102.723V102.947C362.972 106.536 360.73 108.779 357.143 108.779C353.331 108.779 350.865 106.536 350.865 102.947C350.865 99.3586 353.107 96.8914 356.694 96.8914C360.506 96.8914 362.972 99.1343 362.972 102.723ZM375.08 102.723V102.947C375.08 106.536 372.838 108.779 369.25 108.779C365.439 108.779 362.972 106.536 362.972 102.947C362.972 99.3586 365.215 96.8914 368.802 96.8914C372.613 96.8914 375.08 99.1343 375.08 102.723ZM387.187 102.723V102.947C387.187 106.536 384.945 108.779 381.358 108.779C377.546 108.779 375.08 106.536 375.08 102.947C375.08 99.3586 377.322 96.8914 380.909 96.8914C384.721 96.8914 387.187 99.1343 387.187 102.723ZM399.295 102.723V102.947C399.295 106.536 397.052 108.779 393.465 108.779C389.654 108.779 387.187 106.536 387.187 102.947C387.187 99.3586 389.429 96.8914 393.017 96.8914C396.828 96.8914 399.295 99.1343 399.295 102.723ZM423.285 102.723C423.285 99.1343 425.527 96.8914 429.115 96.8914C432.926 96.8914 435.393 99.1343 435.393 102.723C435.393 106.311 433.15 108.779 429.563 108.779C425.751 108.779 423.285 106.536 423.285 102.947C423.285 106.536 421.043 108.779 417.456 108.779C413.644 108.779 411.402 106.536 411.402 102.947C411.402 99.3586 413.644 96.8914 417.231 96.8914C420.819 96.8914 423.285 99.1343 423.285 102.723ZM435.393 102.947V102.723C435.393 99.1343 437.635 96.8914 441.222 96.8914C445.034 96.8914 447.5 99.1343 447.5 102.723C447.5 106.311 445.258 108.779 441.671 108.779C437.859 108.779 435.393 106.536 435.393 102.947ZM423.285 114.61C423.285 111.021 425.527 108.779 429.115 108.779C432.926 108.779 435.393 111.021 435.393 114.61C435.393 118.199 433.15 120.666 429.563 120.666C425.751 120.666 423.285 118.423 423.285 114.834C423.285 118.423 421.043 120.666 417.456 120.666C413.644 120.666 411.402 118.423 411.402 114.834C411.402 111.246 413.644 108.779 417.231 108.779C420.819 108.779 423.285 111.021 423.285 114.61ZM411.402 114.61V114.834C411.402 118.423 409.16 120.666 405.572 120.666C401.761 120.666 399.295 118.423 399.295 114.834C399.295 111.246 401.537 108.779 405.124 108.779C408.936 108.779 411.402 111.021 411.402 114.61ZM399.295 114.61V114.834C399.295 118.423 397.052 120.666 393.465 120.666C389.654 120.666 387.187 118.423 387.187 114.834C387.187 111.246 389.429 108.779 393.017 108.779C396.828 108.779 399.295 111.021 399.295 114.61ZM387.187 114.61V114.834C387.187 118.423 384.945 120.666 381.358 120.666C377.546 120.666 375.08 118.423 375.08 114.834C375.08 111.246 377.322 108.779 380.909 108.779C384.721 108.779 387.187 111.021 387.187 114.61ZM375.08 114.61V114.834C375.08 118.423 372.838 120.666 369.25 120.666C365.439 120.666 362.972 118.423 362.972 114.834C362.972 111.246 365.215 108.779 368.802 108.779C372.613 108.779 375.08 111.021 375.08 114.61ZM362.972 114.61V114.834C362.972 118.423 360.73 120.666 357.143 120.666C353.331 120.666 350.865 118.423 350.865 114.834C350.865 111.246 353.107 108.779 356.694 108.779C360.506 108.779 362.972 111.021 362.972 114.61ZM350.865 114.61V114.834C350.865 118.423 348.623 120.666 345.035 120.666C341.224 120.666 338.982 118.423 338.982 114.834C338.982 111.246 341.224 108.779 344.811 108.779C348.399 108.779 350.865 111.021 350.865 114.61ZM338.982 114.61V114.834C338.982 118.423 336.74 120.666 333.152 120.666C329.341 120.666 326.874 118.423 326.874 114.834C326.874 111.246 329.116 108.779 332.704 108.779C336.515 108.779 338.982 111.021 338.982 114.61ZM326.874 114.61V114.834C326.874 118.423 324.632 120.666 321.045 120.666C317.233 120.666 314.767 118.423 314.767 114.834C314.767 111.246 317.009 108.779 320.596 108.779C324.408 108.779 326.874 111.021 326.874 114.61ZM314.767 114.61V114.834C314.767 118.423 312.525 120.666 308.938 120.666C305.126 120.666 302.66 118.423 302.66 114.834C302.66 111.246 304.902 108.779 308.489 108.779C312.301 108.779 314.767 111.021 314.767 114.61ZM435.393 114.834V114.61C435.393 111.021 437.635 108.779 441.222 108.779C445.034 108.779 447.5 111.021 447.5 114.61C447.5 118.199 445.258 120.666 441.671 120.666C437.859 120.666 435.393 118.423 435.393 114.834ZM411.402 126.721C411.402 130.31 408.936 132.777 405.348 132.777C401.537 132.777 399.295 130.31 399.295 126.721C399.295 122.909 401.761 120.666 405.348 120.666C409.16 120.666 411.402 123.133 411.402 126.721ZM423.509 126.721C423.509 130.31 421.043 132.777 417.456 132.777C413.644 132.777 411.402 130.31 411.402 126.721C411.402 122.909 413.868 120.666 417.456 120.666C421.267 120.666 423.509 123.133 423.509 126.721ZM411.402 138.833C411.402 142.421 408.936 144.889 405.348 144.889C401.537 144.889 399.295 142.421 399.295 138.833C399.295 135.02 401.761 132.777 405.348 132.777C409.16 132.777 411.402 135.244 411.402 138.833ZM423.509 138.833C423.509 142.421 421.043 144.889 417.456 144.889C413.644 144.889 411.402 142.421 411.402 138.833C411.402 135.02 413.868 132.777 417.456 132.777C421.267 132.777 423.509 135.244 423.509 138.833ZM399.295 150.944C399.295 147.356 401.761 144.889 405.348 144.889C409.16 144.889 411.402 147.356 411.402 150.944C411.402 154.757 408.936 157 405.348 157C401.537 157 399.295 154.533 399.295 150.944ZM411.402 150.944C411.402 147.356 413.868 144.889 417.456 144.889C421.267 144.889 423.509 147.356 423.509 150.944C423.509 154.757 421.043 157 417.456 157C413.644 157 411.402 154.533 411.402 150.944Z" fill="white"/>
</svg>
