<svg width="368" height="80" viewBox="0 0 368 80" fill="none" xmlns="http://www.w3.org/2000/svg">
  <g>
    <path d="M79 0.576H227L238 9.576H68L79 0.576Z" fill="#FF560A"/>
    <path d="M18 67.576H126V73.076L121.5 78.576H28L18 67.576Z" fill="#FF560A"/>
    <path d="M126 67.576V73.076H228L233.5 67.576H126Z" fill="#FF560A"/>
    <path d="M40.5 4.576H92.5L95.5 9.076H290.5L293 4.576H346.5L351.5 11.576H367V26.076L324 69.576H1V44.076L40.5 4.576Z" fill="white" opacity="0.04"/>
    <path d="M47.126 10.576H96L98.82 14.661H282.098L284.448 10.576H334.732L339.432 16.93H354V30.092L313.585 69.576H10V46.43L47.126 10.576Z" fill="url(#grad1)" opacity="0.04"/>
    <path d="M126 67.576H18L28 78.576H121.5L126 73.076M126 67.576V73.076M126 67.576H233.5L228 73.076H126M79 0.576H227L238 9.576H68L79 0.576ZM40.5 4.576H92.5L95.5 9.076H290.5L293 4.576H346.5L351.5 11.576H367V26.076L324 69.576H1V44.076L40.5 4.576ZM47.126 10.576H96L98.82 14.661H282.098L284.448 10.576H334.732L339.432 16.93H354V30.092L313.585 69.576H10V46.43L47.126 10.576Z" stroke="url(#grad2)"/>
  </g>
  <defs>
    <linearGradient id="grad1" x1="10" y1="39.3567" x2="328.409" y2="39.3567" gradientUnits="userSpaceOnUse">
      <stop stop-color="#0476C0"/>
      <stop offset="0.535" stop-color="#07BEFC"/>
      <stop offset="1" stop-color="#07BEFC"/>
    </linearGradient>
    <linearGradient id="grad2" x1="184" y1="0.576" x2="184" y2="78.576" gradientUnits="userSpaceOnUse">
      <stop stop-color="white" stop-opacity="0.32"/>
      <stop offset="0.11" stop-color="white" stop-opacity="0.24"/>
      <stop offset="1" stop-color="white" stop-opacity="0.08"/>
    </linearGradient>
  </defs>
</svg>
