<svg width="167" height="52" viewBox="0 0 167 52" fill="none" xmlns="http://www.w3.org/2000/svg">
<g clip-path="url(#clip0_602_6302)">
<path d="M65.2202 34.6669L71.5862 17.262H76.0796L82.4456 34.6669H77.7027L76.5037 31.3344H70.6617L69.4627 34.6669H65.2188H65.2202ZM71.9354 27.904H75.2314L73.5834 22.7313L71.9354 27.904Z" fill="white"/>
<path d="M83.5156 34.6667V21.4888H87.0611V23.2793C87.1609 23.0469 87.3149 22.8116 87.5233 22.5704C87.7317 22.3307 87.9768 22.1027 88.26 21.8864C88.5432 21.6715 88.8631 21.4976 89.2212 21.3646C89.5793 21.233 89.9652 21.1658 90.382 21.1658C90.6652 21.1658 90.8897 21.1818 91.0556 21.2155C91.2214 21.2491 91.3711 21.2812 91.5046 21.3149V24.621C91.421 24.5713 91.2302 24.5129 90.9308 24.4471C90.6315 24.3813 90.2822 24.3477 89.8816 24.3477C89.4325 24.3477 89.0495 24.4179 88.7325 24.5596C88.417 24.7 88.1588 24.8871 87.9592 25.1195C87.7596 25.3518 87.6099 25.6296 87.5101 25.9526C87.4103 26.2756 87.3604 26.6205 87.3604 26.9845V34.6682H83.5156V34.6667Z" fill="white"/>
<path d="M98.8738 34.8158C98.0417 34.8158 97.3256 34.7369 96.7268 34.579C96.1281 34.4212 95.6365 34.161 95.2535 33.7956C94.8705 33.4317 94.5872 32.9552 94.4053 32.3661C94.2218 31.7786 94.1309 31.0521 94.1309 30.1898V24.6196H92.5078V21.4873H94.1309V18.5042H97.9757V21.4873H100.996V24.6196H97.9757V29.5671C97.9757 29.9325 98.0006 30.2468 98.0505 30.5113C98.1004 30.7774 98.1958 30.9922 98.3381 31.1574C98.479 31.324 98.6624 31.4439 98.887 31.5184C99.1115 31.5929 99.3991 31.6295 99.7484 31.6295C99.9979 31.6295 100.247 31.6251 100.497 31.6178C100.746 31.609 100.996 31.5886 101.245 31.5549V34.6872C100.928 34.7208 100.597 34.75 100.247 34.7749C99.8981 34.7997 99.4402 34.8114 98.8738 34.8114V34.8158Z" fill="white"/>
<path d="M108.499 34.9898C107.534 34.9898 106.631 34.8524 105.79 34.579C104.949 34.3057 104.221 33.8877 103.605 33.3235C102.989 32.7608 102.507 32.0519 102.157 31.1969C101.807 30.3433 101.633 29.345 101.633 28.2005V27.7036C101.633 26.6088 101.803 25.6559 102.145 24.8447C102.485 24.032 102.952 23.3523 103.543 22.8057C104.133 22.2591 104.833 21.8483 105.641 21.575C106.448 21.3017 107.318 21.1643 108.25 21.1643C110.447 21.1643 112.097 21.7197 113.205 22.8306C114.312 23.9414 114.865 25.5652 114.865 27.7036V29.0717H105.579C105.595 29.5862 105.687 30.0203 105.853 30.3769C106.019 30.7335 106.236 31.0273 106.502 31.2597C106.768 31.4921 107.076 31.6617 107.426 31.7698C107.776 31.878 108.134 31.9306 108.499 31.9306C109.248 31.9306 109.83 31.818 110.247 31.5944C110.662 31.3708 110.937 31.0682 111.07 30.6868H114.616C114.482 31.4 114.249 32.0256 113.917 32.5649C113.584 33.1043 113.16 33.5559 112.643 33.9199C112.127 34.2853 111.521 34.5542 110.821 34.7281C110.122 34.9021 109.347 34.9898 108.499 34.9898ZM105.604 26.5606H111.097C111.097 26.0973 111.026 25.7158 110.884 25.4162C110.741 25.118 110.546 24.8783 110.297 24.6956C110.047 24.5129 109.755 24.3843 109.424 24.3097C109.091 24.2352 108.741 24.1972 108.376 24.1972C108.011 24.1972 107.689 24.2396 107.365 24.3214C107.041 24.4047 106.748 24.5406 106.492 24.7321C106.233 24.9221 106.025 25.1677 105.868 25.4658C105.709 25.764 105.621 26.1294 105.605 26.5606H105.604Z" fill="white"/>
<path d="M120.935 34.8158C120.136 34.8158 119.445 34.75 118.862 34.617C118.28 34.484 117.801 34.2399 117.427 33.8832C117.053 33.5266 116.774 33.0384 116.591 32.4158C116.407 31.7946 116.316 30.9951 116.316 30.0158V17.2603H120.161V29.4443C120.161 29.8594 120.186 30.2073 120.236 30.4894C120.286 30.7715 120.374 30.9951 120.499 31.1602C120.623 31.3269 120.803 31.4467 121.036 31.5213C121.269 31.5958 121.56 31.6323 121.909 31.6323C122.109 31.6323 122.274 31.628 122.408 31.6207C122.541 31.6119 122.674 31.6002 122.807 31.5827V34.7412C122.69 34.7573 122.561 34.7704 122.42 34.7792C122.279 34.7865 122.128 34.7953 121.971 34.8041C121.812 34.8128 121.646 34.8172 121.472 34.8172H120.935V34.8158Z" fill="white"/>
<path d="M128.329 34.8158C127.531 34.8158 126.84 34.75 126.257 34.617C125.674 34.484 125.196 34.2399 124.822 33.8832C124.448 33.5266 124.169 33.0384 123.985 32.4158C123.802 31.7946 123.711 30.9951 123.711 30.0158V17.2603H127.556V29.4443C127.556 29.8594 127.581 30.2073 127.631 30.4894C127.68 30.7715 127.769 30.9951 127.893 31.1602C128.018 31.3269 128.197 31.4467 128.43 31.5213C128.664 31.5958 128.954 31.6323 129.304 31.6323C129.503 31.6323 129.669 31.628 129.802 31.6207C129.936 31.6119 130.068 31.6002 130.202 31.5827V34.7412C130.084 34.7573 129.955 34.7704 129.814 34.7792C129.673 34.7865 129.522 34.7953 129.365 34.8041C129.207 34.8128 129.041 34.8172 128.866 34.8172H128.329V34.8158Z" fill="white"/>
<path d="M137.347 34.9898C136.381 34.9898 135.479 34.8524 134.638 34.579C133.797 34.3057 133.069 33.8877 132.453 33.3235C131.836 32.7608 131.355 32.0519 131.004 31.1969C130.655 30.3433 130.48 29.345 130.48 28.2005V27.7036C130.48 26.6088 130.651 25.6559 130.993 24.8447C131.333 24.032 131.8 23.3523 132.391 22.8057C132.981 22.2591 133.681 21.8483 134.488 21.575C135.295 21.3017 136.166 21.1643 137.097 21.1643C139.294 21.1643 140.945 21.7197 142.053 22.8306C143.16 23.9414 143.713 25.5652 143.713 27.7036V29.0717H134.427C134.443 29.5862 134.535 30.0203 134.701 30.3769C134.867 30.7335 135.084 31.0273 135.35 31.2597C135.615 31.4921 135.923 31.6617 136.274 31.7698C136.623 31.878 136.981 31.9306 137.347 31.9306C138.095 31.9306 138.678 31.818 139.095 31.5944C139.51 31.3708 139.784 31.0682 139.918 30.6868H143.463C143.33 31.4 143.096 32.0256 142.765 32.5649C142.432 33.1043 142.008 33.5559 141.491 33.9199C140.974 34.2853 140.368 34.5542 139.668 34.7281C138.97 34.9021 138.195 34.9898 137.347 34.9898ZM134.451 26.5606H139.944C139.944 26.0973 139.874 25.7158 139.732 25.4162C139.589 25.118 139.394 24.8783 139.145 24.6956C138.895 24.5129 138.603 24.3843 138.271 24.3097C137.938 24.2352 137.589 24.1972 137.224 24.1972C136.858 24.1972 136.537 24.2396 136.212 24.3214C135.888 24.4047 135.596 24.5406 135.339 24.7321C135.081 24.9221 134.873 25.1677 134.716 25.4658C134.557 25.764 134.469 26.1294 134.453 26.5606H134.451Z" fill="white"/>
<path d="M151.535 34.9898C150.553 34.9898 149.649 34.8494 148.826 34.5674C148.002 34.2853 147.291 33.8629 146.69 33.2987C146.092 32.7359 145.625 32.03 145.292 31.1852C144.959 30.3404 144.793 29.345 144.793 28.202V27.7051C144.793 26.66 144.972 25.7319 145.33 24.9207C145.688 24.1095 146.171 23.4254 146.778 22.87C147.386 22.3146 148.102 21.8922 148.925 21.6013C149.749 21.3119 150.619 21.1658 151.535 21.1658C152.532 21.1658 153.41 21.2988 154.169 21.5633C154.926 21.8293 155.563 22.1889 156.078 22.6449C156.593 23.101 156.994 23.6359 157.275 24.2483C157.559 24.8622 157.724 25.517 157.774 26.2127H153.83C153.696 25.6164 153.451 25.156 153.093 24.833C152.735 24.51 152.216 24.3477 151.533 24.3477C151.134 24.3477 150.763 24.4179 150.422 24.5596C150.08 24.7 149.785 24.9075 149.536 25.1808C149.286 25.4542 149.09 25.802 148.949 26.2259C148.808 26.6483 148.736 27.1423 148.736 27.7051V28.202C148.736 28.8159 148.802 29.3464 148.936 29.7937C149.068 30.241 149.256 30.6137 149.498 30.9133C149.738 31.2115 150.035 31.4322 150.384 31.5725C150.733 31.7128 151.116 31.7844 151.533 31.7844C152.116 31.7844 152.61 31.631 153.018 31.324C153.426 31.0171 153.696 30.5581 153.83 29.9443H157.774C157.724 30.7233 157.541 31.4234 157.226 32.0461C156.91 32.6672 156.48 33.1978 155.94 33.6378C155.398 34.0777 154.759 34.4124 154.018 34.6448C153.277 34.8772 152.449 34.9927 151.533 34.9927L151.535 34.9898Z" fill="white"/>
<path d="M164.624 34.8158C163.792 34.8158 163.076 34.7369 162.477 34.579C161.878 34.4212 161.387 34.161 161.003 33.7956C160.62 33.4317 160.337 32.9552 160.155 32.3661C159.972 31.7786 159.881 31.0521 159.881 30.1898V24.6196H158.258V21.4873H159.881V18.5042H163.726V21.4873H166.746V24.6196H163.726V29.5671C163.726 29.9325 163.751 30.2468 163.801 30.5113C163.85 30.7774 163.946 30.9922 164.088 31.1574C164.229 31.324 164.412 31.4439 164.637 31.5184C164.862 31.5929 165.149 31.6295 165.498 31.6295C165.748 31.6295 165.997 31.6251 166.247 31.6178C166.496 31.609 166.746 31.5886 166.995 31.5549V34.6872C166.678 34.7208 166.347 34.75 165.997 34.7749C165.648 34.7997 165.19 34.8114 164.624 34.8114V34.8158Z" fill="white"/>
<path d="M46.556 38.6306C45.6829 36.2511 43.4097 34.6681 40.8651 34.6681H36.4348C40.6435 34.6681 43.5711 30.4981 42.1257 26.5605L38.7402 17.3348L33.8329 3.96391C32.9598 1.58293 30.6866 0 28.142 0H19.6995L23.1525 9.40698C24.8988 14.1675 29.4466 17.3333 34.5344 17.3333H16.9597C14.4151 17.3333 12.142 18.9163 11.2688 21.2958L0 52H8.44245C10.9871 52 13.2602 50.4171 14.1334 48.0376L16.0646 42.7743C17.5101 38.8367 14.5824 34.6667 10.3737 34.6667H32.4212L37.3285 48.0376C38.2016 50.4171 40.4748 52 43.0194 52H51.4618L46.5546 38.6291L46.556 38.6306Z" fill="white"/>
</g>
<defs>
<clipPath id="clip0_602_6302">
<rect width="167" height="52" fill="white"/>
</clipPath>
</defs>
</svg>
