<svg width="52" height="52" viewBox="0 0 52 52" fill="none" xmlns="http://www.w3.org/2000/svg">
<path d="M46.556 38.6306C45.6829 36.2511 43.4097 34.6681 40.8651 34.6681H36.4348C40.6435 34.6681 43.5711 30.4981 42.1257 26.5605L38.7402 17.3348L33.8329 3.96391C32.9598 1.58293 30.6866 0 28.142 0H19.6995L23.1525 9.40698C24.8988 14.1675 29.4466 17.3333 34.5344 17.3333H16.9597C14.4151 17.3333 12.142 18.9163 11.2688 21.2958L0 52H8.44245C10.9871 52 13.2602 50.4171 14.1334 48.0376L16.0646 42.7743C17.5101 38.8367 14.5824 34.6667 10.3737 34.6667H32.4212L37.3285 48.0376C38.2016 50.4171 40.4748 52 43.0194 52H51.4618L46.5546 38.6291L46.556 38.6306Z" fill="white"/>
</svg>
