<svg width="102" height="18" viewBox="0 0 102 18" fill="none" xmlns="http://www.w3.org/2000/svg">
<path d="M0.220219 17.6669L6.58617 0.261963H11.0796L17.4456 17.6669H12.7027L11.5037 14.3344H5.66166L4.46272 17.6669H0.21875H0.220219ZM6.93544 10.904H10.2314L8.58342 5.73134L6.93544 10.904Z" fill="white"/>
<path d="M18.5156 17.6667V4.48879H22.0611V6.27927C22.1609 6.04688 22.3149 5.81155 22.5233 5.57039C22.7317 5.33068 22.9768 5.10267 23.26 4.88635C23.5432 4.67149 23.8631 4.49756 24.2212 4.36455C24.5793 4.23301 24.9652 4.16577 25.382 4.16577C25.6652 4.16577 25.8897 4.18185 26.0556 4.21547C26.2214 4.24908 26.3711 4.28124 26.5046 4.31486V7.62104C26.421 7.57134 26.2302 7.51288 25.9308 7.4471C25.6315 7.38133 25.2822 7.34772 24.8816 7.34772C24.4325 7.34772 24.0495 7.41787 23.7325 7.55965C23.417 7.69997 23.1588 7.88705 22.9592 8.11945C22.7596 8.35185 22.6099 8.62955 22.5101 8.95257C22.4103 9.27559 22.3604 9.62053 22.3604 9.98447V17.6682H18.5156V17.6667Z" fill="white"/>
<path d="M33.8738 17.8158C33.0417 17.8158 32.3256 17.7369 31.7268 17.579C31.1281 17.4212 30.6365 17.161 30.2535 16.7956C29.8705 16.4317 29.5872 15.9552 29.4053 15.3661C29.2218 14.7786 29.1309 14.0521 29.1309 13.1898V7.61956H27.5078V4.48731H29.1309V1.50415H32.9757V4.48731H35.9958V7.61956H32.9757V12.5671C32.9757 12.9325 33.0006 13.2468 33.0505 13.5113C33.1004 13.7774 33.1958 13.9922 33.3381 14.1574C33.479 14.324 33.6624 14.4439 33.887 14.5184C34.1115 14.5929 34.3991 14.6295 34.7484 14.6295C34.9979 14.6295 35.2473 14.6251 35.4968 14.6178C35.7463 14.609 35.9958 14.5886 36.2452 14.5549V17.6872C35.9282 17.7208 35.5966 17.75 35.2473 17.7749C34.8981 17.7997 34.4402 17.8114 33.8738 17.8114V17.8158Z" fill="white"/>
<path d="M43.4992 17.9898C42.5336 17.9898 41.6311 17.8524 40.7902 17.579C39.9493 17.3057 39.2215 16.8877 38.6051 16.3235C37.9888 15.7608 37.5074 15.0519 37.1567 14.1969C36.8074 13.3433 36.6328 12.345 36.6328 11.2005V10.7036C36.6328 9.60883 36.803 8.65586 37.145 7.84466C37.4854 7.032 37.9521 6.35235 38.5435 5.8057C39.1334 5.25906 39.8334 4.84834 40.6405 4.57502C41.4476 4.3017 42.3179 4.16431 43.2497 4.16431C45.4465 4.16431 47.0975 4.71972 48.2054 5.83055C49.3119 6.94138 49.8651 8.56524 49.8651 10.7036V12.0717H40.5789C40.595 12.5862 40.6875 13.0203 40.8533 13.3769C41.0191 13.7335 41.2363 14.0273 41.5019 14.2597C41.7675 14.4921 42.0757 14.6617 42.4264 14.7698C42.7757 14.878 43.1338 14.9306 43.4992 14.9306C44.2476 14.9306 44.8302 14.818 45.247 14.5944C45.6623 14.3708 45.9367 14.0682 46.0702 13.6868H49.6157C49.4821 14.4 49.2488 15.0256 48.9171 15.5649C48.584 16.1043 48.1599 16.5559 47.6434 16.9199C47.1268 17.2853 46.5207 17.5542 45.8207 17.7281C45.1222 17.9021 44.3474 17.9898 43.4992 17.9898ZM40.6038 9.5606H46.0966C46.0966 9.09727 46.0262 8.71579 45.8838 8.41615C45.7415 8.11798 45.5463 7.87828 45.2969 7.69558C45.0474 7.51288 44.7553 7.38425 44.4237 7.30971C44.0906 7.23517 43.7413 7.19717 43.3759 7.19717C43.0105 7.19717 42.6891 7.23955 42.3648 7.3214C42.0405 7.40471 41.7485 7.54065 41.4917 7.73212C41.2334 7.92213 41.025 8.16768 40.868 8.46585C40.7095 8.76402 40.6214 9.12942 40.6053 9.5606H40.6038Z" fill="white"/>
<path d="M55.9346 17.8158C55.1363 17.8158 54.4451 17.75 53.8625 17.617C53.2799 17.484 52.8015 17.2399 52.4273 16.8832C52.0531 16.5266 51.7743 16.0384 51.5908 15.4158C51.4074 14.7946 51.3164 13.9951 51.3164 13.0158V0.260254H55.1612V12.4443C55.1612 12.8594 55.1862 13.2073 55.2361 13.4894C55.286 13.7715 55.374 13.9951 55.4987 14.1602C55.6235 14.3269 55.8025 14.4467 56.0358 14.5213C56.2692 14.5958 56.5597 14.6323 56.909 14.6323C57.1086 14.6323 57.2744 14.628 57.4079 14.6207C57.5415 14.6119 57.6736 14.6002 57.8071 14.5827V17.7412C57.6897 17.7573 57.5606 17.7704 57.4197 17.7792C57.2788 17.7865 57.1276 17.7953 56.9706 17.8041C56.8121 17.8128 56.6463 17.8172 56.4717 17.8172H55.9346V17.8158Z" fill="white"/>
<path d="M63.3291 17.8158C62.5308 17.8158 61.8396 17.75 61.257 17.617C60.6744 17.484 60.196 17.2399 59.8218 16.8832C59.4476 16.5266 59.1688 16.0384 58.9854 15.4158C58.8019 14.7946 58.7109 13.9951 58.7109 13.0158V0.260254H62.5558V12.4443C62.5558 12.8594 62.5807 13.2073 62.6306 13.4894C62.6805 13.7715 62.7685 13.9951 62.8933 14.1602C63.018 14.3269 63.197 14.4467 63.4304 14.5213C63.6637 14.5958 63.9543 14.6323 64.3035 14.6323C64.5031 14.6323 64.6689 14.628 64.8025 14.6207C64.936 14.6119 65.0681 14.6002 65.2016 14.5827V17.7412C65.0842 17.7573 64.9551 17.7704 64.8142 17.7792C64.6733 17.7865 64.5222 17.7953 64.3652 17.8041C64.2067 17.8128 64.0409 17.8172 63.8662 17.8172H63.3291V17.8158Z" fill="white"/>
<path d="M72.3468 17.9898C71.3812 17.9898 70.4787 17.8524 69.6379 17.579C68.797 17.3057 68.0691 16.8877 67.4528 16.3235C66.8364 15.7608 66.3551 15.0519 66.0044 14.1969C65.6551 13.3433 65.4805 12.345 65.4805 11.2005V10.7036C65.4805 9.60883 65.6507 8.65586 65.9926 7.84466C66.3331 7.032 66.7997 6.35235 67.3911 5.8057C67.9811 5.25906 68.6811 4.84834 69.4882 4.57502C70.2953 4.3017 71.1655 4.16431 72.0974 4.16431C74.2942 4.16431 75.9451 4.71972 77.0531 5.83055C78.1596 6.94138 78.7128 8.56524 78.7128 10.7036V12.0717H69.4265C69.4427 12.5862 69.5351 13.0203 69.701 13.3769C69.8668 13.7335 70.084 14.0273 70.3496 14.2597C70.6152 14.4921 70.9234 14.6617 71.2741 14.7698C71.6234 14.878 71.9814 14.9306 72.3468 14.9306C73.0953 14.9306 73.6779 14.818 74.0946 14.5944C74.5099 14.3708 74.7843 14.0682 74.9179 13.6868H78.4633C78.3298 14.4 78.0965 15.0256 77.7648 15.5649C77.4317 16.1043 77.0076 16.5559 76.491 16.9199C75.9745 17.2853 75.3684 17.5542 74.6684 17.7281C73.9699 17.9021 73.1951 17.9898 72.3468 17.9898ZM69.4515 9.5606H74.9443C74.9443 9.09727 74.8739 8.71579 74.7315 8.41615C74.5892 8.11798 74.394 7.87828 74.1445 7.69558C73.895 7.51288 73.603 7.38425 73.2714 7.30971C72.9382 7.23517 72.589 7.19717 72.2236 7.19717C71.8582 7.19717 71.5368 7.23955 71.2125 7.3214C70.8882 7.40471 70.5961 7.54065 70.3393 7.73212C70.081 7.92213 69.8727 8.16768 69.7156 8.46585C69.5572 8.76402 69.4691 9.12942 69.453 9.5606H69.4515Z" fill="white"/>
<path d="M86.5346 17.9898C85.5529 17.9898 84.6489 17.8494 83.8256 17.5674C83.0024 17.2853 82.2906 16.8629 81.6904 16.2987C81.0917 15.7359 80.625 15.03 80.2919 14.1852C79.9588 13.3404 79.793 12.345 79.793 11.202V10.7051C79.793 9.66 79.972 8.73187 80.3301 7.92067C80.6881 7.10947 81.1709 6.42543 81.7785 5.87002C82.386 5.3146 83.1021 4.8922 83.9254 4.60133C84.7487 4.31193 85.6189 4.16577 86.5346 4.16577C87.5325 4.16577 88.41 4.29878 89.1687 4.56333C89.926 4.82935 90.5628 5.1889 91.0779 5.64493C91.593 6.10095 91.9937 6.63591 92.2754 7.24832C92.5586 7.8622 92.7245 8.51701 92.7744 9.21274H88.8298C88.6962 8.6164 88.4511 8.15599 88.0931 7.83297C87.735 7.50995 87.2155 7.34772 86.5331 7.34772C86.134 7.34772 85.7627 7.41787 85.4223 7.55965C85.0803 7.69997 84.7854 7.90752 84.5359 8.18084C84.2864 8.45416 84.0898 8.80202 83.9489 9.22589C83.808 9.6483 83.7361 10.1423 83.7361 10.7051V11.202C83.7361 11.8159 83.8021 12.3464 83.9357 12.7937C84.0678 13.241 84.2556 13.6137 84.4977 13.9133C84.7384 14.2115 85.0348 14.4322 85.3841 14.5725C85.7334 14.7128 86.1164 14.7844 86.5331 14.7844C87.1157 14.7844 87.6103 14.631 88.0182 14.324C88.4262 14.0171 88.6962 13.5581 88.8298 12.9443H92.7744C92.7245 13.7233 92.541 14.4234 92.2255 15.0461C91.91 15.6672 91.48 16.1978 90.94 16.6378C90.3985 17.0777 89.7587 17.4124 89.0176 17.6448C88.2765 17.8772 87.4488 17.9927 86.5331 17.9927L86.5346 17.9898Z" fill="white"/>
<path d="M99.6238 17.8158C98.7917 17.8158 98.0756 17.7369 97.4768 17.579C96.8781 17.4212 96.3865 17.161 96.0035 16.7956C95.6205 16.4317 95.3372 15.9552 95.1553 15.3661C94.9718 14.7786 94.8809 14.0521 94.8809 13.1898V7.61956H93.2578V4.48731H94.8809V1.50415H98.7257V4.48731H101.746V7.61956H98.7257V12.5671C98.7257 12.9325 98.7506 13.2468 98.8005 13.5113C98.8504 13.7774 98.9458 13.9922 99.0881 14.1574C99.229 14.324 99.4125 14.4439 99.637 14.5184C99.8615 14.5929 100.149 14.6295 100.498 14.6295C100.748 14.6295 100.997 14.6251 101.247 14.6178C101.496 14.609 101.746 14.5886 101.995 14.5549V17.6872C101.678 17.7208 101.347 17.75 100.997 17.7749C100.648 17.7997 100.19 17.8114 99.6238 17.8114V17.8158Z" fill="white"/>
</svg>
