<svg width="120" height="119" viewBox="0 0 120 119" fill="none" xmlns="http://www.w3.org/2000/svg">
<path d="M120 70.3879L118.307 77.1591L110.172 75.1142L110.511 73.76L117.448 75.5039L118.464 71.4412L111.527 69.6973L111.865 68.343L120 70.3879Z" fill="white"/>
<path d="M107.861 80.433C108.086 79.9426 108.376 79.5116 108.731 79.1399C109.097 78.7726 109.514 78.4935 109.985 78.3025C110.465 78.1159 110.995 78.0341 111.577 78.057C112.158 78.08 112.775 78.2414 113.427 78.5412L113.714 78.6734C114.328 78.9556 114.824 79.3056 115.201 79.7236C115.579 80.1415 115.844 80.5893 115.997 81.0669C116.159 81.5488 116.216 82.0462 116.167 82.559C116.128 83.0762 115.996 83.58 115.772 84.0703C115.548 84.5606 115.253 84.9895 114.888 85.3568C114.532 85.7285 114.119 86.0098 113.649 86.2008C113.188 86.3962 112.676 86.4869 112.114 86.4727C111.552 86.4586 110.964 86.3104 110.35 86.0283L110.063 85.896C109.411 85.5962 108.886 85.2329 108.49 84.8062C108.093 84.3794 107.809 83.9228 107.637 83.4364C107.474 82.9545 107.412 82.4549 107.452 81.9377C107.5 81.4249 107.637 80.9233 107.861 80.433ZM109.012 80.962C108.88 81.2505 108.796 81.5609 108.76 81.8935C108.734 82.2304 108.775 82.5579 108.885 82.876C109.005 83.1986 109.206 83.5065 109.49 83.7998C109.769 84.1027 110.158 84.3688 110.656 84.5981L110.944 84.7304C111.404 84.942 111.831 85.0507 112.222 85.0563C112.61 85.0716 112.96 85.0172 113.272 84.8931C113.584 84.769 113.854 84.5847 114.082 84.3404C114.31 84.0961 114.49 83.8297 114.621 83.5413C114.753 83.2528 114.837 82.9424 114.873 82.6098C114.909 82.2773 114.872 81.952 114.763 81.6339C114.653 81.3158 114.468 81.0097 114.208 80.7155C113.943 80.431 113.581 80.183 113.121 79.9713L112.833 79.8391C112.334 79.6098 111.882 79.4831 111.475 79.459C111.064 79.4445 110.697 79.4971 110.376 79.6168C110.064 79.7409 109.789 79.923 109.552 80.1629C109.324 80.4072 109.144 80.6736 109.012 80.962Z" fill="white"/>
<path d="M107.057 85.5622L106.467 86.4071C106.53 86.5934 106.668 86.8195 106.882 87.0855C107.095 87.3515 107.362 87.6422 107.683 87.9575C108.004 88.2729 108.367 88.5922 108.772 88.9153C109.18 89.2532 109.609 89.5798 110.058 89.8952L111.873 91.1688L108.516 95.9782L102.656 91.8664L101.976 92.8413L99.344 90.9946L100.106 89.9028L101.727 91.0399L105.283 85.9445L103.663 84.8074L104.425 83.7155L107.057 85.5622ZM103.455 90.7225L108.303 94.1247L110.081 91.5771L109.018 90.8311C108.655 90.5764 108.301 90.3087 107.957 90.028C107.62 89.7534 107.306 89.4748 107.014 89.1924C106.731 88.916 106.469 88.6357 106.23 88.3515C105.993 88.0821 105.8 87.8239 105.65 87.5769L103.455 90.7225Z" fill="white"/>
<path d="M106.04 99.0482L105.119 99.9648L104.004 98.8389C104.196 99.4379 104.216 100.021 104.065 100.589C103.913 101.172 103.598 101.702 103.119 102.179C102.37 102.924 101.526 103.272 100.587 103.224C99.6543 103.183 98.7088 102.679 97.75 101.71L97.5271 101.485C97.0217 100.975 96.6393 100.469 96.3801 99.9666C96.1283 99.4721 95.9846 98.9892 95.949 98.5179C95.9208 98.054 95.997 97.6056 96.1776 97.1724C96.3507 96.7468 96.6207 96.3514 96.9875 95.9862C97.4966 95.4795 98.0348 95.1674 98.6021 95.0498C99.162 94.9396 99.6952 94.9677 100.202 95.1341L96.9131 91.8127L97.9013 90.829L106.04 99.0482ZM98.0817 96.6409C97.8421 96.8794 97.6621 97.1479 97.5417 97.4467C97.4287 97.7529 97.3865 98.0706 97.4151 98.3998C97.4363 98.7364 97.5395 99.0808 97.7247 99.433C97.9024 99.7927 98.1659 100.149 98.5152 100.502L98.7382 100.727C99.0578 101.05 99.3888 101.294 99.7314 101.46C100.066 101.633 100.398 101.728 100.726 101.744C101.054 101.775 101.368 101.731 101.667 101.613C101.965 101.494 102.235 101.315 102.474 101.077C102.744 100.809 102.946 100.518 103.081 100.204C103.224 99.8981 103.296 99.5879 103.297 99.2738C103.306 98.9672 103.251 98.6641 103.133 98.3645C103.015 98.0649 102.837 97.795 102.599 97.5548L101.707 96.6541C101.439 96.3839 101.149 96.1809 100.836 96.0451C100.524 95.9094 100.21 95.8409 99.8972 95.8398C99.5839 95.8386 99.2704 95.9048 98.9566 96.0383C98.6428 96.1718 98.3512 96.3726 98.0817 96.6409Z" fill="white"/>
<path d="M90.5608 101.307C91.0039 101.001 91.473 100.78 91.9684 100.643C92.4697 100.515 92.9712 100.49 93.4727 100.567C93.9802 100.653 94.4778 100.855 94.9655 101.173C95.4532 101.492 95.9005 101.947 96.3075 102.539L96.4871 102.8C96.8701 103.358 97.1171 103.913 97.2279 104.466C97.3388 105.019 97.3379 105.539 97.2254 106.028C97.1189 106.526 96.9137 106.982 96.6099 107.397C96.312 107.821 95.9416 108.187 95.4986 108.493C95.0555 108.799 94.5834 109.016 94.082 109.144C93.5867 109.28 93.0882 109.31 92.5867 109.233C92.0911 109.164 91.6055 108.979 91.1298 108.678C90.6541 108.378 90.2247 107.949 89.8417 107.391L89.6621 107.13C89.2551 106.538 88.9902 105.956 88.8674 105.386C88.7446 104.816 88.7335 104.278 88.834 103.772C88.9405 103.274 89.1427 102.813 89.4405 102.389C89.7444 101.974 90.1178 101.613 90.5608 101.307ZM91.279 102.352C91.0184 102.532 90.7878 102.756 90.587 103.023C90.3922 103.299 90.2608 103.602 90.1927 103.931C90.1305 104.27 90.1464 104.637 90.2402 105.035C90.3254 105.439 90.5236 105.867 90.8348 106.32L91.0144 106.581C91.3017 106.999 91.6122 107.311 91.946 107.517C92.2711 107.729 92.5994 107.862 92.9309 107.916C93.2624 107.969 93.5883 107.95 93.9088 107.857C94.2292 107.764 94.5198 107.627 94.7804 107.447C95.041 107.267 95.2716 107.044 95.4724 106.777C95.6731 106.51 95.8076 106.211 95.8757 105.882C95.9438 105.552 95.9413 105.194 95.8681 104.808C95.7862 104.428 95.6016 104.029 95.3143 103.611L95.1348 103.349C94.8236 102.896 94.4994 102.555 94.1623 102.326C93.8166 102.102 93.4749 101.959 93.1375 101.897C92.806 101.843 92.4771 101.859 92.1506 101.943C91.8302 102.036 91.5396 102.172 91.279 102.352Z" fill="white"/>
<path d="M82.6407 105.839C83.1507 105.609 83.6702 105.491 84.1993 105.484C84.7188 105.482 85.2243 105.591 85.7158 105.81C86.202 106.043 86.6624 106.386 87.0971 106.84C87.5221 107.297 87.8882 107.869 88.1953 108.554L88.3251 108.843C88.7144 109.711 88.9979 110.511 89.1757 111.243C89.3577 111.984 89.4056 112.658 89.3193 113.266C89.2277 113.887 88.9971 114.443 88.6276 114.934C88.2484 115.43 87.6922 115.866 86.959 116.243C86.3659 116.545 85.8475 116.808 85.404 117.031C84.9647 117.264 84.6232 117.534 84.3792 117.841L83.8277 116.611C83.9427 116.455 84.1962 116.259 84.5883 116.024C84.9708 115.794 85.5137 115.509 86.217 115.169C86.6745 114.951 87.0574 114.708 87.3658 114.442C87.6646 114.18 87.8872 113.876 88.0335 113.532C88.1702 113.192 88.2264 112.802 88.202 112.36C88.1723 111.933 88.0556 111.441 87.8519 110.883C87.8502 111.498 87.6759 112.064 87.3289 112.58C86.982 113.096 86.491 113.497 85.856 113.783C85.3653 114.004 84.879 114.119 84.397 114.128C83.9194 114.146 83.467 114.066 83.04 113.887C82.6033 113.713 82.2015 113.436 81.8346 113.056C81.4721 112.686 81.1654 112.221 80.9145 111.662L80.7847 111.372C80.5165 110.774 80.3656 110.193 80.3322 109.628C80.303 109.073 80.3693 108.55 80.5311 108.06C80.6972 107.579 80.9604 107.147 81.3208 106.765C81.6812 106.382 82.1212 106.073 82.6407 105.839ZM83.1598 106.997C82.4864 107.3 82.0369 107.781 81.8116 108.439C81.5906 109.107 81.6813 109.89 82.0836 110.787L82.2133 111.076C82.382 111.453 82.5912 111.764 82.8407 112.011C83.0903 112.258 83.3637 112.442 83.6609 112.563C83.9624 112.694 84.2835 112.752 84.624 112.738C84.9549 112.728 85.2888 112.647 85.6255 112.495C85.9623 112.344 86.249 112.145 86.4857 111.899C86.7128 111.657 86.8777 111.38 86.9802 111.067C87.0871 110.764 87.1312 110.437 87.1126 110.086C87.094 109.734 87.0003 109.371 86.8316 108.995L86.7018 108.705C86.5115 108.281 86.2807 107.921 86.0095 107.626C85.733 107.344 85.4349 107.131 85.1151 106.985C84.7996 106.849 84.4742 106.781 84.139 106.781C83.8037 106.782 83.4773 106.854 83.1598 106.997Z" fill="white"/>
<path d="M79.468 116.347L78.116 116.681L77.2785 113.277L73.069 114.318L73.9066 117.722L72.5546 118.056L70.546 109.892L71.898 109.558L72.7734 113.116L76.9829 112.075L76.1075 108.517L77.4594 108.183L79.468 116.347Z" fill="white"/>
<path d="M65.0376 110.288C65.5746 110.255 66.0904 110.308 66.5852 110.447C67.0799 110.585 67.5223 110.818 67.9123 111.143C68.3029 111.479 68.6254 111.91 68.8797 112.434C69.134 112.959 69.2836 113.586 69.3285 114.314L69.348 114.631C69.391 115.327 69.3228 115.936 69.1434 116.456C68.9647 116.986 68.7121 117.431 68.3855 117.79C68.0489 118.161 67.6543 118.445 67.2014 118.642C66.738 118.841 66.2484 118.956 65.7324 118.988C64.5005 119.064 63.5269 118.785 62.8114 118.151C62.0959 117.518 61.7 116.583 61.6239 115.348L61.5692 114.461L67.9182 114.068C67.8876 113.571 67.7829 113.159 67.6041 112.831C67.4254 112.503 67.2031 112.242 66.9374 112.046C66.6717 111.851 66.3833 111.715 66.0721 111.639C65.7504 111.563 65.4316 111.535 65.1157 111.555C64.484 111.594 64.0061 111.73 63.6822 111.962C63.3478 112.194 63.1183 112.5 62.9936 112.879L61.6354 112.963C61.6949 112.556 61.8258 112.193 62.028 111.873C62.2197 111.554 62.467 111.279 62.7698 111.049C63.0628 110.829 63.4061 110.654 63.7997 110.524C64.1827 110.394 64.5954 110.316 65.0376 110.288ZM65.5754 117.726C65.9018 117.706 66.2147 117.638 66.5142 117.525C66.8143 117.421 67.0793 117.262 67.3091 117.046C67.529 116.842 67.7036 116.587 67.8327 116.282C67.9619 115.978 68.0138 115.619 67.9885 115.208L62.9504 115.52C62.9876 115.952 63.0837 116.312 63.2388 116.599C63.384 116.897 63.5727 117.129 63.8049 117.295C64.0377 117.471 64.3094 117.592 64.62 117.658C64.92 117.724 65.2384 117.747 65.5754 117.726Z" fill="white"/>
<path d="M55.7109 110.062C56.2451 110.126 56.743 110.272 57.2047 110.498C57.6663 110.724 58.0597 111.032 58.3848 111.423C58.7086 111.824 58.9485 112.305 59.1043 112.867C59.2601 113.429 59.2947 114.073 59.2079 114.797L59.1702 115.112C59.0872 115.806 58.9108 116.392 58.641 116.87C58.3699 117.36 58.0414 117.752 57.6555 118.046C57.2579 118.35 56.8186 118.558 56.3377 118.67C55.8462 118.782 55.3439 118.807 54.8307 118.745C53.6053 118.597 52.6976 118.147 52.1078 117.394C51.5179 116.642 51.2965 115.651 51.4436 114.422L51.5493 113.54L57.865 114.3C57.9241 113.807 57.8952 113.382 57.7783 113.027C57.6614 112.672 57.4899 112.375 57.2637 112.135C57.0374 111.894 56.7781 111.709 56.4857 111.578C56.1828 111.445 55.8742 111.36 55.56 111.322C54.9316 111.247 54.4372 111.294 54.0769 111.463C53.7061 111.632 53.4254 111.891 53.2348 112.241L51.8836 112.078C52.0152 111.689 52.2092 111.356 52.4656 111.078C52.7116 110.798 53.0042 110.573 53.3436 110.4C53.6712 110.237 54.0403 110.127 54.4509 110.07C54.851 110.012 55.271 110.009 55.7109 110.062ZM54.903 117.475C55.2277 117.514 55.5476 117.505 55.8626 117.447C56.1764 117.399 56.4657 117.29 56.7305 117.12C56.9836 116.959 57.201 116.74 57.3829 116.463C57.5647 116.187 57.6801 115.844 57.7292 115.434L52.7175 114.831C52.6764 115.263 52.7063 115.634 52.8073 115.945C52.8965 116.264 53.0404 116.527 53.239 116.732C53.4363 116.947 53.6818 117.115 53.9755 117.236C54.2587 117.355 54.5679 117.435 54.903 117.475Z" fill="white"/>
<path d="M22.5503 104.391L17.6093 99.4731L23.5178 93.5057L24.506 94.4893L19.467 99.5785L22.4316 102.529L27.4706 97.4402L28.4588 98.4239L22.5503 104.391Z" fill="white"/>
<path d="M20.2 88.9073C20.5085 89.3492 20.7327 89.818 20.8726 90.3137C21.0039 90.8154 21.0328 91.3179 20.9593 91.8214C20.8772 92.3309 20.6792 92.8312 20.3654 93.3225C20.0517 93.8138 19.601 94.2656 19.0132 94.678L18.754 94.8599C18.2008 95.2481 17.649 95.4997 17.0985 95.6149C16.548 95.7301 16.0286 95.7331 15.5403 95.6238C15.0434 95.5207 14.5867 95.3183 14.1702 95.0167C13.745 94.7212 13.3782 94.3524 13.0697 93.9105C12.7613 93.4686 12.5414 92.9967 12.4101 92.495C12.2701 91.9994 12.2369 91.4998 12.3104 90.9964C12.3753 90.499 12.5559 90.0108 12.8524 89.5317C13.1489 89.0525 13.5737 88.6189 14.1268 88.2308L14.3861 88.0488C14.9738 87.6364 15.5516 87.3666 16.1194 87.2393C16.6872 87.1119 17.2238 87.0968 17.7294 87.1939C18.2263 87.2971 18.6873 87.4964 19.1125 87.792C19.529 88.0936 19.8915 88.4653 20.2 88.9073ZM19.1629 89.635C18.9814 89.375 18.7567 89.1454 18.4889 88.9461C18.2123 88.7528 17.9094 88.6232 17.5802 88.5574C17.2423 88.4975 16.8754 88.5161 16.4796 88.6131C16.0777 88.7015 15.6521 88.9033 15.2027 89.2187L14.9434 89.4006C14.5285 89.6917 14.2195 90.0053 14.0164 90.3415C13.8072 90.669 13.6771 90.9991 13.6261 91.3319C13.5751 91.6646 13.5971 91.9913 13.6921 92.3119C13.7872 92.6325 13.9254 92.9228 14.1069 93.1828C14.2883 93.4427 14.513 93.6724 14.7809 93.8717C15.0487 94.071 15.3473 94.2036 15.6766 94.2695C16.0058 94.3354 16.3628 94.3302 16.7473 94.254C17.1259 94.1692 17.5226 93.9812 17.9374 93.6901L18.1967 93.5081C18.6461 93.1928 18.9841 92.8653 19.2105 92.5256C19.4309 92.1773 19.571 91.8338 19.6306 91.495C19.6817 91.1623 19.664 90.8326 19.5776 90.5059C19.4826 90.1853 19.3443 89.895 19.1629 89.635Z" fill="white"/>
<path d="M16.2051 85.6299L15.7763 84.6925C15.5841 84.6529 15.3196 84.6581 14.9828 84.7083C14.646 84.7584 14.2608 84.8424 13.8273 84.9603C13.3938 85.0782 12.9355 85.2307 12.4524 85.4179C11.9554 85.5999 11.4576 85.8055 10.959 86.0348L8.9453 86.9607L6.5048 81.6248L13.006 78.6355L12.5113 77.5539L15.4311 76.2114L15.9852 77.4228L14.1873 78.2495L16.7729 83.9026L18.5708 83.076L19.1249 84.2873L16.2051 85.6299ZM13.5865 79.9046L8.20714 82.378L9.49994 85.2046L10.6794 84.6623C11.0821 84.4771 11.4914 84.3064 11.9074 84.15C12.3137 83.9981 12.7122 83.8672 13.103 83.7574C13.4842 83.6519 13.8575 83.5675 14.2231 83.5041C14.5748 83.4355 14.8946 83.399 15.1827 83.3946L13.5865 79.9046Z" fill="white"/>
<path d="M5.13037 77.9561L4.81004 76.6954L6.34342 76.3037C5.73131 76.1654 5.21964 75.8868 4.8084 75.4679C4.38434 75.0414 4.08897 74.5002 3.9223 73.8442C3.66187 72.8193 3.79087 71.9131 4.3093 71.1258C4.81751 70.3411 5.73097 69.7804 7.04967 69.4435L7.35634 69.3652C8.05148 69.1876 8.68055 69.1143 9.24357 69.1451C9.79636 69.1785 10.2843 69.2995 10.7074 69.5079C11.1203 69.719 11.467 70.0124 11.7475 70.3883C12.0255 70.7539 12.2283 71.1878 12.3559 71.69C12.533 72.387 12.5281 73.0104 12.3412 73.5602C12.1517 74.0997 11.8569 74.5461 11.4568 74.8994L15.9803 73.7439L16.324 75.0969L5.13037 77.9561ZM11.238 72.303C11.1546 71.975 11.0152 71.6832 10.8196 71.4275C10.6138 71.1745 10.3621 70.9768 10.0647 70.8345C9.76469 70.6819 9.41635 70.5963 9.01969 70.5775C8.62043 70.5485 8.18057 70.5954 7.70011 70.7181L7.39343 70.7965C6.95387 70.9087 6.57592 71.0708 6.25961 71.2825C5.94069 71.4841 5.69102 71.7225 5.51059 71.9978C5.31734 72.2654 5.19583 72.5584 5.14608 72.8767C5.09633 73.1951 5.11312 73.5182 5.19646 73.8462C5.29022 74.2152 5.43749 74.5377 5.63829 74.8139C5.82887 75.0927 6.05883 75.3122 6.3282 75.4727C6.58734 75.6357 6.87565 75.7421 7.19313 75.792C7.51061 75.8419 7.83291 75.825 8.16003 75.7415L9.38673 75.4281C9.75474 75.3341 10.0765 75.1865 10.3519 74.9852C10.6273 74.7838 10.845 74.5481 11.005 74.278C11.165 74.008 11.2672 73.7035 11.3118 73.3647C11.3563 73.0259 11.3317 72.672 11.238 72.303Z" fill="white"/>
<path d="M11.0545 63.4796C11.0918 64.0177 11.0431 64.5353 10.9084 65.0324C10.7632 65.5303 10.5297 65.976 10.2081 66.3695C9.87587 66.7637 9.44911 67.0903 8.92778 67.3494C8.40645 67.6084 7.78798 67.7628 7.07237 67.8127L6.75667 67.8347C6.08315 67.8817 5.48089 67.8124 4.94986 67.6268C4.41883 67.4411 3.97213 67.1754 3.60976 66.8296C3.23686 66.4845 2.94939 66.0752 2.74734 65.6015C2.53477 65.1287 2.40982 64.6232 2.37249 64.085C2.33516 63.5469 2.38912 63.0289 2.53435 62.5311C2.66906 62.034 2.89724 61.5887 3.2189 61.1951C3.53004 60.8024 3.93575 60.4772 4.43604 60.2197C4.93632 59.9621 5.52322 59.8099 6.19673 59.7629L6.51244 59.7409C7.22804 59.691 7.86189 59.7581 8.41396 59.9423C8.96603 60.1264 9.43378 60.3907 9.8172 60.735C10.1901 61.0801 10.4828 61.4891 10.6954 61.962C10.8974 62.4356 11.0171 62.9415 11.0545 63.4796ZM9.79163 63.5677C9.76968 63.2511 9.6951 62.9382 9.56791 62.629C9.43019 62.3206 9.23715 62.0531 8.9888 61.8265C8.72992 61.6007 8.40593 61.4272 8.01684 61.3059C7.62701 61.174 7.15848 61.1272 6.61125 61.1653L6.29554 61.1873C5.79041 61.2226 5.36443 61.3318 5.01761 61.515C4.67005 61.6877 4.38893 61.9034 4.17425 62.1623C3.95956 62.4211 3.81058 62.7124 3.72731 63.0363C3.64403 63.3602 3.61337 63.6804 3.63533 63.997C3.65728 64.3135 3.73186 64.6264 3.85905 64.9356C3.98625 65.2448 4.17402 65.5127 4.42238 65.7392C4.67073 65.9657 4.9793 66.1457 5.34808 66.279C5.71613 66.4018 6.15272 66.4455 6.65785 66.4103L6.97356 66.3883C7.52079 66.3501 7.9787 66.244 8.34731 66.0698C8.71518 65.8851 9.01172 65.663 9.23692 65.4035C9.45161 65.1446 9.60585 64.8529 9.69965 64.5283C9.78293 64.2044 9.81359 63.8842 9.79163 63.5677Z" fill="white"/>
<path d="M11.187 54.1791C11.1247 54.7362 10.9616 55.2446 10.6978 55.7045C10.4352 56.1539 10.0847 56.5349 9.64629 56.8474C9.19862 57.1483 8.66948 57.3708 8.05889 57.5149C7.44947 57.6486 6.77261 57.6735 6.0283 57.5897L5.71381 57.5543C4.77032 57.4481 3.93931 57.2854 3.22079 57.0662C2.49178 56.8458 1.88868 56.5437 1.41148 56.1601C0.924981 55.7647 0.564973 55.2825 0.331459 54.7134C0.0991224 54.1338 0.00788192 53.4317 0.0577377 52.6072C0.100425 51.9414 0.13894 51.3604 0.173282 50.864C0.197141 50.3665 0.139381 49.9342 0 49.5673L1.33661 49.7178C1.41213 49.8965 1.45079 50.2149 1.45261 50.6727C1.4556 51.1201 1.42404 51.7339 1.35792 52.514C1.31192 53.0197 1.32481 53.4735 1.39658 53.8754C1.46953 54.2668 1.61651 54.6133 1.83751 54.9149C2.05968 55.206 2.36637 55.4533 2.75756 55.657C3.13945 55.849 3.62157 55.9991 4.20392 56.1072C3.67655 55.7924 3.2798 55.3539 3.01366 54.7918C2.74752 54.2297 2.65328 53.6018 2.73095 52.908C2.79097 52.372 2.94003 51.8938 3.17816 51.4736C3.40579 51.0522 3.705 50.7027 4.07576 50.4252C4.4477 50.1371 4.89003 49.9314 5.40275 49.8082C5.90498 49.6838 6.46011 49.6558 7.06813 49.7242L7.38263 49.7596C8.03258 49.8328 8.60846 49.9987 9.11026 50.2574C9.60158 50.5149 10.0165 50.8384 10.3551 51.2277C10.6832 51.6159 10.9197 52.0629 11.0648 52.5688C11.2098 53.0747 11.2506 53.6115 11.187 54.1791ZM9.92904 54.0375C10.0114 53.3017 9.82749 52.669 9.37725 52.1394C8.91653 51.6086 8.1987 51.2883 7.22376 51.1786L6.90927 51.1432C6.50042 51.0972 6.12645 51.119 5.78735 51.2085C5.44825 51.2981 5.15103 51.4402 4.89569 51.635C4.62986 51.8286 4.4164 52.076 4.2553 52.3771C4.09537 52.6678 3.99482 52.9971 3.95363 53.365C3.91244 53.7328 3.9371 54.0815 4.02759 54.411C4.11926 54.73 4.2733 55.0134 4.4897 55.2613C4.69562 55.508 4.954 55.7127 5.26486 55.8754C5.57572 56.0381 5.93557 56.1424 6.34441 56.1884L6.65891 56.2238C7.12017 56.2758 7.54656 56.2599 7.93807 56.1762C8.32028 56.0809 8.65537 55.9323 8.94334 55.7306C9.22083 55.5277 9.44477 55.2815 9.61518 54.992C9.78559 54.7025 9.89021 54.3843 9.92904 54.0375Z" fill="white"/>
<path d="M3.79982 45.9466L4.20458 44.6107L7.55058 45.6299L8.81085 41.4705L5.46485 40.4513L5.86961 39.1154L13.894 41.5596L13.4892 42.8955L9.9918 41.8302L8.73153 45.9896L12.2289 47.0549L11.8242 48.3908L3.79982 45.9466Z" fill="white"/>
<path d="M16.299 36.7227C16.0532 37.2025 15.7443 37.6201 15.3725 37.9756C15.0006 38.331 14.5755 38.5937 14.0972 38.7635C13.6094 38.9285 13.0757 38.9865 12.4959 38.9376C11.9161 38.8887 11.3025 38.6976 10.655 38.3641L10.3735 38.2191C9.75423 37.9002 9.26757 37.5306 8.91356 37.1105C8.55017 36.6855 8.29786 36.2405 8.15665 35.7754C8.01087 35.296 7.96895 34.8107 8.03089 34.3194C8.09766 33.8187 8.24913 33.3378 8.4853 32.8768C9.04924 31.7761 9.78571 31.0792 10.6947 30.7864C11.6038 30.4936 12.6072 30.6299 13.7051 31.1953L14.4933 31.6012L11.5869 37.2744C12.0279 37.5016 12.4347 37.6219 12.8073 37.6354C13.1798 37.6489 13.5178 37.5911 13.8211 37.462C14.1245 37.3328 14.3883 37.1536 14.6125 36.9242C14.8415 36.6855 15.0284 36.425 15.173 36.1427C15.4622 35.5782 15.59 35.0971 15.5566 34.6994C15.528 34.2923 15.3832 33.9383 15.1223 33.6374L15.7441 32.4238C16.0621 32.6827 16.3065 32.981 16.4774 33.3187C16.6532 33.647 16.7626 34.0006 16.8056 34.3795C16.8441 34.7442 16.8187 35.1294 16.7294 35.5353C16.6449 35.9317 16.5014 36.3275 16.299 36.7227ZM9.64747 33.3862C9.49805 33.6778 9.39568 33.9818 9.34035 34.2982C9.27564 34.6097 9.277 34.9195 9.34443 35.2277C9.4073 35.5217 9.53636 35.8022 9.73162 36.0692C9.92687 36.3363 10.2075 36.564 10.5734 36.7525L12.8798 32.2506C12.4902 32.0619 12.1328 31.961 11.8074 31.948C11.4774 31.9208 11.1821 31.9649 10.9213 32.0803C10.6512 32.1909 10.4087 32.3632 10.1939 32.5974C9.98384 32.8222 9.80171 33.0851 9.64747 33.3862Z" fill="white"/>
<path d="M21.1069 28.9757C20.7794 29.4037 20.401 29.7592 19.9717 30.0422C19.5424 30.3252 19.0773 30.5073 18.5764 30.5885C18.0671 30.6633 17.5316 30.6247 16.9699 30.4725C16.4082 30.3204 15.8386 30.0222 15.2611 29.578L15.01 29.3848C14.4576 28.9599 14.0448 28.509 13.7715 28.0321C13.4898 27.5488 13.321 27.0657 13.2651 26.5827C13.2072 26.085 13.2526 25.5999 13.4012 25.1277C13.5563 24.6471 13.7911 24.2011 14.1058 23.79C14.8571 22.8081 15.706 22.2547 16.6526 22.1297C17.5992 22.0047 18.5622 22.3188 19.5414 23.0721L20.2444 23.6129L16.3724 28.6731C16.7657 28.9757 17.1445 29.1671 17.5086 29.2472C17.8728 29.3274 18.2156 29.3311 18.5371 29.2585C18.8586 29.1859 19.1501 29.0568 19.4117 28.8714C19.6796 28.6776 19.9099 28.4548 20.1026 28.2031C20.4878 27.6996 20.6995 27.2492 20.7376 26.8519C20.7821 26.4462 20.7029 26.072 20.4998 25.7291L21.3282 24.6466C21.5949 24.9584 21.7821 25.2958 21.89 25.6587C22.0043 26.0132 22.0488 26.3808 22.0236 26.7613C21.9964 27.127 21.9026 27.5015 21.7423 27.8847C21.5884 28.2596 21.3766 28.6232 21.1069 28.9757ZM15.1583 24.4996C14.9592 24.7598 14.8042 25.0405 14.6933 25.3418C14.5741 25.6366 14.5201 25.9417 14.5314 26.2571C14.5408 26.5576 14.6177 26.8567 14.7622 27.1545C14.9066 27.4522 15.142 27.7267 15.4685 27.9777L18.5411 23.9624C18.1915 23.7068 17.8578 23.5434 17.54 23.4722C17.2202 23.3862 16.9218 23.3766 16.6446 23.4434C16.3591 23.5037 16.0898 23.6298 15.8366 23.8216C15.5899 24.0051 15.3637 24.2311 15.1583 24.4996Z" fill="white"/>
<path d="M47.1865 1.79414L54.0401 0.564982L55.5167 8.84225L54.146 9.08809L52.8867 2.02898L48.7745 2.76647L50.0339 9.82558L48.6631 10.0714L47.1865 1.79414Z" fill="white"/>
<path d="M61.6214 8.72584C61.0834 8.72167 60.5725 8.6331 60.0885 8.46012C59.6047 8.27656 59.1795 8.00884 58.813 7.65695C58.4465 7.29449 58.1546 6.8427 57.9373 6.30158C57.7199 5.76046 57.614 5.13029 57.6195 4.41108L57.622 4.09378C57.6272 3.41688 57.7425 2.82016 57.9681 2.30362C58.1936 1.78708 58.4922 1.36102 58.864 1.02542C59.2359 0.679255 59.6651 0.423436 60.1517 0.257967C60.6383 0.0819207 61.1506 -0.00402014 61.6886 0.000144356C62.2266 0.00430885 62.7375 0.0981704 63.2214 0.281729C63.7053 0.45471 64.1305 0.717144 64.497 1.06903C64.8636 1.41034 65.1557 1.84098 65.3732 2.36095C65.5908 2.88091 65.6969 3.47935 65.6917 4.15625L65.6893 4.47355C65.6837 5.19276 65.5681 5.82121 65.3425 6.3589C65.1168 6.89659 64.818 7.34381 64.446 7.70056C64.0741 8.04673 63.6448 8.30783 63.1582 8.48388C62.6717 8.64935 62.1594 8.73 61.6214 8.72584ZM61.6312 7.45665C61.9477 7.4591 62.2645 7.40866 62.5818 7.30535C62.8992 7.19145 63.18 7.0191 63.4245 6.7883C63.6689 6.54691 63.8665 6.23641 64.0171 5.8568C64.1783 5.47727 64.261 5.01251 64.2652 4.46253L64.2677 4.14523C64.2716 3.63755 64.1958 3.2033 64.0403 2.84247C63.8954 2.48172 63.7025 2.18407 63.4617 1.9495C63.2209 1.71494 62.9426 1.54355 62.627 1.43533C62.3114 1.32712 61.9953 1.27179 61.6788 1.26934C61.3624 1.26689 61.0455 1.31732 60.7282 1.42064C60.411 1.52395 60.1301 1.69101 59.8857 1.92182C59.6413 2.15263 59.4386 2.44722 59.2776 2.8056C59.1271 3.16406 59.0499 3.59713 59.046 4.10481L59.0436 4.4221C59.0394 4.97209 59.1096 5.43803 59.2544 5.81993C59.4097 6.20191 59.6077 6.51547 59.8484 6.76061C60.0893 6.99518 60.3675 7.17185 60.683 7.29065C60.9987 7.39886 61.3147 7.4542 61.6312 7.45665Z" fill="white"/>
<path d="M66.3878 7.31218L67.3989 7.50152C67.542 7.36692 67.6903 7.14721 67.8436 6.84237C67.997 6.53754 68.1507 6.17358 68.3046 5.7505C68.4585 5.32741 68.5985 4.86405 68.7245 4.36042C68.8628 3.84833 68.9823 3.32196 69.0831 2.78131L69.4898 0.597921L75.245 1.6757L73.9318 8.72494L75.0984 8.94341L74.5086 12.1093L73.202 11.8646L73.5652 9.91519L67.4678 8.77332L67.1047 10.7228L65.7981 10.4781L66.3878 7.31218ZM72.563 8.46861L73.6496 2.63583L70.6009 2.06489L70.3626 3.34374C70.2813 3.78042 70.1844 4.21418 70.0719 4.64504C69.9614 5.06549 69.8382 5.46744 69.7024 5.85088C69.5686 6.22392 69.422 6.57845 69.2628 6.91448C69.116 7.24205 68.9613 7.52511 68.7988 7.76368L72.563 8.46861Z" fill="white"/>
<path d="M79.1464 2.66677L80.3578 3.13293L79.7908 4.61412C80.2571 4.1931 80.7795 3.9353 81.3581 3.84073C81.9502 3.74007 82.5615 3.81102 83.1918 4.05358C84.1767 4.43257 84.8398 5.06162 85.1813 5.94074C85.5265 6.80999 85.4553 7.88152 84.9677 9.15534L84.8543 9.45158C84.5972 10.1231 84.2935 10.6803 83.9432 11.1232C83.5966 11.5563 83.2163 11.8858 82.8021 12.1116C82.3918 12.3276 81.9526 12.4418 81.4845 12.4543C81.0263 12.4705 80.5559 12.3858 80.0734 12.2001C79.4037 11.9424 78.899 11.5783 78.5594 11.1077C78.2296 10.6409 78.0365 10.1417 77.98 9.61021L76.3074 13.9797L75.0074 13.4795L79.1464 2.66677ZM80.2202 10.9311C80.5353 11.0524 80.8534 11.1068 81.1746 11.0944C81.4995 11.0722 81.8058 10.9805 82.0935 10.8193C82.391 10.6619 82.662 10.4263 82.9064 10.1125C83.1606 9.80247 83.3766 9.41541 83.5542 8.95131L83.6676 8.65507C83.8302 8.23046 83.9166 7.82755 83.927 7.44634C83.9471 7.06891 83.8973 6.72685 83.7774 6.42014C83.6712 6.10735 83.5028 5.83865 83.2724 5.61404C83.042 5.38943 82.7692 5.21648 82.4541 5.0952C82.0995 4.95877 81.7519 4.89295 81.411 4.89774C81.074 4.89267 80.7624 4.95402 80.4762 5.0818C80.1938 5.1997 79.9406 5.37416 79.7165 5.60517C79.4925 5.83617 79.32 6.10967 79.1991 6.42566L78.7455 7.61061C78.6094 7.9661 78.5438 8.3147 78.5485 8.65641C78.5533 8.99813 78.6194 9.31247 78.7469 9.59942C78.8743 9.88638 79.0631 10.146 79.3132 10.3781C79.5633 10.6103 79.8656 10.7947 80.2202 10.9311Z" fill="white"/>
<path d="M87.6525 15.9335C87.1934 15.6523 86.8008 15.3127 86.4746 14.9147C86.154 14.5077 85.9268 14.0587 85.7932 13.5679C85.665 13.068 85.6467 12.53 85.738 11.9539C85.8294 11.3778 86.062 10.7828 86.4359 10.169L86.6009 9.89824C86.9528 9.32055 87.358 8.86844 87.8165 8.54192C88.2749 8.21539 88.7497 8.00419 89.2408 7.9083C89.7373 7.80338 90.2366 7.80551 90.7387 7.91469C91.2463 8.01484 91.7297 8.20549 92.1888 8.48666C92.648 8.76783 93.0379 9.11193 93.3585 9.51899C93.6847 9.91701 93.9146 10.3614 94.0482 10.8523C94.1873 11.3341 94.2167 11.854 94.1364 12.4121C94.056 12.9702 93.8398 13.538 93.4879 14.1157L93.323 14.3865C92.9491 15.0003 92.5274 15.4795 92.0579 15.8241C91.5884 16.1687 91.1027 16.3979 90.6006 16.5119C90.1041 16.6168 89.602 16.6192 89.0944 16.519C88.5923 16.4098 88.1117 16.2147 87.6525 15.9335ZM88.3124 14.8503C88.5825 15.0157 88.88 15.136 89.2051 15.2111C89.5357 15.2772 89.865 15.2744 90.193 15.2026C90.5265 15.1218 90.8553 14.9575 91.1793 14.7097C91.5122 14.4675 91.8217 14.1116 92.1076 13.6423L92.2726 13.3715C92.5365 12.9382 92.6944 12.5268 92.7463 12.1372C92.8073 11.7531 92.7947 11.3984 92.7086 11.073C92.6225 10.7476 92.4719 10.4571 92.2568 10.2014C92.0417 9.94575 91.7991 9.73523 91.529 9.56984C91.2589 9.40445 90.9614 9.28419 90.6363 9.20906C90.3112 9.13393 89.9847 9.13226 89.6567 9.20404C89.3286 9.27582 89.0036 9.42382 88.6816 9.64802C88.3686 9.87774 88.0802 10.2092 87.8163 10.6425L87.6513 10.9133C87.3654 11.3827 87.1865 11.8184 87.1145 12.2206C87.0516 12.6282 87.0605 12.9992 87.1411 13.3337C87.2272 13.659 87.375 13.9541 87.5846 14.2188C87.7997 14.4744 88.0423 14.6849 88.3124 14.8503Z" fill="white"/>
<path d="M94.9952 21.2989C94.5776 20.9262 94.2576 20.4992 94.0354 20.0177C93.8211 19.5432 93.7132 19.0364 93.7118 18.497C93.7252 17.9569 93.8495 17.3952 94.0847 16.8121C94.3277 16.2361 94.6982 15.6675 95.1961 15.1066L95.4065 14.8695C96.0377 14.1585 96.65 13.5721 97.2433 13.1104C97.8437 12.6409 98.4379 12.3215 99.0258 12.1523C99.6286 11.9823 100.229 11.966 100.827 12.1034C101.434 12.2478 102.058 12.5785 102.701 13.0953C103.218 13.5146 103.669 13.8816 104.054 14.1963C104.445 14.5031 104.83 14.7053 105.21 14.8031L104.315 15.8105C104.126 15.7691 103.845 15.6169 103.471 15.3541C103.105 15.0982 102.623 14.7181 102.026 14.2135C101.641 13.8839 101.264 13.6324 100.895 13.4592C100.534 13.2929 100.167 13.2132 99.7939 13.22C99.4286 13.2339 99.05 13.3421 98.6583 13.5448C98.2815 13.7466 97.881 14.0546 97.4567 14.469C98.0175 14.219 98.6036 14.1473 99.2151 14.2539C99.8265 14.3606 100.392 14.646 100.912 15.1101C101.314 15.4687 101.618 15.8668 101.822 16.3043C102.034 16.734 102.146 17.1807 102.158 17.6445C102.178 18.1153 102.09 18.5961 101.894 19.087C101.706 19.57 101.408 20.0406 101.001 20.4989L100.791 20.7359C100.356 21.2258 99.8882 21.6014 99.3878 21.8629C98.8945 22.1164 98.3915 22.2694 97.879 22.3218C97.3735 22.3663 96.8729 22.3019 96.3771 22.1285C95.8814 21.9552 95.4208 21.6786 94.9952 21.2989ZM95.8368 20.3508C96.3884 20.843 97.0098 21.0577 97.7011 20.9949C98.3993 20.9242 99.0746 20.5214 99.7268 19.7866L99.9372 19.5496C100.211 19.2415 100.409 18.9227 100.532 18.5934C100.655 18.2641 100.71 17.9387 100.699 17.6172C100.695 17.2878 100.617 16.9703 100.465 16.6645C100.32 16.3658 100.11 16.0934 99.8343 15.8472C99.5585 15.6011 99.2603 15.42 98.9398 15.3039C98.6271 15.1948 98.3074 15.1572 97.9806 15.1913C97.6608 15.2174 97.3449 15.3108 97.033 15.4713C96.721 15.6319 96.4282 15.8662 96.1547 16.1744L95.9443 16.4114C95.6357 16.7591 95.4025 17.1173 95.2446 17.4861C95.1016 17.854 95.0291 18.2141 95.0271 18.5664C95.0322 18.9107 95.1034 19.2362 95.2407 19.5428C95.3781 19.8494 95.5768 20.1188 95.8368 20.3508Z" fill="white"/>
<path d="M105.832 19.8357L106.692 20.934L103.941 23.0986L106.618 26.5184L109.369 24.3538L110.228 25.4521L103.631 30.6433L102.771 29.5449L105.647 27.2824L102.97 23.8626L100.095 26.1251L99.2349 25.0268L105.832 19.8357Z" fill="white"/>
<path d="M106.294 35.5114C106.042 35.0344 105.878 34.5412 105.801 34.0319C105.724 33.5226 105.753 33.0228 105.889 32.5325C106.033 32.0373 106.292 31.5656 106.664 31.1173C107.037 30.6691 107.545 30.2747 108.189 29.9341L108.468 29.786C109.084 29.4601 109.665 29.2723 110.212 29.2224C110.767 29.1676 111.275 29.2155 111.737 29.3662C112.212 29.5213 112.632 29.7652 112.998 30.0978C113.369 30.4397 113.675 30.8399 113.916 31.2982C114.493 32.3926 114.64 33.3972 114.358 34.3118C114.076 35.2264 113.389 35.9725 112.297 36.5501L111.514 36.9648L108.545 31.3243C108.106 31.5563 107.775 31.8215 107.55 32.1198C107.325 32.4181 107.179 32.7288 107.11 33.0521C107.042 33.3753 107.037 33.6948 107.096 34.0105C107.16 34.3355 107.265 34.6384 107.413 34.919C107.709 35.4802 108.028 35.8612 108.372 36.0618C108.722 36.2717 109.094 36.3558 109.489 36.3139L110.124 37.5206C109.731 37.6334 109.347 37.6631 108.973 37.6098C108.604 37.5659 108.252 37.453 107.918 37.2712C107.598 37.0937 107.297 36.8519 107.017 36.5458C106.742 36.2491 106.5 35.9043 106.294 35.5114ZM112.834 31.9608C112.681 31.6708 112.492 31.4124 112.265 31.1856C112.047 30.9538 111.793 30.7772 111.503 30.6559C111.227 30.539 110.923 30.4841 110.593 30.4914C110.263 30.4987 109.916 30.5986 109.552 30.7911L111.908 35.2671C112.286 35.0553 112.573 34.8195 112.771 34.5597C112.982 34.3042 113.115 34.0364 113.171 33.756C113.235 33.4707 113.233 33.1727 113.165 32.8619C113.102 32.5605 112.991 32.2601 112.834 31.9608Z" fill="white"/>
<path d="M109.917 44.0653C109.757 43.5504 109.685 43.0355 109.702 42.5206C109.718 42.0058 109.838 41.5197 110.06 41.0623C110.292 40.6018 110.632 40.1852 111.08 39.8125C111.527 39.4397 112.099 39.1447 112.794 38.9272L113.096 38.8327C113.76 38.6248 114.366 38.5461 114.912 38.5968C115.468 38.6444 115.959 38.7843 116.385 39.0167C116.824 39.256 117.194 39.5726 117.493 39.9664C117.796 40.3703 118.024 40.8197 118.178 41.3144C118.546 42.4957 118.508 43.5103 118.064 44.3582C117.621 45.206 116.81 45.8143 115.632 46.1829L114.786 46.4476L112.891 40.3593C112.418 40.5074 112.044 40.7075 111.769 40.9598C111.493 41.2121 111.293 41.4909 111.167 41.7962C111.041 42.1016 110.978 42.4148 110.979 42.736C110.982 43.0672 111.031 43.3843 111.126 43.6872C111.314 44.293 111.559 44.726 111.861 44.986C112.166 45.2562 112.517 45.4068 112.914 45.4379L113.319 46.7404C112.911 46.7794 112.528 46.7385 112.17 46.6178C111.815 46.5073 111.49 46.3321 111.194 46.0922C110.912 45.8592 110.661 45.5667 110.441 45.2145C110.224 44.8725 110.049 44.4894 109.917 44.0653ZM116.993 41.7683C116.896 41.4553 116.756 41.1665 116.574 40.9021C116.403 40.6345 116.185 40.4145 115.921 40.2422C115.671 40.0767 115.383 39.9675 115.057 39.9143C114.731 39.8612 114.371 39.8961 113.979 40.019L115.482 44.8502C115.892 44.711 116.218 44.5316 116.459 44.3121C116.713 44.0996 116.893 43.8605 116.998 43.5949C117.113 43.3262 117.166 43.0328 117.155 42.7148C117.148 42.4068 117.094 42.0913 116.993 41.7683Z" fill="white"/>
</svg>
