<svg width="119" height="101" viewBox="0 0 119 101" fill="none" xmlns="http://www.w3.org/2000/svg">
  <g clip-path="url(#clip0_359_37085)">
    <path d="M116.38 23.237C112.749 15.7785 105.708 10.4839 96.1319 7.84139C95.7413 5.10312 94.1214 2.57549 91.5202 1.12976C87.1276 -1.30213 81.6011 0.306367 79.1809 4.72015C78.9523 5.13185 78.7617 5.56269 78.5997 5.99354C66.9179 6.41481 54.2928 9.73712 42.2203 15.6637C27.175 23.0551 14.75 33.6156 7.25116 45.4112C-0.419192 57.4941 -2.0676 69.4524 2.62036 79.0938C5.74567 85.5182 11.4055 90.3437 19.0378 93.2352C19.4475 95.9447 21.0578 98.4341 23.6304 99.8511C27.9944 102.273 33.4828 100.694 35.9221 96.3373C36.57 96.3564 37.2275 96.366 37.8944 96.366C50.2623 96.366 63.8402 92.9958 76.7703 86.648C91.8156 79.2566 104.241 68.6961 111.739 56.9005C119.419 44.8176 121.077 32.8592 116.389 23.2178L116.38 23.237ZM75.1218 83.297C62.4014 89.5395 49.0712 92.7852 37.0559 92.632C37.3418 89.1565 35.6267 85.6714 32.387 83.881C27.9945 81.4491 22.468 83.0576 20.0478 87.4714C19.7143 88.0746 19.4665 88.6969 19.2855 89.3193C13.0921 86.7342 8.5089 82.6938 5.9553 77.4566C1.85809 69.0312 3.43027 58.3749 10.3955 47.4314C17.5323 36.2102 29.4237 26.1284 43.8687 19.0338C55.2456 13.4424 67.1085 10.2637 78.0852 9.76584C78.2948 12.7435 79.9623 15.5679 82.7636 17.119C87.1562 19.5508 92.6827 17.9424 95.1029 13.5286C95.4364 12.9254 95.6936 12.2935 95.8747 11.652C104.031 14.0552 109.986 18.603 113.045 24.8742C121.658 42.5963 104.66 68.8014 75.1409 83.297H75.1218Z" fill="url(#paint0_linear_359_37085)"/>
  </g>
  <defs>
    <linearGradient id="paint0_linear_359_37085" x1="25.3037" y1="-143.576" x2="157.981" y2="-120.195" gradientUnits="userSpaceOnUse">
      <stop stop-color="#86FDD2">
        <animate attributeName="stop-color" 
                 values="#86FDD2;#86FDD2;#F4E987;#F4E987;#F86675;#F86675;#AD69F0;#AD69F0;#86FDD2" 
                 keyTimes="0;0.1;0.2;0.4;0.5;0.7;0.8;0.9;1" 
                 dur="6s" repeatCount="indefinite"/>
      </stop>
      <stop offset="0.333" stop-color="#F4E987">
        <animate attributeName="stop-color" 
                 values="#F4E987;#F4E987;#F86675;#F86675;#AD69F0;#AD69F0;#86FDD2;#86FDD2;#F4E987" 
                 keyTimes="0;0.1;0.2;0.4;0.5;0.7;0.8;0.9;1" 
                 dur="6s" repeatCount="indefinite"/>
      </stop>
      <stop offset="0.666" stop-color="#F86675">
        <animate attributeName="stop-color" 
                 values="#F86675;#F86675;#AD69F0;#AD69F0;#86FDD2;#86FDD2;#F4E987;#F4E987;#F86675" 
                 keyTimes="0;0.1;0.2;0.4;0.5;0.7;0.8;0.9;1" 
                 dur="6s" repeatCount="indefinite"/>
      </stop>
      <stop offset="1" stop-color="#AD69F0">
        <animate attributeName="stop-color" 
                 values="#AD69F0;#AD69F0;#86FDD2;#86FDD2;#F4E987;#F4E987;#F86675;#F86675;#AD69F0" 
                 keyTimes="0;0.1;0.2;0.4;0.5;0.7;0.8;0.9;1" 
                 dur="6s" repeatCount="indefinite"/>
      </stop>
    </linearGradient>
    <clipPath id="clip0_359_37085">
      <rect width="119" height="101" fill="white"/>
    </clipPath>
  </defs>
</svg>
