<svg width="119" height="135" viewBox="0 0 119 135" fill="none" xmlns="http://www.w3.org/2000/svg">
  <g clip-path="url(#clip0_359_37101)">
    <path d="M59.5057 76.5375C64.4633 76.5375 68.4822 72.4913 68.4822 67.5C68.4822 62.5087 64.4633 58.4625 59.5057 58.4625C54.5482 58.4625 50.5293 62.5087 50.5293 67.5C50.5293 72.4913 54.5482 76.5375 59.5057 76.5375Z" fill="url(#paint0_linear_359_37101)"/>
    <path d="M111.265 72.7788C110.086 71.0192 108.803 69.2492 107.407 67.5C108.803 65.7404 110.086 63.9808 111.265 62.2212C119.259 50.2267 121.12 39.4921 116.518 31.9956C111.523 23.8535 99.6202 20.9174 83.6839 23.8015C83.2289 22.6458 82.7635 21.5005 82.2671 20.3968C76.3414 7.24665 68.2543 0 59.5054 0C50.7565 0 42.6694 7.24665 36.7437 20.3968C36.2473 21.4901 35.7819 22.6354 35.3269 23.7911C34.1066 23.5724 32.8966 23.385 31.697 23.2288C17.4671 21.3859 7.09452 24.4991 2.49254 31.9956C-1.47861 38.4614 -0.682311 47.2177 4.78836 57.3172C6.59813 60.6594 8.90429 64.0745 11.6345 67.5C8.85258 70.988 6.50505 74.4864 4.68494 77.8806C-0.682311 87.8968 -1.44758 96.5907 2.49254 103.004C6.23617 109.085 13.7752 112.281 24.096 112.281C26.4849 112.281 29.0289 112.115 31.697 111.761C32.8863 111.605 34.0963 111.417 35.3269 111.199C35.7819 112.354 36.2473 113.5 36.7437 114.593C42.6694 127.743 50.7565 134.99 59.5054 134.99C68.2543 134.99 76.3414 127.743 82.2671 114.593C82.7635 113.489 83.2289 112.354 83.6839 111.188C87.6757 111.907 91.4194 112.271 94.8528 112.271C105.143 112.271 112.775 109.085 116.508 102.994C121.11 95.4975 119.248 84.7733 111.254 72.7684L111.265 72.7788ZM112.899 34.2446C116.518 40.1377 114.636 49.4667 107.728 59.8265C106.766 61.2633 105.722 62.7106 104.605 64.1474C100.448 59.3892 95.5456 54.7351 90.0646 50.3309C89.0925 42.2513 87.4482 34.6506 85.1731 27.8725C98.7308 25.5715 108.99 27.8829 112.888 34.2342L112.899 34.2446ZM32.1727 67.5C32.1727 53.2774 34.241 39.7941 38.0364 28.7159C49.3914 31.2876 61.8633 36.6185 73.8698 44.0942C78.1615 46.77 82.2361 49.6229 86.0418 52.5902C86.5589 57.4109 86.8277 62.3982 86.8277 67.4896C86.8277 72.581 86.5589 77.5683 86.0418 82.3889C82.2361 85.3667 78.1615 88.2092 73.8698 90.885C61.8633 98.3607 49.381 103.692 38.0364 106.263C34.2307 95.1851 32.1727 81.7018 32.1727 67.4792V67.5ZM28.3464 78.6094C24.1167 74.9653 20.3627 71.2274 17.1568 67.5104C20.3627 63.7934 24.1167 60.0451 28.3464 56.401C28.0671 60.0347 27.9224 63.7517 27.9224 67.5104C27.9224 71.2691 28.0671 74.9757 28.3464 78.6199V78.6094ZM90.6644 56.3801C94.8424 59.9722 98.6067 63.7101 101.875 67.5C98.6067 71.2899 94.8424 75.0278 90.6644 78.6199C90.9437 74.9757 91.0884 71.2587 91.0884 67.5C91.0884 63.7413 90.9437 60.0243 90.6644 56.3801ZM40.6114 22.1668C45.7305 10.7971 52.6179 4.27927 59.5054 4.27927C66.3929 4.27927 73.27 10.7971 78.3994 22.1668C81.5536 29.1636 83.8804 37.5243 85.2868 46.6555C82.3602 44.5106 79.2991 42.4283 76.1242 40.4604C63.9316 32.8598 51.2218 27.404 39.5566 24.6761C39.8979 23.8223 40.2598 22.9894 40.6218 22.1772L40.6114 22.1668ZM6.10173 34.2446C9.72127 28.3515 18.8528 25.8839 31.1489 27.4769C32.028 27.5914 32.9173 27.7267 33.8274 27.8829C31.5522 34.661 29.9079 42.2721 28.9358 50.3621C23.4652 54.7663 18.5633 59.4412 14.4163 64.1682C5.26407 52.4132 1.82034 41.2205 6.10173 34.2446ZM31.1489 107.523C18.8528 109.116 9.72127 106.649 6.10173 100.755C1.83068 93.8003 5.27441 82.6076 14.4163 70.8422C18.5633 75.5692 23.4652 80.2441 28.9255 84.6483C29.8976 92.7279 31.5419 100.339 33.817 107.117C32.9173 107.273 32.028 107.409 31.1386 107.523H31.1489ZM59.5054 130.721C52.6179 130.721 45.7408 124.203 40.6114 112.833C40.2495 112.021 39.8875 111.188 39.5462 110.334C51.2115 107.606 63.9212 102.14 76.1139 94.55C79.2888 92.5717 82.3498 90.4998 85.2765 88.3445C83.8701 97.4757 81.5432 105.826 78.389 112.833C73.27 124.203 66.3825 130.721 59.4951 130.721H59.5054ZM112.909 100.755C109.01 107.096 98.7515 109.418 85.1938 107.117C87.4689 100.339 89.1132 92.7383 90.0853 84.6587C95.5663 80.2545 100.468 75.6004 104.626 70.8422C105.742 72.279 106.787 73.7263 107.749 75.1631C114.657 85.5333 116.539 94.8519 112.919 100.745L112.909 100.755Z" fill="url(#paint1_linear_359_37101)"/>
  </g>
  <defs>
    <linearGradient id="paint0_linear_359_37101" x1="54.3463" y1="32.7668" x2="74.5386" y2="35.7663" gradientUnits="userSpaceOnUse">
      <stop offset="0" stop-color="#86FDD2">
        <animate attributeName="stop-color"
                 values="#86FDD2;#86FDD2;#F4E987;#F4E987;#F86675;#F86675;#AD69F0;#AD69F0;#86FDD2"
                 keyTimes="0;0.1;0.2;0.4;0.5;0.7;0.8;0.9;1"
                 dur="6s" repeatCount="indefinite"/>
      </stop>
      <stop offset="0.333" stop-color="#F4E987">
        <animate attributeName="stop-color"
                 values="#F4E987;#F4E987;#F86675;#F86675;#AD69F0;#AD69F0;#86FDD2;#86FDD2;#F4E987"
                 keyTimes="0;0.1;0.2;0.4;0.5;0.7;0.8;0.9;1"
                 dur="6s" repeatCount="indefinite"/>
      </stop>
      <stop offset="0.666" stop-color="#F86675">
        <animate attributeName="stop-color"
                 values="#F86675;#F86675;#AD69F0;#AD69F0;#86FDD2;#86FDD2;#F4E987;#F4E987;#F86675"
                 keyTimes="0;0.1;0.2;0.4;0.5;0.7;0.8;0.9;1"
                 dur="6s" repeatCount="indefinite"/>
      </stop>
      <stop offset="1" stop-color="#AD69F0">
        <animate attributeName="stop-color"
                 values="#AD69F0;#AD69F0;#86FDD2;#86FDD2;#F4E987;#F4E987;#F86675;#F86675;#AD69F0"
                 keyTimes="0;0.1;0.2;0.4;0.5;0.7;0.8;0.9;1"
                 dur="6s" repeatCount="indefinite"/>
      </stop>
    </linearGradient>

    <linearGradient id="paint1_linear_359_37101" x1="25.3026" y1="-191.904" x2="159.747" y2="-174.18" gradientUnits="userSpaceOnUse">
      <stop offset="0" stop-color="#86FDD2">
        <animate attributeName="stop-color"
                 values="#86FDD2;#86FDD2;#F4E987;#F4E987;#F86675;#F86675;#AD69F0;#AD69F0;#86FDD2"
                 keyTimes="0;0.1;0.2;0.4;0.5;0.7;0.8;0.9;1"
                 dur="6s" repeatCount="indefinite"/>
      </stop>
      <stop offset="0.333" stop-color="#F4E987">
        <animate attributeName="stop-color"
                 values="#F4E987;#F4E987;#F86675;#F86675;#AD69F0;#AD69F0;#86FDD2;#86FDD2;#F4E987"
                 keyTimes="0;0.1;0.2;0.4;0.5;0.7;0.8;0.9;1"
                 dur="6s" repeatCount="indefinite"/>
      </stop>
      <stop offset="0.666" stop-color="#F86675">
        <animate attributeName="stop-color"
                 values="#F86675;#F86675;#AD69F0;#AD69F0;#86FDD2;#86FDD2;#F4E987;#F4E987;#F86675"
                 keyTimes="0;0.1;0.2;0.4;0.5;0.7;0.8;0.9;1"
                 dur="6s" repeatCount="indefinite"/>
      </stop>
      <stop offset="1" stop-color="#AD69F0">
        <animate attributeName="stop-color"
                 values="#AD69F0;#AD69F0;#86FDD2;#86FDD2;#F4E987;#F4E987;#F86675;#F86675;#AD69F0"
                 keyTimes="0;0.1;0.2;0.4;0.5;0.7;0.8;0.9;1"
                 dur="6s" repeatCount="indefinite"/>
      </stop>
    </linearGradient>

    <clipPath id="clip0_359_37101">
      <rect width="119" height="135" fill="white"/>
    </clipPath>
  </defs>
</svg>
