<svg width="104" height="145" viewBox="0 0 104 145" fill="none" xmlns="http://www.w3.org/2000/svg">
  <defs>
    <!-- Градиент для обводки -->
    <linearGradient id="gradient-stroke-2" x1="0%" y1="0%" x2="100%" y2="0%">
      <stop offset="0%" stop-color="#FF5001">
        <animate attributeName="stop-color" 
                 values="#FF5001;#FFB801;#FF69B4;#8A2BE2;#C71585;#32CD32;#FF5001" 
                 dur="10s" repeatCount="indefinite"/>
      </stop>
      <stop offset="100%" stop-color="#FFB801">
        <animate attributeName="stop-color" 
                 values="#FFB801;#FF69B4;#8A2BE2;#C71585;#32CD32;#FF5001;#FFB801" 
                 dur="10s" repeatCount="indefinite"/>
      </stop>
    </linearGradient>
  </defs>

  <path d="M54 0.599976C61.6448 0.599976 68.4377 1.73929 74.3701 4.02966C80.2931 6.18347 85.2229 9.28557 89.1465 13.3402H89.1475C93.2009 17.2585 96.2399 21.9858 98.2646 27.514L98.6562 28.5326C100.554 33.6563 101.5 39.2472 101.5 45.3002C101.5 50.1518 100.691 54.7401 99.0723 59.0619C97.5898 63.3745 95.4344 67.4816 92.6104 71.3832L92.6113 71.3842C89.9248 75.2795 86.6373 79.1018 82.7529 82.8529C79.0061 86.5997 74.8596 90.2775 70.3145 93.8871L70.3154 93.8881L35.8057 122H103.5V143.8H0.5V124.272L0.672852 124.122L52.8711 78.9232L54.4375 77.5443C58.0194 74.3701 61.0887 71.5044 63.6465 68.9467L63.6543 68.9388C66.7068 66.019 69.1522 63.3069 70.9971 60.8031L71 60.8002L71.3633 60.307C73.1432 57.8489 74.3924 55.4632 75.123 53.1498L75.127 53.1381L75.1309 53.1273C76.043 50.6514 76.5 48.0433 76.5 45.3002C76.5 38.6097 74.4702 33.208 70.4404 29.0482L70.4355 29.0424C66.5512 24.899 61.0961 22.8002 54 22.8002C45.8231 22.8002 39.4414 24.9641 34.793 29.2386L34.3486 29.6586C29.8157 34.062 27.5 40.9069 27.5 50.3002V50.8002H2.5V50.3002C2.5 42.9119 3.70923 36.181 6.13574 30.1146C8.55879 23.9236 11.9945 18.6645 16.4463 14.3461C20.8997 9.89268 26.2943 6.52252 32.6211 4.23279C38.9538 1.80751 46.0826 0.599976 54 0.599976Z" 
        stroke="url(#gradient-stroke-2)" stroke-width="2" fill="none"/>
</svg>
