<svg width="102" height="147" viewBox="0 0 102 147" fill="none" xmlns="http://www.w3.org/2000/svg">
  <defs>
    <!-- Градиент для обводки -->
    <linearGradient id="gradient-stroke-3" x1="0%" y1="0%" x2="100%" y2="0%">
      <stop offset="0%" stop-color="#FF5001">
        <animate attributeName="stop-color" 
                 values="#FF5001;#FFB801;#FF69B4;#8A2BE2;#C71585;#32CD32;#FF5001" 
                 dur="10s" repeatCount="indefinite"/>
      </stop>
      <stop offset="100%" stop-color="#FFB801">
        <animate attributeName="stop-color" 
                 values="#FFB801;#FF69B4;#8A2BE2;#C71585;#32CD32;#FF5001;#FFB801" 
                 dur="10s" repeatCount="indefinite"/>
      </stop>
    </linearGradient>
  </defs>

  <path d="M51 0.5C58.9078 0.5 65.8964 1.50488 71.958 3.52539C78.0046 5.54093 83.0632 8.3014 87.1201 11.8154L87.8691 12.457C91.5535 15.6978 94.3522 19.4785 96.2578 23.7979H96.2568C98.4194 28.3972 99.4999 33.333 99.5 38.5996C99.5 46.6931 97.3396 53.5397 92.9941 59.1074L92.9902 59.1123C88.9446 64.1693 83.4905 67.858 76.6514 70.1914C84.1488 72.6626 90.0714 76.6249 94.3926 82.0898H94.3916C99.1487 87.8039 101.5 95.5261 101.5 105.2C101.5 110.865 100.42 116.2 98.2588 121.198C96.0936 126.205 92.8459 130.535 88.5225 134.183L88.5215 134.182C84.3312 137.83 79.0733 140.724 72.7607 142.873L72.752 142.876C66.4261 144.895 59.1732 145.9 51 145.9C42.8268 145.9 35.5739 144.895 29.248 142.876L29.2354 142.872C23.0503 140.721 17.7921 137.758 13.4707 133.977L13.4648 133.971C9.28023 130.191 6.03828 125.735 3.74316 120.604L3.74023 120.597L3.7373 120.59C1.5766 115.323 0.500022 109.524 0.5 103.2V102.7H25.5V103.2C25.5 109.753 27.5263 114.805 31.5312 118.425C35.6677 121.91 42.1243 123.7 51 123.7C59.6105 123.7 65.9388 121.909 70.0771 118.418C74.3466 114.795 76.5 109.745 76.5 103.2C76.5 96.5035 74.5339 91.3118 70.6523 87.5596L70.6465 87.5537C66.7855 83.6927 60.2826 81.7002 51 81.7002H36.5V60.7002H51C58.9429 60.7002 64.8067 59.0429 68.6797 55.8154C72.5423 52.4639 74.4999 47.6843 74.5 41.4004C74.5 35.105 72.6025 30.4647 68.8809 27.3848L68.875 27.3799C65.2775 24.2963 59.358 22.7002 51 22.7002C42.7901 22.7002 36.7966 24.3561 32.9258 27.5781C29.189 30.7995 27.2998 35.3176 27.2998 41.2002V41.7002H2.2998V41.2002C2.2998 28.9424 6.41466 19.0679 14.665 11.6289L14.668 11.626C23.0584 4.18289 35.1957 0.500001 51 0.5Z" 
        stroke="url(#gradient-stroke-3)" stroke-width="2" fill="none"/>
</svg>
