<svg width="28" height="80" viewBox="0 0 28 80" fill="none" xmlns="http://www.w3.org/2000/svg">
<path d="M28 39.1111C28 32.6519 27.2708 26.9926 25.8125 22.1333C24.3542 17.2741 22.7208 13.1852 20.9125 9.86667C18.8125 6.01481 16.4208 2.72593 13.7375 0H0C2.85833 2.72593 5.425 6.01481 7.7 9.86667C9.625 13.1852 11.4042 17.2741 13.0375 22.1333C14.6125 26.9926 15.4 32.6519 15.4 39.1111V40.8889C15.4 47.3482 14.6125 53.0074 13.0375 57.8667C11.4042 62.7259 9.625 66.8148 7.7 70.1333C5.425 73.9852 2.85833 77.2741 0 80H13.9125C16.5958 77.2741 18.9583 73.9852 21 70.1333C22.75 66.8148 24.3542 62.7259 25.8125 57.8667C27.2708 53.0074 28 47.3482 28 40.8889V39.1111Z" fill="white"/>
</svg>
