<svg width="28" height="80" viewBox="0 0 28 80" fill="none" xmlns="http://www.w3.org/2000/svg">
<path d="M0 39.1111C0 32.6519 0.729167 26.9926 2.1875 22.1333C3.64583 17.2741 5.27917 13.1852 7.0875 9.86667C9.1875 6.01481 11.5792 2.72593 14.2625 0H28C25.1417 2.72593 22.575 6.01481 20.3 9.86667C18.375 13.1852 16.5958 17.2741 14.9625 22.1333C13.3875 26.9926 12.6 32.6519 12.6 39.1111V40.8889C12.6 47.3482 13.3875 53.0074 14.9625 57.8667C16.5958 62.7259 18.375 66.8148 20.3 70.1333C22.575 73.9852 25.1417 77.2741 28 80H14.0875C11.4042 77.2741 9.04167 73.9852 7 70.1333C5.25 66.8148 3.64583 62.7259 2.1875 57.8667C0.729167 53.0074 0 47.3482 0 40.8889V39.1111Z" fill="white"/>
</svg>
