<svg width="62" height="62" viewBox="0 0 62 62" fill="none" xmlns="http://www.w3.org/2000/svg">
<g filter="url(#filter0_f_608_1293)">
<path d="M17.9005 36.3591C16.7743 36.3608 15.662 36.6082 14.6412 37.0842C13.6205 37.5601 12.7159 38.253 11.9906 39.1146C11.2653 39.9762 10.7368 40.9857 10.4419 42.0726C10.147 43.1596 10.0929 44.2978 10.2833 45.4078C10.4737 46.5178 10.904 47.5729 11.5443 48.4994C12.1845 49.426 13.0193 50.2016 13.9902 50.7723C14.9612 51.3429 16.045 51.6948 17.166 51.8034C18.2869 51.9119 19.4181 51.7745 20.4805 51.4008" stroke="#F74E1B" stroke-width="1.5" stroke-linecap="round" stroke-linejoin="round"/>
<path d="M10.8435 40.5004C9.29952 39.757 7.96492 38.6409 6.96017 37.2528C5.95541 35.8647 5.31212 34.2482 5.08836 32.5493C4.8646 30.8503 5.06742 29.1224 5.67849 27.5215C6.28957 25.9205 7.28968 24.4969 8.58856 23.3792M8.66596 23.1702C7.81982 21.904 7.44896 20.3793 7.61903 18.866C7.78911 17.3527 8.48915 15.9483 9.59523 14.9015C10.7013 13.8548 12.1421 13.2331 13.6625 13.1466C15.1829 13.0602 16.6849 13.5144 17.9025 14.429M18.5166 14.5967C18.105 13.7222 17.8952 12.7664 17.9027 11.7998C17.9102 10.8333 18.1349 9.88088 18.56 9.01287C18.9851 8.14486 19.5999 7.38349 20.3589 6.78504C21.1179 6.18658 22.0016 5.76635 22.9449 5.5554C23.8881 5.34445 24.8667 5.34818 25.8083 5.5663C26.7499 5.78443 27.6304 6.21138 28.3848 6.81559C29.1392 7.41981 29.7482 8.18584 30.1667 9.05706C30.5852 9.92829 30.8026 10.8824 30.8028 11.849M30.8028 11.849V51.8397M30.8028 11.849C30.8029 10.8824 31.0203 9.92829 31.4388 9.05706C31.8573 8.18584 32.4663 7.41981 33.2207 6.81559C33.9751 6.21138 34.8556 5.78443 35.7972 5.5663C36.7388 5.34818 37.7174 5.34445 38.6606 5.5554C39.6039 5.76635 40.4876 6.18658 41.2466 6.78504C42.0056 7.38349 42.6204 8.14486 43.0455 9.01287C43.4706 9.88088 43.6953 10.8333 43.7028 11.7998C43.7103 12.7664 43.5005 13.7222 43.0889 14.5967M30.8028 51.8397C30.8028 53.2082 30.2591 54.5207 29.2914 55.4884C28.3237 56.4561 27.0112 56.9998 25.6427 56.9998C24.2741 56.9998 22.9616 56.4561 21.9939 55.4884C21.0262 54.5207 20.4826 53.2082 20.4826 51.8397M30.8028 51.8397C30.8028 53.2082 31.3464 54.5207 32.3141 55.4884C33.2818 56.4561 34.5943 56.9998 35.9628 56.9998M30.8028 18.2991C30.8028 20.3519 31.6182 22.3206 33.0698 23.7722C34.5213 25.2237 36.4901 26.0392 38.5429 26.0392M53.0169 23.3792C54.1434 24.3469 55.0471 25.5468 55.6662 26.8966C56.2852 28.2465 56.6049 29.7143 56.6032 31.1993C56.6032 33.0131 56.1362 34.7185 55.3132 36.1994M52.9395 23.1702C53.7857 21.904 54.1565 20.3793 53.9865 18.866C53.8164 17.3527 53.1164 15.9483 52.0103 14.9015C50.9042 13.8548 49.4634 13.2331 47.943 13.1466C46.4226 13.0602 44.9206 13.5144 43.703 14.429M52.7331 53.1297L56.6032 56.9998M41.1229 47.9696C41.1229 49.6803 41.8025 51.3209 43.0121 52.5305C44.2218 53.7401 45.8624 54.4197 47.573 54.4197C49.2837 54.4197 50.9243 53.7401 52.134 52.5305C53.3436 51.3209 54.0232 49.6803 54.0232 47.9696C54.0232 46.2589 53.3436 44.6183 52.134 43.4087C50.9243 42.199 49.2837 41.5195 47.573 41.5195C45.8624 41.5195 44.2218 42.199 43.0121 43.4087C41.8025 44.6183 41.1229 46.2589 41.1229 47.9696Z" stroke="#F74E1B" stroke-width="1.5" stroke-linecap="round" stroke-linejoin="round"/>
</g>
<path d="M17.9005 36.3591C16.7743 36.3608 15.662 36.6082 14.6412 37.0842C13.6205 37.5601 12.7159 38.253 11.9906 39.1146C11.2653 39.9762 10.7368 40.9857 10.4419 42.0726C10.147 43.1596 10.0929 44.2978 10.2833 45.4078C10.4737 46.5178 10.904 47.5729 11.5443 48.4994C12.1845 49.426 13.0193 50.2016 13.9902 50.7723C14.9612 51.3429 16.045 51.6948 17.166 51.8034C18.2869 51.9119 19.4181 51.7745 20.4805 51.4008" stroke="#F74E1B" stroke-width="1.5" stroke-linecap="round" stroke-linejoin="round"/>
<path d="M10.8435 40.5004C9.29952 39.757 7.96492 38.6409 6.96017 37.2528C5.95541 35.8647 5.31212 34.2482 5.08836 32.5493C4.8646 30.8503 5.06742 29.1224 5.67849 27.5215C6.28957 25.9205 7.28968 24.4969 8.58856 23.3792M8.66596 23.1702C7.81982 21.904 7.44896 20.3793 7.61903 18.866C7.78911 17.3527 8.48915 15.9483 9.59523 14.9015C10.7013 13.8548 12.1421 13.2331 13.6625 13.1466C15.1829 13.0602 16.6849 13.5144 17.9025 14.429M18.5166 14.5967C18.105 13.7222 17.8952 12.7664 17.9027 11.7998C17.9102 10.8333 18.1349 9.88088 18.56 9.01287C18.9851 8.14486 19.5999 7.38349 20.3589 6.78504C21.1179 6.18658 22.0016 5.76635 22.9449 5.5554C23.8881 5.34445 24.8667 5.34818 25.8083 5.5663C26.7499 5.78443 27.6304 6.21138 28.3848 6.81559C29.1392 7.41981 29.7482 8.18584 30.1667 9.05706C30.5852 9.92829 30.8026 10.8824 30.8028 11.849M30.8028 11.849V51.8397M30.8028 11.849C30.8029 10.8824 31.0203 9.92829 31.4388 9.05706C31.8573 8.18584 32.4663 7.41981 33.2207 6.81559C33.9751 6.21138 34.8556 5.78443 35.7972 5.5663C36.7388 5.34818 37.7174 5.34445 38.6606 5.5554C39.6039 5.76635 40.4876 6.18658 41.2466 6.78504C42.0056 7.38349 42.6204 8.14486 43.0455 9.01287C43.4706 9.88088 43.6953 10.8333 43.7028 11.7998C43.7103 12.7664 43.5005 13.7222 43.0889 14.5967M30.8028 51.8397C30.8028 53.2082 30.2591 54.5207 29.2914 55.4884C28.3237 56.4561 27.0112 56.9998 25.6427 56.9998C24.2741 56.9998 22.9616 56.4561 21.9939 55.4884C21.0262 54.5207 20.4826 53.2082 20.4826 51.8397M30.8028 51.8397C30.8028 53.2082 31.3464 54.5207 32.3141 55.4884C33.2818 56.4561 34.5943 56.9998 35.9628 56.9998M30.8028 18.2991C30.8028 20.3519 31.6182 22.3206 33.0698 23.7722C34.5213 25.2237 36.4901 26.0392 38.5429 26.0392M53.0169 23.3792C54.1434 24.3469 55.0471 25.5468 55.6662 26.8966C56.2852 28.2465 56.6049 29.7143 56.6032 31.1993C56.6032 33.0131 56.1362 34.7185 55.3132 36.1994M52.9395 23.1702C53.7857 21.904 54.1565 20.3793 53.9865 18.866C53.8164 17.3527 53.1164 15.9483 52.0103 14.9015C50.9042 13.8548 49.4634 13.2331 47.943 13.1466C46.4226 13.0602 44.9206 13.5144 43.703 14.429M52.7331 53.1297L56.6032 56.9998M41.1229 47.9696C41.1229 49.6803 41.8025 51.3209 43.0121 52.5305C44.2218 53.7401 45.8624 54.4197 47.573 54.4197C49.2837 54.4197 50.9243 53.7401 52.134 52.5305C53.3436 51.3209 54.0232 49.6803 54.0232 47.9696C54.0232 46.2589 53.3436 44.6183 52.134 43.4087C50.9243 42.199 49.2837 41.5195 47.573 41.5195C45.8624 41.5195 44.2218 42.199 43.0121 43.4087C41.8025 44.6183 41.1229 46.2589 41.1229 47.9696Z" stroke="#F74E1B" stroke-width="1.5" stroke-linecap="round" stroke-linejoin="round"/>
<defs>
<filter id="filter0_f_608_1293" x="0.25" y="0.649902" width="61.1016" height="61.0999" filterUnits="userSpaceOnUse" color-interpolation-filters="sRGB">
<feFlood flood-opacity="0" result="BackgroundImageFix"/>
<feBlend mode="normal" in="SourceGraphic" in2="BackgroundImageFix" result="shape"/>
<feGaussianBlur stdDeviation="2" result="effect1_foregroundBlur_608_1293"/>
</filter>
</defs>
</svg>
