<svg width="62" height="65" viewBox="0 0 62 65" fill="none" xmlns="http://www.w3.org/2000/svg">
<g filter="url(#filter0_f_608_1302)">
<path d="M29.9077 5.40847C30.2111 5.1449 30.5995 4.99976 31.0014 4.99976C31.4033 4.99976 31.7917 5.1449 32.095 5.40847L37.5091 10.1111C37.6778 10.2577 37.8742 10.3689 38.0866 10.4381C38.2991 10.5074 38.5233 10.5332 38.7459 10.5141L45.8943 9.8915C46.2945 9.85713 46.6937 9.96837 47.0185 10.2048C47.3432 10.4412 47.5717 10.7869 47.662 11.1783L49.2795 18.1655C49.3295 18.3838 49.4229 18.5899 49.5542 18.7714C49.6855 18.9528 49.852 19.106 50.0438 19.2216L56.1917 22.9181C56.5357 23.1253 56.7934 23.4496 56.9175 23.8315C57.0415 24.2134 57.0236 24.6273 56.867 24.997L54.0655 31.6007C53.9783 31.8064 53.9334 32.0276 53.9334 32.251C53.9334 32.4745 53.9783 32.6956 54.0655 32.9014L56.867 39.505C57.0244 39.8751 57.0427 40.2896 56.9186 40.6722C56.7945 41.0547 56.5363 41.3795 56.1917 41.5867L50.0438 45.2832C49.8523 45.3986 49.686 45.5513 49.5547 45.7323C49.4234 45.9132 49.3298 46.1187 49.2795 46.3366L47.662 53.3238C47.5717 53.7152 47.3432 54.0609 47.0185 54.2973C46.6937 54.5337 46.2945 54.645 45.8943 54.6106L38.7459 53.988C38.5235 53.9685 38.2994 53.9939 38.0869 54.0626C37.8745 54.1314 37.678 54.2421 37.5091 54.3882L32.0923 59.0936C31.7889 59.3572 31.4005 59.5023 30.9986 59.5023C30.5967 59.5023 30.2083 59.3572 29.905 59.0936L24.4909 54.3882C24.322 54.2421 24.1255 54.1314 23.9131 54.0626C23.7006 53.9939 23.4765 53.9685 23.2541 53.988L16.1057 54.6106C15.7055 54.645 15.3063 54.5337 14.9815 54.2973C14.6568 54.0609 14.4283 53.7152 14.338 53.3238L12.7205 46.3366C12.6705 46.1182 12.5771 45.9122 12.4458 45.7307C12.3145 45.5493 12.148 45.3961 11.9562 45.2804L5.80834 41.584C5.46432 41.3768 5.2066 41.0525 5.08253 40.6706C4.95846 40.2887 4.97637 39.8748 5.13297 39.505L7.93451 32.9014C8.02166 32.6956 8.06656 32.4745 8.06656 32.251C8.06656 32.0276 8.02166 31.8064 7.93451 31.6007L5.13297 24.997C4.9756 24.6269 4.95728 24.2124 5.08139 23.8299C5.2055 23.4474 5.46367 23.1226 5.80834 22.9153L11.9562 19.2189C12.1477 19.1035 12.314 18.9508 12.4453 18.7698C12.5766 18.5889 12.6702 18.3833 12.7205 18.1655L14.338 11.1783C14.4283 10.7869 14.6568 10.4412 14.9815 10.2048C15.3063 9.96837 15.7055 9.85713 16.1057 9.8915L23.2541 10.5141C23.4767 10.5332 23.7009 10.5074 23.9134 10.4381C24.1258 10.3689 24.3222 10.2577 24.4909 10.1111L29.9077 5.40847Z" stroke="#FF5001" stroke-width="1.5"/>
<path d="M22.6562 35.0306L28.2149 40.5892L42.1114 26.6926" stroke="#FF5001" stroke-width="1.5" stroke-linecap="round" stroke-linejoin="round"/>
</g>
<path d="M29.9077 5.40847C30.2111 5.1449 30.5995 4.99976 31.0014 4.99976C31.4033 4.99976 31.7917 5.1449 32.095 5.40847L37.5091 10.1111C37.6778 10.2577 37.8742 10.3689 38.0866 10.4381C38.2991 10.5074 38.5233 10.5332 38.7459 10.5141L45.8943 9.8915C46.2945 9.85713 46.6937 9.96837 47.0185 10.2048C47.3432 10.4412 47.5717 10.7869 47.662 11.1783L49.2795 18.1655C49.3295 18.3838 49.4229 18.5899 49.5542 18.7714C49.6855 18.9528 49.852 19.106 50.0438 19.2216L56.1917 22.9181C56.5357 23.1253 56.7934 23.4496 56.9175 23.8315C57.0415 24.2134 57.0236 24.6273 56.867 24.997L54.0655 31.6007C53.9783 31.8064 53.9334 32.0276 53.9334 32.251C53.9334 32.4745 53.9783 32.6956 54.0655 32.9014L56.867 39.505C57.0244 39.8751 57.0427 40.2896 56.9186 40.6722C56.7945 41.0547 56.5363 41.3795 56.1917 41.5867L50.0438 45.2832C49.8523 45.3986 49.686 45.5513 49.5547 45.7323C49.4234 45.9132 49.3298 46.1187 49.2795 46.3366L47.662 53.3238C47.5717 53.7152 47.3432 54.0609 47.0185 54.2973C46.6937 54.5337 46.2945 54.645 45.8943 54.6106L38.7459 53.988C38.5235 53.9685 38.2994 53.9939 38.0869 54.0626C37.8745 54.1314 37.678 54.2421 37.5091 54.3882L32.0923 59.0936C31.7889 59.3572 31.4005 59.5023 30.9986 59.5023C30.5967 59.5023 30.2083 59.3572 29.905 59.0936L24.4909 54.3882C24.322 54.2421 24.1255 54.1314 23.9131 54.0626C23.7006 53.9939 23.4765 53.9685 23.2541 53.988L16.1057 54.6106C15.7055 54.645 15.3063 54.5337 14.9815 54.2973C14.6568 54.0609 14.4283 53.7152 14.338 53.3238L12.7205 46.3366C12.6705 46.1182 12.5771 45.9122 12.4458 45.7307C12.3145 45.5493 12.148 45.3961 11.9562 45.2804L5.80834 41.584C5.46432 41.3768 5.2066 41.0525 5.08253 40.6706C4.95846 40.2887 4.97637 39.8748 5.13297 39.505L7.93451 32.9014C8.02166 32.6956 8.06656 32.4745 8.06656 32.251C8.06656 32.0276 8.02166 31.8064 7.93451 31.6007L5.13297 24.997C4.9756 24.6269 4.95728 24.2124 5.08139 23.8299C5.2055 23.4474 5.46367 23.1226 5.80834 22.9153L11.9562 19.2189C12.1477 19.1035 12.314 18.9508 12.4453 18.7698C12.5766 18.5889 12.6702 18.3833 12.7205 18.1655L14.338 11.1783C14.4283 10.7869 14.6568 10.4412 14.9815 10.2048C15.3063 9.96837 15.7055 9.85713 16.1057 9.8915L23.2541 10.5141C23.4767 10.5332 23.7009 10.5074 23.9134 10.4381C24.1258 10.3689 24.3222 10.2577 24.4909 10.1111L29.9077 5.40847Z" stroke="#FF5001" stroke-width="1.5"/>
<path d="M22.6562 35.0306L28.2149 40.5892L42.1114 26.6926" stroke="#FF5001" stroke-width="1.5" stroke-linecap="round" stroke-linejoin="round"/>
<defs>
<filter id="filter0_f_608_1302" x="0.25" y="0.249756" width="61.5" height="64.0027" filterUnits="userSpaceOnUse" color-interpolation-filters="sRGB">
<feFlood flood-opacity="0" result="BackgroundImageFix"/>
<feBlend mode="normal" in="SourceGraphic" in2="BackgroundImageFix" result="shape"/>
<feGaussianBlur stdDeviation="2" result="effect1_foregroundBlur_608_1302"/>
</filter>
</defs>
</svg>
