<svg width="24" height="22" viewBox="0 0 24 22" fill="none" xmlns="http://www.w3.org/2000/svg">
<g clip-path="url(#clip0_501_2359)">
<path d="M18 10.1405C17.2163 10.1405 16.4681 10.2912 15.7801 10.5611C17.1543 9.47463 18.0355 7.8047 18.0355 5.92975C18.0372 2.65472 15.3493 0 12.0355 0C8.72163 0 6.03546 2.65472 6.03546 5.92975C6.03546 7.83974 6.95036 9.53596 8.36879 10.6206C7.64184 10.3122 6.8422 10.1405 6 10.1405C2.68617 10.1405 0 12.7952 0 16.0702C0 19.3453 2.68617 22 6 22C9.31383 22 12 19.3453 12 16.0702C12 14.1603 11.0851 12.464 9.66667 11.3794C10.3936 11.6878 11.1933 11.8595 12.0355 11.8595C12.8191 11.8595 13.5674 11.7088 14.2553 11.4389C12.8812 12.5254 12 14.1953 12 16.0702C12 19.3453 14.6862 22 18 22C21.3138 22 24 19.3453 24 16.0702C24 12.7952 21.3138 10.1405 18 10.1405Z" fill="white"/>
</g>
<defs>
<clipPath id="clip0_501_2359">
<rect width="24" height="22" fill="white"/>
</clipPath>
</defs>
</svg>
