<svg width="45" height="34" viewBox="0 0 45 34" fill="none" xmlns="http://www.w3.org/2000/svg">
<path d="M21.4647 31.1934C21.3598 31.1863 21.256 31.1739 21.1523 31.1733C20.0387 31.1703 18.9251 31.165 17.8115 31.1733C17.6901 31.1794 17.5748 31.2285 17.4861 31.3119C16.8665 31.9322 16.251 32.5561 15.6503 33.1948C15.5598 33.298 15.447 33.3791 15.3205 33.4316C15.194 33.4842 15.0571 33.507 14.9205 33.4981C11.3936 33.4346 7.86655 33.3781 4.33928 33.3287C4.20546 33.3287 4.07105 33.3832 3.93664 33.4134C3.89493 33.4293 3.85165 33.4406 3.80753 33.4472C3.02584 33.4318 2.24414 33.4762 1.47305 33.2487C0.54515 32.975 0.0305017 32.2705 0.021659 31.2936C0.00161543 29.1162 -0.00133218 26.9389 0.000436366 24.7609C0.00397347 19.0447 0.0112443 13.3287 0.0222486 7.61295C0.0251962 5.99076 0.0293227 4.36797 0.0552614 2.74637C0.0652832 2.09465 0.236833 1.48499 0.772703 1.04004C1.0934 0.772838 1.46126 0.594503 1.86743 0.566064C2.55953 0.517481 3.25457 0.518073 3.94843 0.501484C4.01579 0.495524 4.08352 0.507585 4.14474 0.536441C4.53382 0.77343 4.96358 0.733142 5.38803 0.733735C17.3312 0.737289 29.2745 0.741633 41.2177 0.746768C41.9044 0.746768 42.5918 0.746769 43.2768 0.784687C43.7101 0.808979 44.1022 1.00153 44.4323 1.28592C44.845 1.63666 45 2.12072 45 2.63261C45 8.16237 44.9927 13.6907 44.9782 19.2177C44.9735 21.8086 44.9747 24.4001 44.9552 26.9916C44.9505 27.6487 44.8013 28.269 44.2761 28.7424C43.818 29.1541 43.2739 29.3088 42.6844 29.3076C40.0386 29.3028 37.3929 29.2803 34.7477 29.2637C33.35 29.2548 31.9522 29.246 30.5551 29.23C30.4779 29.2265 30.4008 29.2402 30.3295 29.2701C30.2582 29.3 30.1943 29.3454 30.1424 29.403C28.9457 30.611 27.7313 31.8025 26.5523 33.0283C26.2882 33.3026 26.0353 33.3915 25.6751 33.3838C24.45 33.3613 23.2239 33.3684 21.9982 33.3637C21.5655 33.3637 21.4588 33.2499 21.4606 32.8132C21.4665 32.2854 21.4647 31.7521 21.4647 31.1934Z" fill="url(#paint0_linear_492_5035)"/>
<defs>
<linearGradient id="paint0_linear_492_5035" x1="9.5675" y1="-46.4134" x2="59.2319" y2="-36.2848" gradientUnits="userSpaceOnUse">
<stop stop-color="#86FDD2"/>
<stop offset="0.333" stop-color="#F4E987"/>
<stop offset="0.666" stop-color="#F86675"/>
<stop offset="1" stop-color="#AD69F0"/>
</linearGradient>
</defs>
</svg>
