<svg width="24" height="24" viewBox="0 0 24 24" fill="none" xmlns="http://www.w3.org/2000/svg">
<g clip-path="url(#clip0_359_37175)">
<path d="M15.9754 18.8336L15.9678 18.8413V18.8336L15.3138 19.0408C15.1785 19.083 15.0393 19.106 14.8982 19.106H9.17897C9.03789 19.106 8.89681 19.0849 8.76336 19.0408L8.10946 18.8336V18.8413L8.10183 18.8336L3.51879 23.3171C3.26523 23.5665 3.43872 24 3.79331 24H7.32783C7.42887 24 7.52419 23.9598 7.59854 23.8907L9.37342 22.4653C9.44586 22.3962 9.54309 22.3578 9.64413 22.3578H14.4331C14.5341 22.3578 14.6313 22.3962 14.7038 22.4653L16.4787 23.8907C16.5511 23.9598 16.6483 23.9981 16.7494 23.9981H20.2839C20.6385 23.9981 20.8139 23.5646 20.5584 23.3171L15.9754 18.8336Z" fill="#F74E1B"/>
<path d="M8.10073 5.16643L8.10835 5.15875V5.16643L8.76226 4.95923C8.89761 4.91703 9.03678 4.89401 9.17786 4.89401H14.8971C15.0382 4.89401 15.1793 4.91511 15.3127 4.95923L15.9666 5.16643V5.15875L15.9743 5.16643L20.5592 0.682974C20.8128 0.433573 20.6374 0 20.2828 0H16.7483C16.6472 0 16.5519 0.0402878 16.4776 0.109353L14.7027 1.53477C14.6302 1.60384 14.533 1.64221 14.432 1.64221H9.64303C9.54199 1.64221 9.44476 1.60384 9.37231 1.53477L7.59743 0.109353C7.52499 0.0402878 7.42776 0.00191847 7.32672 0.00191847H3.7922C3.43761 0.00191847 3.26222 0.435492 3.51768 0.682974L8.10073 5.16643Z" fill="#F74E1B"/>
<path d="M5.12447 15.954H5.1321L4.92621 15.2959C4.88426 15.1597 4.86139 15.0197 4.86139 14.8777V9.1223C4.86139 8.98033 4.88236 8.83837 4.92621 8.70408L5.1321 8.04604H5.12447L5.1321 8.03837L0.678688 3.42446C0.430852 3.1693 0 3.3458 0 3.70264V7.25947C0 7.36115 0.0400349 7.45707 0.108666 7.53189L1.52514 9.31798C1.59377 9.39089 1.6319 9.48873 1.6319 9.59041V14.4096C1.6319 14.5113 1.59377 14.6091 1.52514 14.682L0.108666 16.4681C0.0400349 16.541 0.00190643 16.6388 0.00190643 16.7405V20.2974C0.00190643 20.6542 0.432759 20.8307 0.678688 20.5736L5.13401 15.9616L5.12638 15.954H5.12447Z" fill="#F74E1B"/>
<path d="M23.8916 16.4681L22.4751 14.682C22.4064 14.6091 22.3683 14.5113 22.3683 14.4096V9.59043C22.3683 9.48875 22.4064 9.39091 22.4751 9.31801L23.8916 7.53192C23.9602 7.45902 23.9983 7.36118 23.9983 7.2595V3.70266C23.9983 3.34583 23.5675 3.16933 23.3215 3.4264L18.8662 8.03839L18.8738 8.04607H18.8662L19.0721 8.7041C19.114 8.84031 19.1369 8.98036 19.1369 9.12233V14.8777C19.1369 15.0197 19.116 15.1617 19.0721 15.2959L18.8662 15.954H18.8738L18.8662 15.9617L23.3215 20.5736C23.5694 20.8288 24.0002 20.6542 24.0002 20.2974V16.7406C24.0002 16.6389 23.9602 16.543 23.8916 16.4681Z" fill="#F74E1B"/>
</g>
<defs>
<clipPath id="clip0_359_37175">
<rect width="24" height="24" fill="white"/>
</clipPath>
</defs>
</svg>
