<svg width="48" height="48" viewBox="0 0 48 48" fill="none" xmlns="http://www.w3.org/2000/svg">
<path d="M18 25H20V21H22C22.5667 21 23.0417 20.8083 23.425 20.425C23.8083 20.0417 24 19.5667 24 19V17C24 16.4333 23.8083 15.9583 23.425 15.575C23.0417 15.1917 22.5667 15 22 15H18V25ZM20 19V17H22V19H20ZM26 25H30C30.5667 25 31.0417 24.8083 31.425 24.425C31.8083 24.0417 32 23.5667 32 23V17C32 16.4333 31.8083 15.9583 31.425 15.575C31.0417 15.1917 30.5667 15 30 15H26V25ZM28 23V17H30V23H28ZM34 25H36V21H38V19H36V17H38V15H34V25ZM16 36C14.9 36 13.9583 35.6083 13.175 34.825C12.3917 34.0417 12 33.1 12 32V8C12 6.9 12.3917 5.95833 13.175 5.175C13.9583 4.39167 14.9 4 16 4H40C41.1 4 42.0417 4.39167 42.825 5.175C43.6083 5.95833 44 6.9 44 8V32C44 33.1 43.6083 34.0417 42.825 34.825C42.0417 35.6083 41.1 36 40 36H16ZM8 44C6.9 44 5.95833 43.6083 5.175 42.825C4.39167 42.0417 4 41.1 4 40V12H8V40H36V44H8Z" fill="url(#paint0_linear_513_399)"/>
<defs>
<linearGradient id="paint0_linear_513_399" x1="12.5044" y1="-52.8647" x2="57.4807" y2="-46.1383" gradientUnits="userSpaceOnUse">
<stop stop-color="#86FDD2"/>
<stop offset="1" stop-color="#F4E987"/>
</linearGradient>
</defs>
</svg>
