<svg width="24" height="24" viewBox="0 0 24 24" fill="none" xmlns="http://www.w3.org/2000/svg">
<path d="M23.274 0.2354C23.4276 0.160957 23.611 0.170012 23.7584 0.262744C23.9056 0.355562 23.9935 0.516912 23.9928 0.687548L23.9869 0.760791L22.8072 8.46489C22.7867 8.59871 22.7125 8.71854 22.6021 8.79692L18.0728 12.0098L21.1939 15.1475C21.3104 15.2646 21.3617 15.4326 21.3306 15.5948L19.857 23.2979C19.823 23.4754 19.6954 23.6214 19.524 23.6788C19.3525 23.736 19.1627 23.6958 19.0289 23.5743L10.8131 16.1016L9.5406 23.584C9.50914 23.7684 9.377 23.9199 9.19881 23.9766C9.02062 24.033 8.82587 23.9849 8.69392 23.8526L0.145096 15.2598C0.0338177 15.1479 -0.0177254 14.9901 0.00544743 14.834L0.889237 8.90728L0.914627 8.80864C0.949741 8.71338 1.01359 8.63029 1.09822 8.57134L12.5943 0.571337L12.6588 0.533251C12.8136 0.456905 12.9993 0.465202 13.148 0.559619C13.3178 0.66762 13.4064 0.867062 13.3726 1.06548L12.233 7.75884L23.2105 0.272509L23.274 0.2354ZM1.84627 9.26763L1.03084 14.7325L8.71736 22.459L9.93513 15.3028L6.649 12.3145C6.53585 12.2116 6.47533 12.0628 6.48592 11.9102C6.49658 11.7576 6.57637 11.6175 6.70271 11.5313L11.0855 8.54106L12.1871 2.07231L1.84627 9.26763ZM12.0006 9.12798L11.0123 14.9327L19.0416 22.2334L20.2984 15.6651L16.9478 12.2979C16.8442 12.1937 16.7918 12.0488 16.8043 11.9024C16.8168 11.756 16.8926 11.6222 17.0123 11.5372L21.8502 8.10356L22.8228 1.74614L12.0006 9.12798ZM7.78865 12.001L10.1334 14.1338L10.8521 9.9102L7.78865 12.001Z" fill="#C8430A"/>
</svg>
