<svg width="24" height="24" viewBox="0 0 24 24" fill="none" xmlns="http://www.w3.org/2000/svg">
<path d="M0.725998 23.7646C0.572363 23.839 0.388992 23.83 0.241623 23.7373C0.0944004 23.6444 0.00654221 23.4831 0.00724792 23.3125L0.0131073 23.2392L1.19279 15.5351C1.21328 15.4013 1.2875 15.2815 1.39787 15.2031L5.92717 11.9902L2.80608 8.85249C2.68965 8.73537 2.63834 8.56744 2.66936 8.40522L4.14299 0.702101C4.17695 0.524584 4.30462 0.378578 4.476 0.321241C4.64751 0.264044 4.83729 0.304176 4.97112 0.425734L13.1869 7.89839L14.4594 0.415968C14.4909 0.231646 14.623 0.0800552 14.8012 0.0233898C14.9794 -0.0329704 15.1741 0.0150681 15.3061 0.147413L23.8549 8.74019C23.9662 8.85211 24.0177 9.00986 23.9946 9.16597L23.1108 15.0927L23.0854 15.1914C23.0503 15.2866 22.9864 15.3697 22.9018 15.4287L11.4057 23.4287L11.3412 23.4667C11.1864 23.5431 11.0007 23.5348 10.852 23.4404C10.6822 23.3324 10.5936 23.1329 10.6274 22.9345L11.767 16.2412L0.789474 23.7275L0.725998 23.7646ZM22.1537 14.7324L22.9692 9.26753L15.2826 1.54097L14.0649 8.69722L17.351 11.6855C17.4642 11.7884 17.5247 11.9372 17.5141 12.0898C17.5034 12.2424 17.4236 12.3825 17.2973 12.4687L12.9145 15.4589L11.8129 21.9277L22.1537 14.7324ZM11.9994 14.872L12.9877 9.06733L4.95842 1.76655L3.70158 8.33491L7.05217 11.7021C7.15582 11.8063 7.20821 11.9512 7.19572 12.0976C7.18318 12.244 7.10743 12.3778 6.98772 12.4628L2.14983 15.8964L1.17717 22.2539L11.9994 14.872ZM16.2113 11.999L13.8666 9.86616L13.1479 14.0898L16.2113 11.999Z" fill="#C8430A"/>
</svg>
