<svg width="24" height="25" viewBox="0 0 24 25" fill="none" xmlns="http://www.w3.org/2000/svg">
<path fill-rule="evenodd" clip-rule="evenodd" d="M0 12.5C0 19.1274 5.37258 24.5 12 24.5C18.6274 24.5 24 19.1274 24 12.5C24 5.87258 18.6274 0.5 12 0.5C5.37258 0.5 0 5.87258 0 12.5ZM9.79875 18L10.0029 14.9411L10.0027 14.941L15.5672 9.91949C15.8114 9.70275 15.5139 9.59706 15.1897 9.79365L8.32239 14.1262L5.35609 13.2003C4.7155 13.0042 4.7109 12.564 5.49991 12.2475L17.0589 7.79042C17.5868 7.55074 18.0964 7.91722 17.8948 8.72524L15.9263 18.0015C15.7889 18.6607 15.3906 18.8184 14.8387 18.5139L11.8401 16.2985L10.3987 17.7C10.3942 17.7044 10.3897 17.7088 10.3852 17.7132C10.224 17.8701 10.0906 18 9.79875 18Z" fill="white"/>
</svg>
