<svg width="24" height="25" viewBox="0 0 24 25" fill="none" xmlns="http://www.w3.org/2000/svg">
<path fill-rule="evenodd" clip-rule="evenodd" d="M12 0.5C5.37258 0.5 0 5.87258 0 12.5C0 19.1274 5.37258 24.5 12 24.5C18.6274 24.5 24 19.1274 24 12.5C24 5.87258 18.6274 0.5 12 0.5ZM12.9786 16.2881C12.8603 16.4129 12.6293 16.4381 12.6293 16.4381H11.8643C11.8643 16.4381 10.1764 16.5376 8.68957 15.0185C7.06811 13.3612 5.63633 10.0728 5.63633 10.0728C5.63633 10.0728 5.55369 9.85712 5.64322 9.75326C5.74401 9.63589 6.01885 9.62852 6.01885 9.62852L7.84754 9.61684C7.84754 9.61684 8.0197 9.64449 8.14303 9.7336C8.24508 9.80734 8.30205 9.94438 8.30205 9.94438C8.30205 9.94438 8.59754 10.6781 8.98882 11.3418C9.75323 12.6379 10.1088 12.9212 10.368 12.7823C10.7461 12.5801 10.6328 10.9504 10.6328 10.9504C10.6328 10.9504 10.6397 10.3592 10.4425 10.0956C10.2898 9.89153 10.0018 9.83192 9.87468 9.81533C9.77138 9.80181 9.94042 9.56706 10.1595 9.46198C10.4888 9.30404 11.0698 9.29483 11.7566 9.30159C12.2919 9.30712 12.4459 9.33969 12.655 9.38946C13.1403 9.50441 13.1251 9.87281 13.0924 10.6679C13.0826 10.9057 13.0713 11.1816 13.0713 11.5004C13.0713 11.572 13.0692 11.6483 13.067 11.7269C13.0556 12.1342 13.0426 12.6007 13.3161 12.7743C13.4563 12.8628 13.7988 12.7872 14.6558 11.359C15.0621 10.6818 15.3664 9.886 15.3664 9.886C15.3664 9.886 15.4334 9.74405 15.5367 9.68321C15.6425 9.62114 15.7852 9.64019 15.7852 9.64019L17.7097 9.62852C17.7097 9.62852 18.2881 9.5603 18.3814 9.81717C18.4797 10.0857 18.1654 10.7138 17.3791 11.7425C16.6332 12.7186 16.2702 13.078 16.3036 13.3958C16.3279 13.628 16.5639 13.8381 17.0166 14.2504C17.9618 15.1118 18.2152 15.565 18.2761 15.6739C18.2811 15.6829 18.2848 15.6896 18.2875 15.6939C18.7114 16.384 17.8174 16.4381 17.8174 16.4381L16.1076 16.4614C16.1076 16.4614 15.7408 16.5327 15.2574 16.207C15.0043 16.0366 14.7569 15.7581 14.5212 15.493C14.1614 15.088 13.8289 14.7138 13.5452 14.8022C13.0688 14.9509 13.0832 15.9581 13.0832 15.9581C13.0832 15.9581 13.0869 16.1738 12.9786 16.2881Z" fill="white"/>
</svg>
