<svg width="160" height="135" viewBox="0 0 160 135" fill="none" xmlns="http://www.w3.org/2000/svg">
<g filter="url(#filter0_d_616_3727)">
<path d="M96.6294 33.2961C97.5065 32.714 98.6759 31.1861 99.8454 31.1861H100.065L99.6992 31.7682L99.1876 31.9137L98.9683 32.423C98.6029 32.7868 98.2374 33.1506 97.7989 33.4416C97.3603 34.242 96.1908 34.9695 95.4599 35.6244L95.2407 36.3519L94.3636 36.643C94.2174 37.1523 93.7788 37.5888 93.3403 37.8799L93.0479 37.9526L92.6094 38.6074H92.4632L92.0977 39.1168L91.0014 39.6988C90.9283 40.1354 90.2705 41.9543 89.6857 42.2453L89.3203 42.8274C89.1741 42.9002 88.7355 43.1184 88.5894 43.0457C88.1508 43.9188 87.3468 44.9374 86.3235 45.2284C86.0312 45.5922 85.0079 46.9746 84.6424 47.1201L84.3501 47.8477C83.7653 48.2843 83.2537 48.5025 83.1075 49.2301C82.5959 49.4484 82.5228 49.8849 82.1573 50.176L81.7188 50.3215L81.1341 50.9036L81.061 51.1946L80.6224 51.3401L80.4031 51.5584L80.1839 52.0677L80.0377 52.2132C79.8184 52.868 79.0144 55.0508 78.3566 55.3418L77.9911 55.9966L77.2602 56.2877H77.114C76.6755 57.379 75.6522 58.3976 74.5558 58.7614C74.1173 59.4162 73.6788 59.9983 73.094 60.5076V60.7259L72.6555 61.0169L72.29 61.7445C71.9246 62.0355 71.5591 62.2538 71.1936 62.6176L70.9013 63.2724L70.3897 63.6362C70.2435 63.8545 70.0973 64.2183 69.878 64.3638C69.5126 64.5093 69.1471 64.4366 68.8547 64.7276L68.5624 65.5279L67.9045 65.8917L67.6122 66.4738C66.2234 67.4924 65.4194 70.0389 64.1769 70.6937L63.7383 71.2758L63.0805 71.4941V71.5668L62.4227 71.8579C62.3496 72.0034 62.1303 72.5127 62.2034 72.6582L61.9111 73.313C61.3994 73.8223 60.6685 74.2589 60.3762 74.9865C60.1569 75.132 59.9376 75.3503 59.7914 75.5685L59.5721 76.3689C59.2798 76.4416 58.5489 77.0964 58.4758 77.3875C57.818 77.7513 57.5256 78.4061 56.8678 78.7699L56.5754 79.4975C56.0638 80.0795 55.4059 80.225 55.1136 81.0981C54.8212 81.2437 54.5289 81.6802 54.3096 81.8985L53.7979 82.1167L54.3096 82.6988L54.0903 83.1354L53.2132 83.4991C52.9208 83.8629 52.6285 84.2267 52.4823 84.6633L52.1899 84.8816L51.9707 85.2453L52.1899 85.9729C51.9707 86.3367 51.7514 86.7005 51.3128 86.9188L51.1667 87.7919L50.5088 87.7191L50.2165 88.1557L49.7048 88.5195L49.6317 89.3198C49.2663 89.3926 48.9008 89.6108 48.6085 89.8291C48.5354 90.3384 47.1466 92.3029 46.7081 92.7394C46.8543 93.3942 46.635 93.6853 46.1965 94.1946L46.4888 94.9949L46.1965 95.7953L45.6848 96.3046L45.3194 95.868L45.6117 95.2132L45.027 95.7225C45.1001 95.9408 44.9539 96.2318 44.8808 96.4501L44.2961 97.0321C44.223 97.5415 43.8575 98.1963 43.3459 98.4146C43.1266 98.7783 42.9073 99.1421 42.615 99.5059H42.4688C42.3957 99.2876 42.3226 99.0694 42.3226 98.8511C42.3226 98.3418 42.615 97.8325 42.7612 97.3959L43.2728 96.8139V96.6684L43.1266 96.3773L42.4688 97.0321C42.5419 97.3232 42.1033 98.3418 41.9572 98.6328L41.6648 98.7783C41.5917 98.9966 41.3724 99.2149 41.2262 99.3604L41.5186 100.015C41.3724 100.379 41.1532 100.816 40.8608 101.107L40.5684 100.743L40.7877 100.233L40.3492 100.597C40.4222 100.743 40.2761 101.034 40.203 101.179L39.6913 101.689C39.5452 102.052 39.3259 102.635 38.9604 102.78C38.8142 103.071 38.595 103.435 38.3757 103.653H38.2295C38.1564 103.508 38.1564 103.289 38.1564 103.144C38.1564 102.707 38.595 101.761 38.8873 101.47C38.8873 101.325 38.8142 101.179 38.8142 101.107L38.2295 101.689C38.1564 102.125 38.0102 102.562 37.8641 102.926C37.3524 103.217 36.987 103.653 36.4753 104.017H36.183L35.7444 104.453H34.5749C34.2095 104.308 33.5517 104.017 33.1862 104.09C32.9669 103.726 32.6746 103.362 32.3091 103.071L31.7975 103.289H30.628C30.2626 103.144 29.9702 102.998 29.6047 102.926C29.3124 102.635 28.9469 102.416 28.5815 102.271C28.2891 102.052 28.0698 101.761 28.0698 101.47V101.252C27.8506 100.961 27.5582 100.67 27.2658 100.452V100.233L26.9735 99.7242L26.4618 99.4332H26.3887L25 96.2318C25.2193 95.7953 25.3655 95.286 25.4385 94.8494L25.2193 94.3401L25.6578 93.9763L25.9502 93.3942C25.8771 92.8122 25.9502 92.1574 25.804 91.648L26.0964 91.4298L26.1695 91.066L25.9502 90.2656C26.2426 89.6836 26.3887 89.1015 26.5349 88.5195L26.2426 87.8646C26.3156 87.7919 27.1196 87.2098 26.8273 87.0643C26.9004 86.7733 26.8273 86.4095 27.0466 86.1912C27.0466 85.6819 27.0466 85.0998 26.9735 84.5905L27.3389 84.2995C27.3389 83.8629 27.4851 83.2809 27.7775 82.9171C27.8506 82.5533 27.7044 82.044 27.5582 81.6802C27.7775 81.2437 28.0698 80.8071 28.3622 80.3706L28.2891 80.2978V79.7157L28.5084 79.4975L28.216 78.8426L28.2891 78.1151C28.5084 77.9695 28.6546 77.6058 28.8007 77.3875C28.8007 76.4416 28.6546 74.9137 29.824 74.5499C29.7509 73.8951 29.4586 72.731 30.1164 72.2217C29.8971 70.1117 31.2128 68.4382 30.9204 66.4738L31.5782 66.11C31.5051 65.7462 31.3589 65.3824 31.432 65.0186L31.9437 64.8003L31.7244 64.1455C31.9437 63.7817 32.1629 63.3452 32.1629 62.9086C32.3091 62.6176 32.4553 62.181 32.6746 61.9628C32.6015 61.5262 32.6746 61.0169 32.8208 60.5804H32.7477L32.6015 59.9255L33.04 59.3435C33.1131 58.7614 32.9669 58.1066 32.9669 57.5245L33.5517 56.9425V56.8697L33.6979 56.5059C33.6248 56.0694 33.7709 55.4873 33.9171 55.1235L33.5517 54.687V54.1049L33.844 53.6684L33.7709 52.868L34.2095 52.577L33.9171 51.7766C34.0633 51.1946 34.648 50.2487 34.648 49.6667C34.648 49.2301 34.575 48.7936 34.5019 48.4298L34.8673 48.1387V47.4112C34.9404 47.2656 35.1597 46.7563 35.3059 46.6836L35.2328 45.5922C35.452 45.4467 35.6713 45.1557 35.7444 44.8646L35.6713 44.1371L35.8175 44.0643C36.183 44.0643 36.5484 44.1371 36.9139 43.9915L36.8408 43.1912L37.4986 42.9002H37.6448L38.0102 42.7547C38.4488 42.0998 39.0335 41.5178 39.5452 40.9357H39.6182C39.9837 40.6447 40.4953 40.4264 40.9339 40.3536C41.3724 39.5533 41.4455 38.6074 42.1033 37.9526L42.7612 38.5347C42.7612 38.6802 43.6383 43.1912 43.7844 43.3367L44.0768 44.4281L44.3692 44.5008L44.6615 43.846L44.7346 42.7547L44.5154 42.2453C44.5884 41.736 44.8808 41.0085 44.8808 40.4992C44.8808 40.1354 44.7346 39.7716 44.5884 39.4805C44.6615 39.1168 44.8077 38.753 44.7346 38.3892L45.027 37.7343H45.2463C45.5386 38.9712 45.9041 40.2809 45.9041 41.5905L46.2695 42.4636L46.8543 42.8274C46.4157 44.5008 46.7812 44.7191 47.7314 46.3198V50.3215C47.7314 50.9763 47.8776 51.6311 47.8776 52.286L47.6583 52.7953V53.2318L48.0237 53.9594C47.6583 55.1235 47.9506 56.2876 47.9506 57.4518L47.5852 57.7428C47.3659 58.1066 47.2928 58.6887 47.3659 59.1252L47.0735 59.489L47.5121 60.1438C47.5852 60.3621 47.0735 61.4535 46.9274 61.6717V61.9628C46.9274 63.9272 47.0005 67.8562 46.2695 69.4568L46.3426 70.1117L46.0503 70.4027L45.7579 71.0575V71.1303L46.635 70.912L47.0005 70.3299L47.5121 70.1117L47.8045 69.3113L48.3161 68.802C48.5354 68.1472 49.4125 66.9103 49.9241 66.5465V66.2555C50.8012 65.6007 51.3128 64.8003 52.1168 64.0728C52.3361 63.6362 52.4823 63.1269 52.5554 62.6176C53.1401 62.3993 53.6518 61.9628 54.2365 61.6717L54.3096 60.6531C55.1867 60.1438 55.6252 59.3435 56.1369 58.4704V58.3976C56.5023 58.1066 56.9409 57.5973 57.1601 57.1607L57.7449 56.7242L58.0372 55.9966C58.6951 55.9966 58.9874 55.7056 59.2798 55.1235L59.5721 55.0508C59.9376 54.2504 62.9343 50.8308 63.2998 50.6125C63.2998 50.3215 63.2267 49.9577 63.2267 49.6667L63.6653 49.0846H63.7383C64.25 48.8663 64.6154 48.357 65.1271 48.1387L65.2733 47.5567C65.7118 46.9019 66.2234 46.1743 66.9544 45.8832V45.7377C67.3198 45.4467 67.6122 45.0102 67.7584 44.5736C67.9045 44.6464 68.4893 44.3553 68.6355 44.2826C68.7085 44.0643 69.0009 43.555 68.9278 43.3367C69.2202 43.1912 69.5856 42.9729 69.8049 42.6819C69.9511 42.0998 70.3166 41.5178 70.7551 41.0812L71.2667 40.8629L71.8515 40.2081L72.5824 39.9171C72.8747 39.1895 73.5326 38.753 73.9711 38.0981V37.9526L74.6289 38.2437L74.8482 38.6074L75.3598 38.0981V38.0254L76.0908 37.7343L76.31 37.2978V37.225L76.7486 36.7157H76.8217L77.2602 36.4975C77.2602 36.2792 77.845 35.9882 77.9911 35.9154C78.0642 35.4789 78.2835 35.0423 78.5759 34.7513V34.242L79.0875 33.6599H79.1606C79.453 33.2961 79.8915 32.9323 80.33 32.714L80.6955 31.9865H80.8417L81.1341 32.3503L81.3533 31.7682V31.6954L82.1573 31.1134C82.2304 30.6041 82.5959 30.022 82.9613 29.6582L83.3999 29.5127L83.9115 28.9306L84.5693 28.6396C84.7886 27.9848 85.3733 27.5482 85.8119 27.0389V26.9662L86.3966 27.1844L86.5428 27.4755L87.0544 27.0389V26.9662L87.6392 26.7479C87.9315 26.2386 88.5163 26.0203 88.7355 25.511C89.1741 25.2927 89.5395 25.0745 89.905 24.7107L89.8319 23.692L90.2705 23.1827H90.3436C90.6359 22.8189 91.0014 22.5279 91.3668 22.3096L91.7323 21.6548H91.8785L92.317 22.1641V22.5279L91.8785 22.6734L91.2937 23.1827V23.2555L90.7821 23.5465L91.1476 23.8376C90.4897 25.2927 88.8817 26.0203 88.297 27.4027L87.6392 27.7665L87.2006 28.3486H87.1275L86.6159 28.5668C86.4697 28.7851 86.3966 29.0761 86.1773 29.2217L86.3235 29.6582L86.9083 29.3672C87.3468 28.8579 88.0046 28.4941 88.4432 27.9848L89.101 27.6937L89.1741 27.4755L89.6857 26.9662L90.1243 27.0389C91.3668 26.1658 92.7556 24.8562 94.1443 24.2741L94.5828 23.692H94.6559L95.0945 23.1827C95.3868 23.2555 95.6061 22.9645 95.8985 23.0372V22.6007C96.4832 22.3824 96.7025 21.6548 97.3603 21.6548C97.6527 21.5821 97.7989 21.2183 98.0912 21.2183H98.3105C97.8719 21.7276 97.5065 22.3824 97.3603 23.0372L96.9218 23.1827C96.337 23.9103 96.337 24.7107 95.3868 25.0745C94.8752 25.802 94.3636 26.2386 93.9981 27.1117C93.4134 27.4027 92.0247 29.3672 91.7323 29.9492L92.2439 29.4399H92.3901C92.7556 29.2217 93.121 28.8579 93.4865 28.5668V28.4941L93.9981 28.203L94.2905 27.4027L94.9483 27.2572L95.4599 26.6751C95.1676 28.4213 94.3636 27.8393 93.9981 28.9306C93.6327 29.2217 93.4134 29.6582 93.1941 30.0948C92.8287 30.2403 92.5363 30.4585 92.2439 30.7496L92.0247 31.4044C91.4399 31.7682 90.9283 32.5685 90.7821 33.2233L91.8785 32.7868V32.0592L92.3901 31.7682H92.4632L92.9017 31.1861C93.7057 30.8223 94.8021 30.0948 95.533 29.9492L95.0945 30.6041V31.5499C95.8254 30.6768 96.1908 30.0948 97.0679 29.2944H97.5796L98.0912 28.8579L98.4567 28.203L98.9683 27.7665V27.6937C99.48 27.4755 99.9916 27.1844 100.284 26.7479V26.6751C101.307 26.1658 102.257 25.1472 103.281 24.5651C103.573 24.0558 104.158 24.0558 104.596 23.8376L104.816 23.2555L104.889 23.1827C106.351 22.7462 107.447 21 108.616 21H108.763L108.47 21.5093L107.959 21.5821L107.812 22.0914C106.716 22.8917 105.839 23.9831 104.743 24.8562L104.523 25.511L103.719 25.802L103.427 26.3841L102.842 26.8934L102.623 26.9662L102.184 27.4755H102.038L101.746 27.9848L100.576 28.5668C100.503 29.0761 100.211 29.5855 99.6992 29.6582C99.4069 30.022 99.1876 30.4585 98.749 30.6768C98.5298 31.0406 98.1643 31.3316 97.7989 31.5499C97.7258 31.7682 97.5796 32.0592 97.6527 32.2775C97.2141 32.4958 96.8487 32.8596 96.6294 33.2961ZM62.2765 70.1844C61.1802 70.8393 60.8878 72.0034 59.9376 72.731L59.7183 73.3858C59.1336 74.1861 58.2565 74.9137 57.4525 75.4958C57.3063 76.2234 56.7947 76.8054 56.7216 77.6058L57.2332 77.1692L58.2565 76.9509C58.1834 76.6599 58.0372 76.4416 57.818 76.2233L58.6951 75.6413L58.9874 74.8409C59.2798 74.5499 59.5721 74.1861 59.9376 73.9678C60.4492 73.313 60.8147 72.8037 61.034 72.0034L61.6187 71.5668C61.7649 71.203 62.2034 70.4755 62.5689 70.3299L62.2765 70.1844ZM63.9576 68.9475V69.0203L64.6154 69.1658H64.6885C65.6387 68.3655 67.1005 66.401 67.8315 65.3824L67.2467 65.0186L66.7351 64.9459L66.3696 65.6734L66.5158 65.6007L66.0042 66.3283L65.2733 66.6193V66.7648L64.7616 67.2741V67.4196L64.4693 67.7107L64.5424 68.3655L63.9576 68.9475ZM44.8808 68.6565L44.2961 69.0931V69.2386L43.7114 69.5296C44.0037 70.2572 43.7114 70.2572 43.1266 70.2572C43.419 70.6937 43.6383 71.2758 43.5652 71.7851L44.6615 72.4399L44.8808 71.7123L44.9539 71.6396C45.027 71.0575 45.1001 70.5482 45.1001 69.9662C45.1001 69.6024 44.8077 68.8748 44.8808 68.6565L45.3194 68.22L45.5386 67.6379V67.1286L45.2463 66.7648C45.027 67.0558 44.8077 67.6379 44.8077 68.0017L44.8808 68.6565ZM47.5852 87.7919L47.2928 87.1371C46.7081 88.1557 44.8808 89.1743 44.8808 90.1929L45.3194 90.4112L46.0503 90.1201V89.9746C46.1965 89.6836 46.4888 89.3198 46.7812 89.1743C46.9274 88.8832 46.9274 88.3739 47.3659 88.3739H47.439L47.5852 87.7919ZM54.3096 79.7885L53.9441 79.643L53.3594 79.7885L53.2132 80.5161C52.7747 80.6616 52.3361 81.0254 51.9707 81.3164L51.6783 81.8257L52.0438 82.2623C52.3361 82.2623 52.9208 82.1895 52.9208 81.8257L53.3594 81.2437L53.4325 80.8799L54.5289 80.5161L54.3096 79.7885ZM90.5628 33.8054H90.2705L90.0512 34.0964C89.7588 34.1692 89.3934 34.1692 89.101 34.1692C88.7355 34.9695 88.0777 35.6244 87.5661 36.2792V36.5702C87.7854 36.3519 88.1508 36.1337 88.4432 36.0609C88.7355 35.4061 89.2472 34.9695 89.905 34.7513L90.5628 33.8054ZM45.5386 61.9628L45.027 62.0355V62.181C45.027 62.7631 45.3925 63.1997 45.3925 63.7817C45.3925 64 45.3194 64.291 45.2463 64.5093L45.831 64.291C45.831 63.7817 45.9041 63.2724 46.0503 62.7631C45.9772 62.4721 45.6848 62.181 45.5386 61.9628ZM48.7546 85.2453C48.3892 85.8274 48.1699 86.4822 47.9506 87.0643L48.4623 87.2098C48.6816 86.846 48.9008 86.4095 49.1932 86.0457C49.1932 85.7546 49.1201 85.2453 48.7546 85.2453ZM46.4157 57.0152L46.1234 56.7242C45.9772 57.088 45.6848 57.379 45.3925 57.5973C45.3925 57.8883 45.3194 58.1066 45.3194 58.3976C45.3194 58.5431 45.3194 58.6887 45.3925 58.8342L46.0503 58.4704C46.1234 57.9611 46.2695 57.4518 46.4157 57.0152ZM51.0936 84.9543L50.5088 84.8088C50.2165 84.9543 49.7779 85.0998 49.5586 85.3181C49.9241 85.5364 50.3627 85.6819 50.8012 85.6819L51.2397 85.0998L51.0936 84.9543ZM83.1075 33.2961V33.6599L83.6192 33.3689L83.9846 32.4958L83.3268 32.3503C83.1806 32.6413 83.1075 33.0051 83.1075 33.2961ZM42.3957 60.5804V61.6717L42.9073 61.2352L43.2728 60.5076H43.0535L42.3957 60.5804ZM48.0237 62.9814L47.5121 61.5262C47.8045 61.599 48.243 61.8173 48.243 62.181L48.1699 62.9814H48.0237ZM37.9371 100.743L37.4986 101.107V101.179L37.0601 101.398V101.98L37.2793 102.125C37.4986 101.543 37.791 101.034 38.2295 100.597V100.525H38.0102L37.9371 100.743ZM82.8882 42.0271L82.4497 41.8088C82.2304 41.9543 82.0112 42.2453 81.865 42.4636L82.5228 42.5364H82.5959L82.8882 42.0271ZM56.7947 79.7157C56.9409 79.4975 57.2332 79.2064 57.3063 78.9154C57.3794 79.1337 57.3794 79.3519 57.3794 79.5702C57.3794 79.7157 57.3794 79.8612 57.3063 80.0068L56.8678 80.1523L56.7947 79.7157ZM92.4632 22.7462L92.7556 22.0914L93.1941 22.6007L92.9748 23.11L92.4632 22.7462ZM44.9539 92.0846L44.5884 92.3756L44.1499 92.0846L43.9306 92.2301L44.5154 92.5211H44.9539L45.3194 92.0846L45.1732 91.9391H44.9539V92.0846ZM45.2463 61.0897L44.6615 60.9442V61.599H45.2463V61.0897ZM46.0503 55.4873L45.3925 55.3418L45.6117 56.0694L46.0503 55.9966V55.4873ZM55.9907 80.4433L56.21 80.8071C56.21 81.0254 56.1369 81.5347 55.8445 81.5347H55.7714C55.7714 81.1709 55.7714 80.7343 55.9907 80.4433ZM43.419 92.3029V92.4484L43.1266 92.8849L43.0535 93.6853L43.6383 92.8122L43.419 92.3029ZM27.2658 92.8849V93.176L26.9735 93.6853L27.1196 94.2673L27.2658 94.1218L27.412 93.5398L27.2658 92.8849ZM45.831 65.7462L45.1732 65.5279C45.3194 65.8189 45.5386 66.2555 45.9041 66.3283L45.831 65.7462ZM70.682 63.709C70.8282 63.4907 71.0475 63.2724 71.1206 62.9814V63.9272L70.7551 64.0728L70.682 63.709ZM86.1773 38.1709L85.7388 38.3892L85.3003 38.9712C85.7388 38.753 86.1773 38.3164 86.4697 37.9526L86.6159 37.5161L86.1773 38.1709ZM47.3659 63.8545L48.0237 64.291L48.1699 64.8003C47.8776 64.5821 47.439 64.2183 47.3659 63.8545ZM82.5959 34.4602L82.0112 34.824L81.865 35.1151C82.5228 34.8968 82.8152 34.3147 83.0344 33.7327L82.5959 34.4602ZM51.3859 86.1184L50.8743 86.1912L50.9474 86.9188C51.0205 86.6277 51.2397 86.3367 51.3859 86.1184ZM83.8384 40.8629L83.3268 40.9357L83.8384 41.3723V40.8629ZM88.6625 42.1726L88.3701 42.5364L88.7355 42.3909L89.0279 42.0271C88.8817 42.0998 88.8086 42.1726 88.6625 42.1726ZM29.5317 83.3536L29.3124 83.2809L29.2393 83.5719L29.5317 83.7174V83.3536ZM45.3925 92.8849L45.027 92.9577L45.1001 93.5398V93.3942C45.1732 93.2487 45.2463 93.0305 45.3925 92.8849ZM80.257 44.1371L80.8417 44.6464V44.4281C80.6955 44.2826 80.4762 44.2098 80.257 44.1371ZM44.5154 94.4129H44.8077L44.9539 94.2673L44.7346 94.1946L44.5154 94.4129ZM57.7449 58.6887H57.5256L57.2332 58.9797L57.7449 58.6887ZM71.486 45.1557H71.3398L71.0475 45.4467L71.486 45.1557ZM39.3259 100.525H39.2528L39.399 100.67L39.3259 100.525Z" fill="url(#paint0_linear_616_3727)"/>
<path d="M105.471 91.066C105.179 91.2115 104.886 91.2843 104.594 91.357C104.594 91.7936 104.74 92.3029 104.886 92.7394L104.375 93.1032L102.84 93.467C102.84 93.1032 102.84 92.7394 102.767 92.3756C102.328 92.5939 101.817 92.7394 101.378 92.8122L101.305 93.1032L101.451 93.5398L100.793 93.9035L100.501 93.3215L100.574 93.0305L100.062 93.6125L99.2584 93.6853L99.1122 93.8308L98.3813 94.0491L98.2351 94.3401L97.2118 94.5584L96.7733 94.9949L95.6769 95.3587C95.3846 95.7225 94.5806 96.0135 94.0689 96.0135L93.7766 96.3046C93.0456 96.5228 92.3147 96.8866 91.5107 96.8866C90.926 97.3959 90.2682 97.6142 89.6104 97.978H88.6602L88.0023 98.269H87.8562C87.8562 98.269 88.0023 98.4146 87.8562 98.4146C87.5638 98.4146 87.0522 98.5601 86.9791 98.9239L85.9558 99.0694L85.5172 99.3604L84.2747 99.5787L83.9823 99.9425C83.6169 100.088 83.1783 100.233 82.7398 100.233L82.4474 100.525C82.2281 100.452 81.6434 100.306 81.6434 100.67C81.1318 100.888 80.547 100.961 80.0354 100.961C79.4507 101.398 78.7929 101.616 78.135 101.907L77.1848 101.834C76.7463 102.125 75.7961 102.198 75.2845 102.198C74.9921 102.416 74.5536 102.562 74.1881 102.562L73.8227 102.489C73.5303 102.635 73.311 102.853 73.0186 102.853L72.6532 103.071C72.6532 103.435 71.8492 103.362 71.6299 103.362L71.4106 103.58C71.1183 103.58 70.6797 103.362 70.6797 103.799L69.2179 104.09L68.2677 104.672C68.1946 104.817 67.9023 104.817 67.7561 104.817L66.7328 104.89L66.1481 105.181H65.1248L64.2477 105.545L63.5899 105.472L62.859 105.763C61.9819 105.763 61.3971 105.981 60.52 106.054C60.52 106.2 60.3008 106.2 60.2277 106.2C59.7891 106.2 59.4237 106.127 58.9851 106.2C58.912 106.491 57.5233 106.709 57.1579 106.709C55.3306 106.709 53.4302 106.563 51.6029 106.418C51.6029 106.709 51.3106 106.854 51.0913 106.782C50.7989 106.927 50.4335 107 50.1411 107C49.9218 107 49.7756 106.927 49.7756 106.709C49.7756 106.563 49.8487 106.345 49.5564 106.345C49.4102 106.345 48.6793 106.709 48.6793 106.418C48.6793 106.2 48.8255 105.909 48.8985 105.763H49.9218L50.6527 105.472C51.4567 105.545 50.9451 104.89 51.4567 104.89C51.8953 104.89 52.5531 105.108 52.9917 105.181L54.5266 104.599L54.5997 104.308L55.1113 104.381C55.4037 104.09 57.5964 103.871 58.108 103.799C58.2542 103.653 58.5466 103.653 58.7659 103.653C58.7659 103.071 59.2775 103.289 59.2775 103.071C58.1811 103.58 55.696 103.362 55.1113 103.944C54.9651 103.944 54.5997 103.871 54.4535 104.017C54.1611 103.944 51.0913 104.09 51.0913 104.744C49.7025 104.672 48.46 105.181 47.0713 105.181C46.9251 105.836 45.8287 105.618 45.3902 105.545C45.4633 105.763 44.8785 105.763 44.8054 105.763C44.5131 105.763 44.2207 105.763 44.1476 106.054L38.7389 106.345C38.7389 106.418 38.6658 106.563 38.5927 106.563C38.3734 106.563 38.1541 106.272 38.1541 106.054C38.1541 105.909 38.3003 105.836 38.4465 105.836H39.4698C39.4698 105.399 42.3934 105.181 43.1243 104.89C43.1974 104.89 43.7091 104.963 43.7091 104.817C43.7091 104.599 43.3436 104.381 43.3436 104.09C43.3436 104.017 43.4167 103.944 43.4898 103.871C44.8785 103.944 46.9982 103.726 48.3138 103.071L48.9716 103.144L50.2142 102.707L50.4335 102.343C50.872 102.416 51.3836 102.271 51.8222 102.198C51.6029 102.489 52.1146 102.271 52.1146 102.198L52.0415 101.689C54.0149 101.98 53.2109 101.907 54.8189 101.179C55.6229 101.179 56.5731 100.379 57.304 100.379L57.3771 100.233C57.3771 100.161 56.4269 100.088 56.2077 100.088C56.2077 100.743 54.5266 100.525 54.5266 100.888C54.088 100.888 53.7226 100.743 53.4302 101.107C51.5298 101.179 51.676 101.107 50.1411 101.761L49.3371 101.325C48.7524 101.398 48.7524 101.907 48.2407 101.907C48.0214 101.907 47.5098 101.689 47.2905 101.616C46.5596 101.398 47.5829 102.78 45.3902 102.052C45.3171 102.125 45.244 102.271 45.0978 102.271V101.98C44.44 101.98 43.8552 101.689 43.1974 101.689L43.636 101.325C43.8552 101.325 44.8054 101.252 44.8054 101.034L45.6825 101.179C46.4865 101.034 47.4367 100.888 48.1676 100.597V100.306C48.1676 100.161 48.0945 99.9425 47.8753 99.9425C47.8022 99.4332 47.2905 99.8697 47.2905 99.3604H46.1211L46.4134 98.8511C47.0713 98.8511 46.048 98.3418 47.5829 98.3418L47.9484 98.0508C48.2407 97.978 48.5331 97.978 48.8255 97.8325C49.4102 97.9052 49.4102 97.3959 49.7756 97.3959C50.7989 97.3959 51.8953 96.5228 53.1378 96.5228V96.2318C53.284 96.2318 54.3804 96.2318 54.3804 95.9408C54.4535 95.9408 54.892 96.0135 54.892 95.7953H55.5498L55.7691 95.577H56.3538L56.4269 95.3587C56.9386 95.2859 56.5 94.7766 57.0117 94.7766C57.3771 94.4129 58.3273 94.3401 58.7659 94.1946C59.0582 94.2673 59.2775 94.3401 59.4968 94.5584L60.0815 94.1946C60.0084 93.9763 60.1546 93.9035 60.3739 93.9035L60.5931 93.9763C60.5931 93.9035 60.5931 93.467 60.8124 93.467C60.8855 93.467 60.9586 93.6853 61.0317 93.758C61.6895 93.8308 62.2011 93.3942 62.859 93.3942C63.0782 92.9577 63.8092 93.1032 64.1746 93.1032V92.8849C64.3208 92.8849 64.6862 92.8849 64.6862 92.6667C65.0517 92.6667 65.271 92.4484 65.4902 92.4484H65.6364L66.3673 92.0846L66.5866 91.7936C66.879 91.7936 67.0983 91.5753 67.3906 91.5025C67.6099 91.2843 67.9754 91.2115 68.2677 91.1387L68.7063 91.2115L68.9255 91.1387L69.0717 90.8477L69.5834 90.9205V90.7022L70.095 90.4839C70.095 90.3384 70.1681 90.1929 70.2412 90.1929C70.3143 90.1929 70.3874 90.2656 70.3874 90.2656C71.5568 89.7563 73.3841 89.0288 74.0419 89.0288V88.8105C75.7961 88.3739 77.1848 87.2826 78.939 86.9188L79.3776 87.0643L79.6699 86.9188L79.8161 86.6277L80.4739 86.7005L81.278 86.0457C81.7165 85.9002 82.886 85.9002 82.7398 85.3909L83.1783 85.4636L83.5438 85.3909L83.9092 84.8088C84.2016 84.5905 84.7132 85.0271 85.0787 85.0271L85.1518 84.8088C85.6634 84.445 86.2482 84.2267 86.8329 84.0812C87.2714 83.7174 87.9293 83.6447 88.4409 83.4264L88.6602 83.1354H89.318C89.6834 82.8443 90.0489 82.6261 90.4874 82.5533V82.2623L92.0955 82.044L92.7533 81.4619H93.1187L93.2649 81.1709L93.9227 81.0981L94.2882 80.5161C95.2384 80.2978 96.2617 79.934 96.9195 79.1337C97.4311 78.9882 97.9427 78.7699 98.3813 78.4788V78.3333C98.8198 78.1878 99.2584 77.8968 99.5508 77.533C99.8431 77.6058 101.013 77.1692 101.305 76.9509L101.67 76.4416C102.109 76.2961 102.621 75.8596 102.913 75.4958L103.059 74.7682L103.79 74.4044L104.229 74.4772L104.74 73.8223H104.886C105.106 73.1675 106.056 71.9306 106.494 71.4213H107.152L107.664 70.8393C107.664 70.621 107.737 70.4027 107.737 70.2572L107.883 70.1844C107.664 69.4569 107.152 68.8748 106.86 68.22C106.275 68.0744 105.764 67.7834 105.179 67.7107C103.278 66.6193 101.232 66.0372 99.4777 64.7276H98.7468C98.5275 64.5821 98.2351 64.5093 97.9427 64.4365L97.5773 63.9272H97.5042L96.9926 63.4907L97.358 63.0541C97.6504 63.1269 98.0158 63.2724 98.2351 63.4907H99.3315L99.6969 62.8359L99.1853 62.6176L97.9427 62.6904C97.4311 62.181 96.9195 61.599 96.4809 61.0169L95.6769 60.7986C94.7998 59.9255 93.7766 59.9983 92.6802 59.7073L92.534 59.4162L92.3878 59.7073L93.0456 59.9983L93.5573 60.5804H93.7766L94.3613 60.7986L95.0922 60.7259L95.75 61.3807L96.4809 61.3079L96.554 62.0355V62.1083L95.8231 61.89L95.6769 62.6176L95.4576 62.7631C95.0922 62.6904 93.9227 62.181 93.7035 62.2538L93.4111 61.6717H92.8995C92.3147 61.4535 91.8031 61.0169 91.2915 60.7259C91.5107 60.5076 91.8762 60.2893 92.0224 59.9983C91.4376 59.7073 90.7798 59.7073 90.122 59.5618C89.9758 59.5618 89.6834 59.6345 89.5373 59.7073C89.2449 59.489 88.8063 59.0525 88.514 58.9797L88.0754 58.4704L87.5638 58.8342L86.9791 58.1794L87.0522 57.5973C86.8329 57.088 86.5405 56.5787 86.1751 56.1421V55.9966L85.9558 56.6514L86.5405 57.1607V57.8156C86.102 57.2335 85.4442 56.8697 84.9325 56.2877C84.7132 55.9239 84.5671 55.269 84.6401 54.8325L84.0554 54.6142C83.9823 54.1049 83.7631 53.5956 83.4707 53.159L83.3976 52.4315C83.4707 52.286 83.1052 52.286 83.0321 52.286V51.7039C83.3976 50.9763 83.9823 50.176 83.8361 49.3029L84.2016 48.6481C84.1285 48.5025 84.4209 47.9205 84.494 47.775L85.2249 47.4839H85.298L85.1518 47.1201L85.5903 46.8291L85.8096 46.3198C86.1751 46.1015 86.6136 45.8105 86.906 45.4467L87.1983 44.5736L88.514 43.9915C88.8794 43.4095 89.3911 42.4636 90.2682 42.4636C90.8529 41.6633 91.6569 41.2995 92.534 40.9357L92.4609 40.8629C93.5573 40.2081 94.7267 39.4805 95.8231 38.8985L96.6271 38.8257L97.2849 38.3892C97.4311 38.4619 98.0889 38.1709 98.2351 38.0981L98.6006 37.7343C100.939 37.2978 102.109 36.7157 104.229 35.6971H105.252L105.91 35.1878C106.275 35.2606 106.714 35.1151 107.079 34.9695L107.883 35.1151L108.395 34.7513L108.76 35.1151C109.126 35.1151 110.149 34.533 110.734 34.4602C114.973 33.7327 119.432 33.8054 123.744 33.3689L123.817 33.5871C125.279 33.3689 126.741 33.4416 128.203 33.2233L132.076 33.5871C133.1 33.5871 134.05 33.5144 135 33.5871L134.708 34.0237C134.342 34.0237 133.904 33.9509 133.611 34.242C132.003 34.3147 130.688 34.1692 129.226 34.9695L128.422 34.824V35.2606L128.056 35.4789L127.691 35.1151C127.325 35.2606 126.887 35.4788 126.595 35.7699H126.229L125.644 36.2792L125.717 37.0068H126.521V37.225L127.033 37.5161L126.375 37.9526H125.571C124.913 37.9526 124.329 38.0981 123.671 38.0981L123.598 38.5347L123.963 38.753C124.329 38.6802 124.84 38.6802 125.206 38.6802L124.767 39.1895C124.402 39.335 123.963 39.4078 123.525 39.335L122.794 39.6988L123.013 39.9171C124.109 39.8443 125.279 39.4805 126.375 39.7716C126.668 39.9898 127.033 40.2081 127.252 40.4992L127.983 40.3536L128.422 40.7902L127.91 41.3723L127.983 41.6633C128.349 41.6633 128.714 41.5905 129.08 41.5178L129.811 41.736L129.299 42.0271C129.007 42.0998 128.641 42.1726 128.349 42.1726C127.179 42.1726 126.302 42.6091 125.206 42.6091C125.06 42.8274 124.621 42.9002 124.475 43.1184L124.84 42.9729L125.498 43.264H125.571L125.06 43.555C124.256 43.7005 123.305 43.7733 122.428 43.7733C121.259 43.7733 119.943 44.9374 118.774 44.9374H118.554L117.897 45.3739L116.946 45.5195L116.654 45.8105L115.85 45.7377L115.265 45.956C114.534 45.956 113.73 46.247 113 46.247C112.707 46.247 112.342 46.1743 112.049 46.1015L110.514 46.9746L110.003 46.6836L109.71 47.0474L109.93 47.4112C109.491 47.4112 108.98 47.4112 108.541 47.4839L108.102 47.0474V47.4112L108.322 47.8477C107.956 47.9932 107.591 48.1387 107.152 48.1387L106.421 48.4298C105.983 48.357 105.617 48.357 105.179 48.357C104.813 48.9391 104.156 49.0118 103.498 49.0118L103.132 49.7394L103.425 50.3942C104.156 50.6853 104.74 50.8308 105.471 50.8308L105.69 51.1218C106.056 51.3401 106.494 51.5584 106.933 51.7039L107.445 52.3587L107.956 51.7766V51.7039L108.541 51.9949L108.687 52.7225L110.003 53.159L110.734 52.9408L111.392 53.2318L111.318 53.7411L111.976 54.0322H112.049L112.634 54.5415V54.6142L113.146 54.0322H113.292L113.73 54.5415L113.804 54.8325C114.461 55.4873 114.754 55.4146 115.631 55.4873C115.631 55.7056 115.631 55.9239 115.704 56.0694L116.142 56.3604H116.946L117.239 57.088C117.531 57.088 117.824 57.1607 118.116 57.1607L118.554 57.8883V57.9611L119.358 57.8883C119.505 58.2521 119.797 58.6887 120.089 58.9797L120.893 59.3435C122.063 60.5076 124.475 61.599 124.767 63.1997H124.84L125.06 63.6362L125.133 63.4179L125.937 63.7817L126.083 64.5821L125.864 65.3096L125.279 65.4552L125.937 66.1827C126.01 66.8376 125.791 67.7834 126.521 68.1472L126.375 68.7293C126.741 69.1658 127.106 69.6751 127.325 70.1844L126.814 70.6937C126.887 70.9848 126.96 71.6396 126.521 71.7123L126.887 72.1489C126.156 73.2403 126.156 74.3316 125.352 75.423L125.571 76.0778C125.06 77.6058 124.694 78.4061 123.963 79.8612L123.671 80.0795C123.378 79.934 123.086 79.7885 122.794 79.5702L122.428 80.225C122.209 80.3706 121.624 80.9526 121.405 80.9526C121.259 80.9526 121.186 80.9526 121.113 80.8071V81.3892L121.405 81.6074C121.844 81.3164 122.209 80.8071 122.794 80.8071C122.94 80.8071 123.086 80.8799 123.159 81.0254L121.478 82.4078C119.505 82.1167 120.089 82.4078 118.481 83.0626L118.043 82.9171L118.335 82.4078L118.116 82.1167L116.946 82.9171L116.8 83.9357L117.677 83.5719V83.7174C117.677 83.9357 117.604 84.445 117.239 84.445C117.02 84.445 116.727 84.2995 116.581 84.2267V84.8088H116.069L115.412 85.2453L114.681 85.3909L113.438 86.6277L113.73 87.1371L114.9 87.4281L114.169 87.7191C113.804 87.6464 113.438 87.6464 113.146 87.5008L112.707 87.7919L112.196 87.2826C111.83 87.5736 111.465 88.0829 111.318 88.5195L110.88 88.2284C110.368 88.4467 109.71 88.5922 109.126 88.5922L108.906 89.1015L108.029 89.7563L108.395 90.0474L107.737 90.7022L106.787 90.4839C106.348 90.7022 105.91 90.9205 105.471 91.066L105.69 90.775L105.398 90.0474C105.69 89.7563 106.056 89.5381 106.494 89.5381L107.298 88.8832L108.395 88.665C108.614 88.3012 109.272 87.5736 109.71 87.4281L109.491 86.846L108.687 87.1371L108.102 87.7191L108.176 87.7919C107.664 87.7919 107.079 87.7919 106.568 87.8646L107.225 88.0101L106.714 88.665C106.056 88.8832 105.398 89.1743 104.74 89.3198L104.229 89.9019C103.717 89.9019 103.278 90.1201 103.059 90.6294L103.644 90.8477C103.936 90.6294 104.229 90.3384 104.594 90.1929L105.471 91.066ZM123.744 74.9865L122.867 75.2775L122.648 74.9865L122.574 75.2775C121.405 76.0778 121.259 77.6785 120.089 78.4788L120.747 78.9882C120.162 79.1337 119.578 79.2064 118.993 79.4975L118.847 80.225L120.382 79.934L120.455 79.7157L120.747 79.5702L121.04 79.1337C121.478 78.8426 121.77 78.4788 121.844 77.9695L123.525 76.9509L123.817 76.4416L123.525 76.0778L123.378 75.4958L124.036 74.6227L123.89 73.6041L123.378 73.8223C123.525 74.1861 123.671 74.5499 123.744 74.9865ZM112.488 85.6091L111.903 85.9002L111.611 86.6277C112.122 86.6277 112.634 86.4822 113 86.0457C113.292 85.9002 113.73 85.6091 113.804 85.2453L114.461 84.2995C115.119 84.0812 115.631 83.6447 116.289 83.4264L116.727 82.8443L116.216 82.4805L115.558 82.6988L115.265 83.4991H114.681C113.804 83.8629 113.292 84.5178 112.196 84.8816L112.122 85.1726C112.122 85.3909 112.269 85.5364 112.488 85.6091ZM43.4898 99.3604H46.1211L45.6094 99.6514C45.6825 100.015 44.8785 100.015 44.6593 100.015H44.2938C43.5629 100.452 42.028 100.452 41.224 100.379L40.7854 100.67L37.4963 100.597H37.2039C37.2039 100.452 37.9349 100.161 38.081 100.088C38.6658 100.088 41.3701 100.234 41.9549 99.6514L43.1243 99.7242L43.4898 99.3604ZM91.3645 59.198C91.5838 59.198 91.73 59.198 91.8762 59.1252L91.5838 58.8342L91.3645 58.2521L90.7798 58.3976C90.4874 58.1066 90.2682 57.7428 89.8296 57.7428L89.5373 57.3063C89.2449 57.2335 89.0256 57.1607 88.7333 57.1607H88.3678L87.7831 57.6701L88.2947 58.1794L88.7333 57.8156C89.0256 58.0338 89.4642 58.2521 89.8296 58.3976C90.2682 58.8342 90.7798 59.198 91.3645 59.198ZM61.7626 98.5601L61.251 98.9966C61.251 98.9239 61.1048 98.7056 61.0317 98.7783L60.3739 99.1421H60.447C60.7393 99.1421 60.3008 99.2876 60.2277 99.2876C58.5466 99.2876 59.2775 99.797 58.5466 99.8697L57.9619 100.233C59.2775 100.088 59.2775 99.6514 60.8124 99.6514C60.8855 99.5059 61.0317 99.4332 61.1779 99.4332H61.3971L61.9088 99.3604L62.055 98.9966L61.9819 98.5601H61.7626ZM109.126 69.6024C108.833 68.9475 108.395 68.7293 107.883 68.2927C107.737 67.7834 107.372 67.3469 106.933 66.9831L106.641 67.3469C106.787 67.7107 108.322 69.5296 108.833 69.7479L109.126 69.6024ZM85.8827 90.1929L85.5903 89.9019L85.8096 90.9932H85.8827L86.6867 91.5753L87.0522 91.2115L86.3212 90.9932L86.5405 90.4839C86.906 90.1929 87.3445 89.9746 87.6369 89.6108L86.4674 89.6836L85.8827 90.1929ZM63.5168 99.0694L63.7361 98.9966C63.7361 98.9239 63.5899 98.269 63.7361 98.269C63.8822 98.269 64.0284 98.4146 64.1015 98.4873L64.1746 98.7783C64.5401 98.3418 64.9055 98.3418 65.271 97.978C65.5633 97.8325 65.8557 97.6142 66.1481 97.3959L66.075 97.3232L65.0517 97.7597C64.9055 97.7597 64.6132 97.7597 64.5401 97.978C64.1015 98.0508 63.8092 97.978 63.5168 98.3418C63.2244 98.4146 62.859 98.4873 62.5666 98.4873L62.7128 98.9966L63.5168 99.0694ZM83.69 52.868L83.9092 52.9408L84.0554 53.6684L84.4209 53.2318L83.9823 52.577V51.7039C84.2016 51.4856 84.3478 51.2673 84.3478 50.9763V50.8308L83.6169 51.1218C83.69 51.4129 83.5438 51.8494 83.4707 52.1404L83.69 52.868ZM104.594 64.3638V65.0914L105.325 65.1641V65.3096L106.056 65.5279L106.86 66.1827L106.641 65.3824C105.983 64.9459 105.252 64.8003 104.594 64.3638ZM116.508 40.6447C115.485 40.6447 114.388 40.7902 113.365 40.8629L113.219 41.2267C114.315 41.0812 115.558 41.3722 116.508 40.6447ZM127.106 72.731L127.618 71.3486C127.691 71.8579 127.837 72.3672 127.837 72.9492C127.837 73.2403 127.764 73.6041 127.545 73.8951C127.325 73.5313 127.106 73.1675 127.106 72.731ZM98.8929 62.4721L99.4046 62.1083V61.8173L98.8929 61.7445C98.5275 61.5262 98.162 61.3079 97.8697 60.9442L97.7966 61.4535C97.7966 62.0355 98.4544 62.2538 98.8929 62.4721ZM106.568 90.775L107.445 90.7022L107.225 91.2115C106.86 91.5025 106.421 91.7208 105.983 91.8663L105.471 91.5753C105.91 91.357 106.348 91.2115 106.568 90.775ZM87.1983 54.3232V55.1235L86.9791 55.7056C87.4176 55.7783 87.9293 55.9966 88.2947 56.2877L88.0754 55.7056L87.71 55.4146V54.9052L87.1983 54.3232ZM121.917 39.4078H121.624C120.82 39.4078 120.089 39.6988 119.285 39.6988L119.139 39.9898C119.212 40.0626 119.432 39.9898 119.432 39.8443L120.236 39.7716H120.309L120.236 39.9171C120.82 39.9171 121.478 39.9171 121.917 39.4078ZM50.5796 98.7056H50.4335V98.7783C49.6295 98.7056 49.4102 99.1421 48.8255 99.1421C48.7524 99.1421 48.0945 99.1421 48.0945 99.2876C48.0945 99.3604 48.46 99.3604 48.46 99.3604H49.5564L50.068 99.1421C50.2873 99.1421 50.5796 98.9966 50.5796 98.7056ZM51.4567 105.763C51.3836 106.345 50.3604 105.763 50.2873 106.272C50.5796 106.272 52.6262 106.272 52.6993 105.763H51.4567ZM89.6834 55.9239L88.8794 55.7056C88.8794 56.2876 89.318 56.7242 89.9027 56.7242C89.8296 56.5059 89.8296 56.1421 89.6834 55.9239ZM114.9 86.555C115.265 86.1184 115.704 85.7546 116.142 85.3909L116.069 86.1912C115.704 86.3367 115.338 86.4822 114.9 86.555ZM90.6336 88.2284L90.2682 87.9374L90.0489 88.665L90.2682 88.8105L90.7067 88.5195H91.1453L90.9991 87.9374L90.6336 88.2284ZM95.3846 93.9763C94.2882 93.9763 93.6304 94.6311 92.6071 94.9222L92.8995 95.1404L93.1918 94.8494C93.7035 94.7039 94.142 94.4856 94.5806 94.2673H94.6536L95.3846 93.9763ZM126.887 67.2741L126.814 66.3283C127.106 66.6193 127.472 67.0558 127.472 67.4924L126.887 67.2741ZM102.474 49.5939L101.817 49.4484V49.5211L102.474 50.6853V49.5939ZM86.6867 53.7411H86.1751L86.3212 54.5415L86.1751 55.1235L86.6867 54.2504V53.7411ZM64.1015 101.252L63.8092 101.034C63.663 101.179 63.3706 101.252 63.1513 101.325L63.0782 101.47C63.0782 101.689 63.3706 101.689 63.5168 101.689L64.1015 101.252ZM86.0289 52.7225L85.6634 52.4315L85.5903 53.159L85.8827 53.5228L86.0289 52.7225ZM67.4637 96.5956C67.9023 96.5228 68.3408 96.3773 68.7063 96.2318C68.7063 96.0863 68.7063 96.0135 68.7794 95.868C68.3408 96.0863 67.9023 96.3046 67.4637 96.5956ZM101.743 91.2115C101.232 91.2843 100.428 91.2843 100.135 91.7936L101.743 91.2115ZM46.4134 104.162L46.852 104.453C46.9982 104.453 47.2905 104.381 47.2905 104.162H46.4134ZM79.743 92.5939C79.9623 92.5211 80.1816 92.5211 80.4009 92.5211L80.547 92.1574C80.2547 92.3029 79.8892 92.2301 79.743 92.5939ZM85.8096 51.2673H85.2249L85.6634 51.7766L85.8096 51.2673ZM117.385 40.9357L117.824 41.0812H117.897L118.043 40.5719L117.385 40.9357ZM41.7356 101.834L42.1742 101.98C42.1742 102.125 42.1011 102.198 41.9549 102.198C41.8087 102.198 41.5894 102.052 41.5894 101.907C41.5894 101.834 41.7356 101.834 41.7356 101.834ZM48.8985 99.8697C48.8985 100.088 49.1178 100.161 49.3371 100.161C49.4833 100.161 49.6295 100.161 49.6295 100.015L48.8985 99.8697ZM111.318 87.2098L110.807 86.846V87.3553L111.318 87.2098ZM62.2011 101.616H61.8357V101.689C61.8357 101.761 61.9088 101.907 61.9819 101.907C62.1281 101.907 62.2742 101.834 62.2742 101.689L62.2011 101.616ZM52.3338 99.797C52.2607 99.797 51.8222 99.7242 51.8222 99.8697C51.8222 100.015 52.3338 100.161 52.3338 99.797ZM93.1187 58.1794H93.0456L93.7766 58.3976L93.8496 58.2521L93.1187 58.1794ZM52.9917 105.545V105.618C52.9917 105.763 53.5764 105.545 53.7226 105.545H52.9917ZM51.676 98.3418C51.676 98.4146 51.7491 98.5601 51.8222 98.6328C51.9684 98.6328 51.9684 98.4873 51.9684 98.4146L51.676 98.3418ZM76.4539 93.5398V93.6125H76.527V93.6853H76.6001C76.6732 93.6853 76.7463 93.6125 76.7463 93.5398V93.467L76.6001 93.5398L76.6732 93.467L76.527 93.3942L76.4539 93.467L76.527 93.5398H76.4539ZM124.182 40.4264L124.109 40.4992C124.329 40.4992 124.621 40.5719 124.913 40.5719L124.182 40.4264ZM42.832 101.689C42.7589 101.834 42.6127 101.98 42.3934 101.98L42.832 101.689ZM66.9521 97.1777H66.6597L66.8059 97.3232C66.879 97.3232 66.9521 97.2504 66.9521 97.1777ZM52.9917 99.6514L53.3571 99.4332C53.2109 99.4332 53.0647 99.5059 52.9917 99.6514ZM42.832 101.689C42.9782 101.616 43.1243 101.616 43.1974 101.689H42.832ZM76.527 93.6125C76.527 93.5398 76.6001 93.5398 76.6001 93.5398H76.527V93.6125Z" fill="url(#paint1_linear_616_3727)"/>
</g>
<defs>
<filter id="filter0_d_616_3727" x="0" y="0" width="160" height="136" filterUnits="userSpaceOnUse" color-interpolation-filters="sRGB">
<feFlood flood-opacity="0" result="BackgroundImageFix"/>
<feColorMatrix in="SourceAlpha" type="matrix" values="0 0 0 0 0 0 0 0 0 0 0 0 0 0 0 0 0 0 127 0" result="hardAlpha"/>
<feOffset dy="4"/>
<feGaussianBlur stdDeviation="12.5"/>
<feComposite in2="hardAlpha" operator="out"/>
<feColorMatrix type="matrix" values="0 0 0 0 0.662745 0 0 0 0 0.968627 0 0 0 0 0.729412 0 0 0 0.5 0"/>
<feBlend mode="normal" in2="BackgroundImageFix" result="effect1_dropShadow_616_3727"/>
<feBlend mode="normal" in="SourceGraphic" in2="effect1_dropShadow_616_3727" result="shape"/>
</filter>
<linearGradient id="paint0_linear_616_3727" x1="48.3872" y1="-101.259" x2="170.374" y2="-77.9239" gradientUnits="userSpaceOnUse">
<stop stop-color="#86FDD2"/>
<stop offset="1" stop-color="#F4E987"/>
</linearGradient>
<linearGradient id="paint1_linear_616_3727" x1="48.3872" y1="-101.259" x2="170.374" y2="-77.9239" gradientUnits="userSpaceOnUse">
<stop stop-color="#86FDD2"/>
<stop offset="1" stop-color="#F4E987"/>
</linearGradient>
</defs>
</svg>
