<svg width="24" height="25" viewBox="0 0 24 25" fill="none" xmlns="http://www.w3.org/2000/svg">
<path fill-rule="evenodd" clip-rule="evenodd" d="M0 12.5C0 19.1274 5.37258 24.5 12 24.5C18.6274 24.5 24 19.1274 24 12.5C24 5.87258 18.6274 0.5 12 0.5C5.37258 0.5 0 5.87258 0 12.5ZM19.5303 12.0408C19.5287 15.9742 16.329 19.1747 12.3948 19.1763H12.3918C11.1976 19.1759 10.0241 18.8762 8.98189 18.3078L5.19922 19.3L6.21153 15.6024C5.58709 14.5203 5.25851 13.2928 5.25904 12.0351C5.26061 8.10087 8.46163 4.90002 12.3947 4.90002C14.3035 4.90085 16.0951 5.64396 17.4423 6.99273C18.7895 8.34143 19.531 10.1342 19.5303 12.0408Z" fill="white"/>
<path fill-rule="evenodd" clip-rule="evenodd" d="M6.9135 17.6048L9.15819 17.0159L9.37476 17.1445C10.2853 17.6848 11.3292 17.9708 12.3934 17.9712H12.3958C15.6647 17.9712 18.3252 15.3106 18.3265 12.0403C18.3271 10.4556 17.7108 8.96555 16.5911 7.8445C15.4713 6.72345 13.9822 6.10577 12.3981 6.10522C9.12672 6.10522 6.46614 8.76556 6.46484 12.0355C6.46438 13.1562 6.77794 14.2476 7.37162 15.1918L7.51264 15.4162L6.9135 17.6048ZM15.746 13.577C15.8703 13.6371 15.9543 13.6777 15.9902 13.7376C16.0347 13.8119 16.0347 14.1689 15.8862 14.5854C15.7376 15.0019 15.0253 15.382 14.6827 15.4332C14.3756 15.4791 13.9868 15.4982 13.5597 15.3625C13.3008 15.2803 12.9687 15.1706 12.5433 14.9869C10.8719 14.2652 9.74229 12.6452 9.5288 12.339C9.51385 12.3176 9.50339 12.3026 9.49755 12.2948L9.49611 12.2928C9.40176 12.1669 8.76953 11.3234 8.76953 10.4504C8.76953 9.62911 9.17295 9.19864 9.35865 9.0005C9.37137 8.98692 9.38307 8.97444 9.39355 8.96299C9.55697 8.78449 9.75014 8.73987 9.869 8.73987C9.98784 8.73987 10.1068 8.74097 10.2107 8.74618C10.2235 8.74683 10.2369 8.74675 10.2506 8.74667C10.3545 8.74606 10.4841 8.7453 10.6119 9.05224C10.661 9.17037 10.733 9.3455 10.8088 9.5302C10.9622 9.90371 11.1318 10.3164 11.1616 10.3761C11.2062 10.4653 11.2359 10.5694 11.1764 10.6885C11.1675 10.7063 11.1593 10.7232 11.1514 10.7393C11.1067 10.8304 11.0739 10.8974 10.9982 10.9859C10.9684 11.0207 10.9376 11.0582 10.9068 11.0957C10.8454 11.1704 10.7841 11.245 10.7307 11.2983C10.6414 11.3872 10.5485 11.4836 10.6525 11.6621C10.7565 11.8406 11.1144 12.4244 11.6444 12.8972C12.2142 13.4054 12.7094 13.6202 12.9604 13.7291C13.0094 13.7504 13.0491 13.7676 13.0782 13.7822C13.2564 13.8715 13.3604 13.8565 13.4645 13.7376C13.5685 13.6186 13.9102 13.2169 14.029 13.0385C14.1478 12.86 14.2667 12.8897 14.4301 12.9492C14.5936 13.0088 15.4702 13.4401 15.6485 13.5293C15.6833 13.5467 15.7158 13.5624 15.746 13.577Z" fill="white"/>
</svg>
