<svg width="129" height="33" viewBox="0 0 129 33" fill="none" xmlns="http://www.w3.org/2000/svg">
<g clip-path="url(#clip0_464_757)">
<mask id="mask0_464_757" style="mask-type:luminance" maskUnits="userSpaceOnUse" x="0" y="0" width="129" height="33">
<path d="M129 0.5H0V32.5H129V0.5Z" fill="white"/>
</mask>
<g mask="url(#mask0_464_757)">
<path d="M49.309 1.25244L38.1797 29.6111H44.1607L46.4703 23.6882H58.2866L60.5853 29.6111H66.5208L55.4328 1.25244H49.309ZM48.4969 18.4836L52.3908 8.50458L56.2627 18.4836H48.4969Z" fill="white"/>
<path d="M118.416 9.33008C116.323 9.33008 114.277 9.93521 112.537 11.069C110.798 12.2028 109.442 13.8143 108.642 15.6996C107.84 17.585 107.631 19.6596 108.039 21.6611C108.447 23.6626 109.455 25.5012 110.935 26.9441C112.414 28.3872 114.299 29.3699 116.351 29.7681C118.404 30.1661 120.531 29.9618 122.465 29.1809C124.397 28.3999 126.05 27.0774 127.212 25.3806C128.375 23.6838 128.995 21.6889 128.995 19.6482C128.995 16.9116 127.88 14.2872 125.897 12.3522C123.913 10.4172 121.221 9.33008 118.416 9.33008ZM118.416 24.6759C117.396 24.6759 116.4 24.3811 115.553 23.8289C114.705 23.2765 114.044 22.4915 113.654 21.573C113.264 20.6546 113.162 19.6439 113.361 18.6689C113.56 17.694 114.05 16.7983 114.771 16.0954C115.492 15.3924 116.41 14.9137 117.41 14.7197C118.41 14.5258 119.446 14.6253 120.388 15.0058C121.329 15.3862 122.135 16.0305 122.701 16.857C123.267 17.6836 123.569 18.6554 123.569 19.6496C123.571 20.3099 123.438 20.964 123.18 21.5743C122.921 22.1846 122.541 22.7391 122.062 23.206C121.584 23.6731 121.015 24.0433 120.389 24.2955C119.764 24.5477 119.093 24.6769 118.416 24.6759Z" fill="white"/>
<path d="M73.649 22.2973L68.818 9.68774H63.1133L70.8887 29.611H76.5481L84.1847 9.68774H78.4799L73.649 22.2973Z" fill="white"/>
<path d="M102.126 4.39355H96.6975V9.68795H93.5234V14.445H96.6975V22.9259C96.6975 27.7272 99.4122 29.7908 103.23 29.7908C104.526 29.809 105.81 29.5644 107.004 29.0725V24.1373C106.354 24.3707 105.67 24.4944 104.978 24.5031C103.33 24.5031 102.126 23.8746 102.126 21.7212V14.445H107.004V9.68795H102.126V4.39355Z" fill="white"/>
<path d="M88.6447 8.25264C90.8301 8.25264 92.6019 6.52481 92.6019 4.39341C92.6019 2.26201 90.8301 0.53418 88.6447 0.53418C86.4593 0.53418 84.6875 2.26201 84.6875 4.39341C84.6875 6.52481 86.4593 8.25264 88.6447 8.25264Z" fill="white"/>
<path d="M91.362 9.68799H85.9336V29.6113H91.362V9.68799Z" fill="white"/>
<path d="M10.6175 32.4386C16.462 32.4386 21.1999 27.8178 21.1999 22.1179C21.1999 16.4178 16.462 11.7971 10.6175 11.7971C4.77306 11.7971 0.0351562 16.4178 0.0351562 22.1179C0.0351562 27.8178 4.77306 32.4386 10.6175 32.4386Z" fill="#04E061"/>
<path d="M28.9727 31.1359C32.5043 31.1359 35.3672 28.3438 35.3672 24.8995C35.3672 21.4552 32.5043 18.6631 28.9727 18.6631C25.4411 18.6631 22.5781 21.4552 22.5781 24.8995C22.5781 28.3438 25.4411 31.1359 28.9727 31.1359Z" fill="#FF4053"/>
<path d="M12.6445 10.4514C14.83 10.4514 16.6017 8.72354 16.6017 6.59214C16.6017 4.46075 14.83 2.73291 12.6445 2.73291C10.4591 2.73291 8.6875 4.46075 8.6875 6.59214C8.6875 8.72354 10.4591 10.4514 12.6445 10.4514Z" fill="#965EEB"/>
<path d="M26.4945 17.3165C31.2463 17.3165 35.0984 13.5596 35.0984 8.92536C35.0984 4.29103 31.2463 0.53418 26.4945 0.53418C21.7427 0.53418 17.8906 4.29103 17.8906 8.92536C17.8906 13.5596 21.7427 17.3165 26.4945 17.3165Z" fill="#00AAFF"/>
</g>
</g>
<defs>
<clipPath id="clip0_464_757">
<rect width="129" height="32" fill="white" transform="translate(0 0.5)"/>
</clipPath>
</defs>
</svg>
