<svg width="177" height="33" viewBox="0 0 177 33" fill="none" xmlns="http://www.w3.org/2000/svg">
<g clip-path="url(#clip0_464_773)">
<path d="M16.0781 32.5C24.9147 32.5 32.0781 25.3366 32.0781 16.5C32.0781 7.66344 24.9147 0.5 16.0781 0.5C7.24157 0.5 0.078125 7.66344 0.078125 16.5C0.078125 25.3366 7.24157 32.5 16.0781 32.5Z" fill="url(#paint0_linear_464_773)"/>
<path d="M10.9102 17.6697L12.8084 22.9238C12.8084 22.9238 13.0458 23.4154 13.2999 23.4154C13.554 23.4154 17.3339 19.4832 17.3339 19.4832L21.5372 11.3645L10.9779 16.3134L10.9102 17.6697Z" fill="#C8DAEA"/>
<path d="M13.4255 19.0171L13.0611 22.8899C13.0611 22.8899 12.9085 24.0766 14.0949 22.8899C15.2813 21.7032 16.4169 20.7882 16.4169 20.7882" fill="#A9C6D8"/>
<path d="M10.9424 17.8569L7.03762 16.5846C7.03762 16.5846 6.57095 16.3953 6.72122 15.966C6.75215 15.8774 6.81455 15.8021 7.00122 15.6726C7.86642 15.0696 23.0154 9.62463 23.0154 9.62463C23.0154 9.62463 23.4431 9.48049 23.6954 9.57636C23.7578 9.59568 23.8139 9.63123 23.8581 9.67937C23.9022 9.72751 23.9328 9.78652 23.9467 9.85036C23.9739 9.96311 23.9853 10.0791 23.9806 10.195C23.9794 10.2953 23.9672 10.3882 23.958 10.534C23.8658 12.0226 21.1047 23.133 21.1047 23.133C21.1047 23.133 20.9395 23.7832 20.3476 23.8054C20.2022 23.8101 20.0573 23.7855 19.9215 23.733C19.7858 23.6805 19.662 23.6012 19.5576 23.4998C18.3962 22.5008 14.3818 19.8029 13.4947 19.2096C13.4747 19.1959 13.4578 19.1782 13.4453 19.1575C13.4327 19.1368 13.4247 19.1136 13.4219 19.0896C13.4095 19.027 13.4775 18.9496 13.4775 18.9496C13.4775 18.9496 20.4676 12.7362 20.6536 12.084C20.668 12.0334 20.6136 12.0085 20.5406 12.0306C20.0763 12.2014 12.028 17.284 11.1398 17.8449C11.0758 17.8642 11.0082 17.8683 10.9424 17.8569Z" fill="white"/>
</g>
<path d="M107.894 31.7691C106.956 31.5966 106.064 31.3351 105.154 31.0637C105.148 30.1075 105.232 29.1139 105.414 28.2068C113.591 30.5669 115.485 29.0217 115.625 23.7926V22.5363L114.569 23.5012C113.195 24.7567 111.85 25.2055 109.846 25.0768C105.865 24.8214 103.661 21.9104 103.654 16.9009C103.65 13.9054 104.312 12.0024 105.978 10.2216C108.2 7.84628 112.002 7.38944 114.661 9.17856L115.625 9.8274V9.14798V8.46861L117.337 8.5253L119.05 8.58204L119.107 15.3343C119.195 25.8617 118.887 27.9173 116.921 29.9208C114.284 32.1456 111.591 32.1379 107.894 31.7691ZM113.075 21.4041C113.53 21.1719 114.29 20.6248 114.764 20.1881L115.625 19.3942V16.1093V12.8244L115.012 12.3084C112.913 10.5426 110.657 10.4083 108.953 11.9477C107.848 12.946 107.361 14.3871 107.347 16.7039C107.329 19.5023 107.931 20.9195 109.44 21.6276C110.44 22.0967 111.892 22.0074 113.075 21.4041ZM63.5481 23.6207C61.5477 21.7126 60.6061 18.7236 61.0068 15.5531C61.3322 12.9777 62.1176 11.2984 63.6627 9.87405C64.8886 8.74414 66.0401 8.26921 67.8558 8.14473C72.2777 7.84166 74.8994 10.8581 74.9123 16.2636L74.9161 17.6825C71.5406 17.7727 67.6809 17.4697 64.5431 17.9406C65.002 20.8475 67.1031 23.0207 70.0231 23.0638C71.7777 23.0638 73.0399 22.6186 74.7268 22.2859L74.7781 24.963C74.7781 24.963 70.8385 25.8985 69.3381 25.8872C67.0355 25.8965 64.8493 24.8511 63.5481 23.6207ZM71.3918 14.4043C71.388 12.7376 70.3042 11.1722 68.9814 10.9239C66.8933 10.5323 65.2933 11.7426 64.7686 14.1107L64.5844 14.9424H67.9886H71.3928L71.3918 14.4043ZM89.187 23.6207C87.1867 21.7126 86.2451 18.7236 86.6457 15.5531C86.9711 12.9777 87.7565 11.2984 89.3017 9.87405C90.5275 8.74414 91.6791 8.26921 93.4947 8.14473C97.9166 7.84166 100.538 10.8581 100.551 16.2636L100.555 17.6825C96.9525 17.636 93.5014 17.6509 90.0912 17.623C90.2945 21.0557 92.5124 23.2416 95.6621 23.0639C97.433 23.0983 98.9876 22.6159 100.366 22.2862C100.672 22.4755 100.597 24.6456 100.275 24.9129C99.8306 25.2819 96.4774 25.8987 94.9771 25.8875C92.6745 25.8968 90.4881 24.851 89.187 23.6207ZM97.0307 14.4043C97.027 12.7376 95.9431 11.1722 94.6203 10.9239C92.5322 10.5323 90.9322 11.7426 90.4076 14.1107L90.2233 14.9424H93.6275H97.0318L97.0307 14.4043ZM138.083 25.6353C135.634 24.7216 134.428 22.0874 135.231 19.4063C135.552 18.3345 136.779 17.0161 138.02 16.4086C139.194 15.8342 141.57 15.351 143.27 15.3407L144.395 15.3315V13.9517C144.329 10.2244 141.384 10.4668 138.477 11.5221C137.695 11.8034 136.675 12.0359 136.486 12.0942C136.462 11.2197 136.371 10.6192 136.371 9.28121L137.986 8.77036C139.062 8.42992 140.254 8.22226 141.561 8.14779C144.7 7.96893 146.397 8.65729 147.388 10.512C147.796 11.2745 147.825 11.6247 147.918 16.8328C148.016 22.337 148.017 22.3474 148.491 22.8512C148.775 23.1535 149.814 23.4468 150.133 23.4468C150.123 24.5956 150.256 24.5487 150.118 25.6264C149.661 25.7494 148.143 25.9023 147.576 25.8553C146.467 25.7633 145.779 25.2983 145.251 24.2819L144.969 23.74L144.242 24.322C142.564 25.6648 139.766 26.2604 138.083 25.6328L138.083 25.6353ZM142.195 22.6901C142.627 22.5378 143.297 22.2075 143.685 21.9562L144.39 21.4992V19.493V17.4868H143.551C141.577 17.4868 139.225 18.4999 138.743 19.5581C138.212 20.7241 138.656 22.1095 139.732 22.6397C140.533 23.0342 141.178 23.0474 142.19 22.6898L142.195 22.6901ZM48.1025 15.334V5.1566H44.0903H40.0781V3.78657V2.41666H49.9618H59.8455V3.78657V5.1566H55.8333H51.8211V15.334V25.5114H49.9618H48.1025V15.334ZM79.2215 13.2789V1.04663H80.983H82.7444V13.2789V25.5114H80.983H79.2215V13.2789ZM124.041 16.9975V8.46861C125.182 8.50673 126.369 8.45372 127.511 8.49091C127.5 9.19513 127.542 9.89662 127.583 10.599C129.188 8.83468 130.892 8.38065 132.318 8.22865L133.631 8.09247V9.7701V11.4479C131.429 10.8013 129.133 12.2569 128.084 13.6704C127.681 14.2305 127.657 14.5146 127.564 19.8356L127.466 25.4135C126.324 25.4517 125.182 25.4888 124.041 25.5269L124.041 16.9975ZM153.203 16.9975V8.48388C154.377 8.48388 155.551 8.48388 156.725 8.48388C156.725 9.2633 156.725 10.6238 156.725 11.4032C158.211 9.73287 160.009 8.1604 162.01 8.19024C164.456 8.0942 165.458 9.67517 166.549 11.4296C169.607 7.9859 175.186 6.99611 176.91 11.0922C177.076 16.6861 176.979 18.7619 176.891 25.5046C175.756 25.5427 174.711 25.4896 173.576 25.5268C173.628 21.1755 173.565 16.2563 173.459 12.1704C173.023 11.3141 172.215 10.6412 170.822 11.0094C169.429 11.3778 168.169 12.4618 166.857 13.9927C166.857 17.787 166.902 21.7176 166.902 25.5119H165.148H163.394C163.357 21.0648 163.319 16.6176 163.282 12.1705C162.578 11.3568 162.017 10.8803 160.688 11.197C159.36 11.5135 157.594 12.5638 156.725 14.2306C156.725 17.9909 156.68 21.7516 156.68 25.5119C155.505 25.5119 154.376 25.5119 153.202 25.5119C153.202 22.6738 153.202 19.8357 153.203 16.9975Z" fill="white"/>
<defs>
<linearGradient id="paint0_linear_464_773" x1="16.0781" y1="32.5" x2="16.0781" y2="0.5" gradientUnits="userSpaceOnUse">
<stop stop-color="#1D93D2"/>
<stop offset="1" stop-color="#38B0E3"/>
</linearGradient>
<clipPath id="clip0_464_773">
<rect width="32" height="32" fill="white" transform="translate(0.078125 0.5)"/>
</clipPath>
</defs>
</svg>
